G75*
G70*
%OFA0B0*%
%FSLAX24Y24*%
%IPPOS*%
%LPD*%
%AMOC8*
5,1,8,0,0,1.08239X$1,22.5*
%
%ADD10C,0.0820*%
%ADD11C,0.0730*%
%ADD12R,0.0730X0.0730*%
%ADD13C,0.0082*%
%ADD14C,0.0085*%
%ADD15C,0.1740*%
%ADD16C,0.1700*%
%ADD17C,0.0084*%
%ADD18C,0.0085*%
%ADD19C,0.0081*%
%ADD20C,0.0860*%
%ADD21C,0.0860*%
%ADD22C,0.0820*%
%ADD23C,0.0081*%
%ADD24C,0.0081*%
%ADD25C,0.0083*%
%ADD26C,0.0905*%
%ADD27C,0.1380*%
%ADD28C,0.0084*%
%ADD29C,0.0456*%
D10*
X018706Y004157D02*
X019446Y004157D01*
X019446Y005157D02*
X018706Y005157D01*
X018706Y006157D02*
X019446Y006157D01*
X019446Y007157D02*
X018706Y007157D01*
D11*
X015076Y013657D03*
X013076Y013657D03*
X018076Y015157D03*
D12*
X019076Y015157D03*
D13*
X014140Y010982D02*
X013512Y010982D01*
X014140Y010982D02*
X014140Y010434D01*
X013512Y010434D01*
X013512Y010982D01*
X013512Y010515D02*
X014140Y010515D01*
X014140Y010596D02*
X013512Y010596D01*
X013512Y010677D02*
X014140Y010677D01*
X014140Y010758D02*
X013512Y010758D01*
X013512Y010839D02*
X014140Y010839D01*
X014140Y010920D02*
X013512Y010920D01*
X013512Y009880D02*
X014140Y009880D01*
X014140Y009332D01*
X013512Y009332D01*
X013512Y009880D01*
X013512Y009413D02*
X014140Y009413D01*
X014140Y009494D02*
X013512Y009494D01*
X013512Y009575D02*
X014140Y009575D01*
X014140Y009656D02*
X013512Y009656D01*
X013512Y009737D02*
X014140Y009737D01*
X014140Y009818D02*
X013512Y009818D01*
D14*
X012928Y010543D02*
X012928Y011169D01*
X012928Y010543D02*
X012224Y010543D01*
X012224Y011169D01*
X012928Y011169D01*
X012928Y010627D02*
X012224Y010627D01*
X012224Y010711D02*
X012928Y010711D01*
X012928Y010795D02*
X012224Y010795D01*
X012224Y010879D02*
X012928Y010879D01*
X012928Y010963D02*
X012224Y010963D01*
X012224Y011047D02*
X012928Y011047D01*
X012928Y011131D02*
X012224Y011131D01*
X012928Y011645D02*
X012928Y012271D01*
X012928Y011645D02*
X012224Y011645D01*
X012224Y012271D01*
X012928Y012271D01*
X012928Y011729D02*
X012224Y011729D01*
X012224Y011813D02*
X012928Y011813D01*
X012928Y011897D02*
X012224Y011897D01*
X012224Y011981D02*
X012928Y011981D01*
X012928Y012065D02*
X012224Y012065D01*
X012224Y012149D02*
X012928Y012149D01*
X012928Y012233D02*
X012224Y012233D01*
X011691Y011805D02*
X011065Y011805D01*
X011065Y012509D01*
X011691Y012509D01*
X011691Y011805D01*
X011691Y011889D02*
X011065Y011889D01*
X011065Y011973D02*
X011691Y011973D01*
X011691Y012057D02*
X011065Y012057D01*
X011065Y012141D02*
X011691Y012141D01*
X011691Y012225D02*
X011065Y012225D01*
X011065Y012309D02*
X011691Y012309D01*
X011691Y012393D02*
X011065Y012393D01*
X011065Y012477D02*
X011691Y012477D01*
X010928Y013043D02*
X010928Y013669D01*
X010928Y013043D02*
X010224Y013043D01*
X010224Y013669D01*
X010928Y013669D01*
X010928Y013127D02*
X010224Y013127D01*
X010224Y013211D02*
X010928Y013211D01*
X010928Y013295D02*
X010224Y013295D01*
X010224Y013379D02*
X010928Y013379D01*
X010928Y013463D02*
X010224Y013463D01*
X010224Y013547D02*
X010928Y013547D01*
X010928Y013631D02*
X010224Y013631D01*
X010928Y014145D02*
X010928Y014771D01*
X010928Y014145D02*
X010224Y014145D01*
X010224Y014771D01*
X010928Y014771D01*
X010928Y014229D02*
X010224Y014229D01*
X010224Y014313D02*
X010928Y014313D01*
X010928Y014397D02*
X010224Y014397D01*
X010224Y014481D02*
X010928Y014481D01*
X010928Y014565D02*
X010224Y014565D01*
X010224Y014649D02*
X010928Y014649D01*
X010928Y014733D02*
X010224Y014733D01*
X011462Y015759D02*
X012088Y015759D01*
X012088Y015055D01*
X011462Y015055D01*
X011462Y015759D01*
X011462Y015139D02*
X012088Y015139D01*
X012088Y015223D02*
X011462Y015223D01*
X011462Y015307D02*
X012088Y015307D01*
X012088Y015391D02*
X011462Y015391D01*
X011462Y015475D02*
X012088Y015475D01*
X012088Y015559D02*
X011462Y015559D01*
X011462Y015643D02*
X012088Y015643D01*
X012088Y015727D02*
X011462Y015727D01*
X012565Y015759D02*
X013191Y015759D01*
X013191Y015055D01*
X012565Y015055D01*
X012565Y015759D01*
X012565Y015139D02*
X013191Y015139D01*
X013191Y015223D02*
X012565Y015223D01*
X012565Y015307D02*
X013191Y015307D01*
X013191Y015391D02*
X012565Y015391D01*
X012565Y015475D02*
X013191Y015475D01*
X013191Y015559D02*
X012565Y015559D01*
X012565Y015643D02*
X013191Y015643D01*
X013191Y015727D02*
X012565Y015727D01*
X013712Y015055D02*
X014338Y015055D01*
X013712Y015055D02*
X013712Y015759D01*
X014338Y015759D01*
X014338Y015055D01*
X014338Y015139D02*
X013712Y015139D01*
X013712Y015223D02*
X014338Y015223D01*
X014338Y015307D02*
X013712Y015307D01*
X013712Y015391D02*
X014338Y015391D01*
X014338Y015475D02*
X013712Y015475D01*
X013712Y015559D02*
X014338Y015559D01*
X014338Y015643D02*
X013712Y015643D01*
X013712Y015727D02*
X014338Y015727D01*
X014815Y015055D02*
X015441Y015055D01*
X014815Y015055D02*
X014815Y015759D01*
X015441Y015759D01*
X015441Y015055D01*
X015441Y015139D02*
X014815Y015139D01*
X014815Y015223D02*
X015441Y015223D01*
X015441Y015307D02*
X014815Y015307D01*
X014815Y015391D02*
X015441Y015391D01*
X015441Y015475D02*
X014815Y015475D01*
X014815Y015559D02*
X015441Y015559D01*
X015441Y015643D02*
X014815Y015643D01*
X014815Y015727D02*
X015441Y015727D01*
X017712Y012305D02*
X018338Y012305D01*
X017712Y012305D02*
X017712Y013009D01*
X018338Y013009D01*
X018338Y012305D01*
X018338Y012389D02*
X017712Y012389D01*
X017712Y012473D02*
X018338Y012473D01*
X018338Y012557D02*
X017712Y012557D01*
X017712Y012641D02*
X018338Y012641D01*
X018338Y012725D02*
X017712Y012725D01*
X017712Y012809D02*
X018338Y012809D01*
X018338Y012893D02*
X017712Y012893D01*
X017712Y012977D02*
X018338Y012977D01*
X018815Y012305D02*
X019441Y012305D01*
X018815Y012305D02*
X018815Y013009D01*
X019441Y013009D01*
X019441Y012305D01*
X019441Y012389D02*
X018815Y012389D01*
X018815Y012473D02*
X019441Y012473D01*
X019441Y012557D02*
X018815Y012557D01*
X018815Y012641D02*
X019441Y012641D01*
X019441Y012725D02*
X018815Y012725D01*
X018815Y012809D02*
X019441Y012809D01*
X019441Y012893D02*
X018815Y012893D01*
X018815Y012977D02*
X019441Y012977D01*
X019428Y011021D02*
X019428Y010395D01*
X018724Y010395D01*
X018724Y011021D01*
X019428Y011021D01*
X019428Y010479D02*
X018724Y010479D01*
X018724Y010563D02*
X019428Y010563D01*
X019428Y010647D02*
X018724Y010647D01*
X018724Y010731D02*
X019428Y010731D01*
X019428Y010815D02*
X018724Y010815D01*
X018724Y010899D02*
X019428Y010899D01*
X019428Y010983D02*
X018724Y010983D01*
X019428Y009919D02*
X019428Y009293D01*
X018724Y009293D01*
X018724Y009919D01*
X019428Y009919D01*
X019428Y009377D02*
X018724Y009377D01*
X018724Y009461D02*
X019428Y009461D01*
X019428Y009545D02*
X018724Y009545D01*
X018724Y009629D02*
X019428Y009629D01*
X019428Y009713D02*
X018724Y009713D01*
X018724Y009797D02*
X019428Y009797D01*
X019428Y009881D02*
X018724Y009881D01*
X011691Y010555D02*
X011065Y010555D01*
X011065Y011259D01*
X011691Y011259D01*
X011691Y010555D01*
X011691Y010639D02*
X011065Y010639D01*
X011065Y010723D02*
X011691Y010723D01*
X011691Y010807D02*
X011065Y010807D01*
X011065Y010891D02*
X011691Y010891D01*
X011691Y010975D02*
X011065Y010975D01*
X011065Y011059D02*
X011691Y011059D01*
X011691Y011143D02*
X011065Y011143D01*
X011065Y011227D02*
X011691Y011227D01*
X010588Y010555D02*
X009962Y010555D01*
X009962Y011259D01*
X010588Y011259D01*
X010588Y010555D01*
X010588Y010639D02*
X009962Y010639D01*
X009962Y010723D02*
X010588Y010723D01*
X010588Y010807D02*
X009962Y010807D01*
X009962Y010891D02*
X010588Y010891D01*
X010588Y010975D02*
X009962Y010975D01*
X009962Y011059D02*
X010588Y011059D01*
X010588Y011143D02*
X009962Y011143D01*
X009962Y011227D02*
X010588Y011227D01*
X010588Y011805D02*
X009962Y011805D01*
X009962Y012509D01*
X010588Y012509D01*
X010588Y011805D01*
X010588Y011889D02*
X009962Y011889D01*
X009962Y011973D02*
X010588Y011973D01*
X010588Y012057D02*
X009962Y012057D01*
X009962Y012141D02*
X010588Y012141D01*
X010588Y012225D02*
X009962Y012225D01*
X009962Y012309D02*
X010588Y012309D01*
X010588Y012393D02*
X009962Y012393D01*
X009962Y012477D02*
X010588Y012477D01*
X003441Y019455D02*
X002815Y019455D01*
X002815Y020159D01*
X003441Y020159D01*
X003441Y019455D01*
X003441Y019539D02*
X002815Y019539D01*
X002815Y019623D02*
X003441Y019623D01*
X003441Y019707D02*
X002815Y019707D01*
X002815Y019791D02*
X003441Y019791D01*
X003441Y019875D02*
X002815Y019875D01*
X002815Y019959D02*
X003441Y019959D01*
X003441Y020043D02*
X002815Y020043D01*
X002815Y020127D02*
X003441Y020127D01*
X002338Y019455D02*
X001712Y019455D01*
X001712Y020159D01*
X002338Y020159D01*
X002338Y019455D01*
X002338Y019539D02*
X001712Y019539D01*
X001712Y019623D02*
X002338Y019623D01*
X002338Y019707D02*
X001712Y019707D01*
X001712Y019791D02*
X002338Y019791D01*
X002338Y019875D02*
X001712Y019875D01*
X001712Y019959D02*
X002338Y019959D01*
X002338Y020043D02*
X001712Y020043D01*
X001712Y020127D02*
X002338Y020127D01*
X014974Y023043D02*
X014974Y023669D01*
X015678Y023669D01*
X015678Y023043D01*
X014974Y023043D01*
X014974Y023127D02*
X015678Y023127D01*
X015678Y023211D02*
X014974Y023211D01*
X014974Y023295D02*
X015678Y023295D01*
X015678Y023379D02*
X014974Y023379D01*
X014974Y023463D02*
X015678Y023463D01*
X015678Y023547D02*
X014974Y023547D01*
X014974Y023631D02*
X015678Y023631D01*
X014974Y024145D02*
X014974Y024771D01*
X015678Y024771D01*
X015678Y024145D01*
X014974Y024145D01*
X014974Y024229D02*
X015678Y024229D01*
X015678Y024313D02*
X014974Y024313D01*
X014974Y024397D02*
X015678Y024397D01*
X015678Y024481D02*
X014974Y024481D01*
X014974Y024565D02*
X015678Y024565D01*
X015678Y024649D02*
X014974Y024649D01*
X014974Y024733D02*
X015678Y024733D01*
D15*
X018576Y020443D03*
D16*
X017096Y021694D03*
X018566Y023325D03*
D17*
X018234Y011555D02*
X018234Y011079D01*
X017358Y011079D01*
X017358Y011555D01*
X018234Y011555D01*
X018234Y011162D02*
X017358Y011162D01*
X017358Y011245D02*
X018234Y011245D01*
X018234Y011328D02*
X017358Y011328D01*
X017358Y011411D02*
X018234Y011411D01*
X018234Y011494D02*
X017358Y011494D01*
X018234Y010645D02*
X018234Y010169D01*
X017358Y010169D01*
X017358Y010645D01*
X018234Y010645D01*
X018234Y010252D02*
X017358Y010252D01*
X017358Y010335D02*
X018234Y010335D01*
X018234Y010418D02*
X017358Y010418D01*
X017358Y010501D02*
X018234Y010501D01*
X018234Y010584D02*
X017358Y010584D01*
X018234Y009735D02*
X018234Y009259D01*
X017358Y009259D01*
X017358Y009735D01*
X018234Y009735D01*
X018234Y009342D02*
X017358Y009342D01*
X017358Y009425D02*
X018234Y009425D01*
X018234Y009508D02*
X017358Y009508D01*
X017358Y009591D02*
X018234Y009591D01*
X018234Y009674D02*
X017358Y009674D01*
D18*
X015787Y009701D02*
X015787Y011113D01*
X015787Y009701D02*
X014925Y009701D01*
X014925Y011113D01*
X015787Y011113D01*
X015787Y009785D02*
X014925Y009785D01*
X014925Y009869D02*
X015787Y009869D01*
X015787Y009953D02*
X014925Y009953D01*
X014925Y010037D02*
X015787Y010037D01*
X015787Y010121D02*
X014925Y010121D01*
X014925Y010205D02*
X015787Y010205D01*
X015787Y010289D02*
X014925Y010289D01*
X014925Y010373D02*
X015787Y010373D01*
X015787Y010457D02*
X014925Y010457D01*
X014925Y010541D02*
X015787Y010541D01*
X015787Y010625D02*
X014925Y010625D01*
X014925Y010709D02*
X015787Y010709D01*
X015787Y010793D02*
X014925Y010793D01*
X014925Y010877D02*
X015787Y010877D01*
X015787Y010961D02*
X014925Y010961D01*
X014925Y011045D02*
X015787Y011045D01*
D19*
X009397Y012115D02*
X009003Y012115D01*
X009397Y012115D02*
X009397Y011565D01*
X009003Y011565D01*
X009003Y012115D01*
X009003Y011645D02*
X009397Y011645D01*
X009397Y011725D02*
X009003Y011725D01*
X009003Y011805D02*
X009397Y011805D01*
X009397Y011885D02*
X009003Y011885D01*
X009003Y011965D02*
X009397Y011965D01*
X009397Y012045D02*
X009003Y012045D01*
X008649Y012115D02*
X008255Y012115D01*
X008649Y012115D02*
X008649Y011565D01*
X008255Y011565D01*
X008255Y012115D01*
X008255Y011645D02*
X008649Y011645D01*
X008649Y011725D02*
X008255Y011725D01*
X008255Y011805D02*
X008649Y011805D01*
X008649Y011885D02*
X008255Y011885D01*
X008255Y011965D02*
X008649Y011965D01*
X008649Y012045D02*
X008255Y012045D01*
X008629Y011249D02*
X009023Y011249D01*
X009023Y010699D01*
X008629Y010699D01*
X008629Y011249D01*
X008629Y010779D02*
X009023Y010779D01*
X009023Y010859D02*
X008629Y010859D01*
X008629Y010939D02*
X009023Y010939D01*
X009023Y011019D02*
X008629Y011019D01*
X008629Y011099D02*
X009023Y011099D01*
X009023Y011179D02*
X008629Y011179D01*
D20*
X008576Y009657D03*
X012576Y009657D03*
D21*
X006926Y010567D02*
X006926Y011347D01*
X004576Y010547D02*
X004576Y009767D01*
X002226Y010567D02*
X002226Y011347D01*
X002226Y015367D02*
X002226Y016147D01*
X006926Y016147D02*
X006926Y015367D01*
D22*
X002176Y008157D03*
X002076Y007157D03*
X002176Y006157D03*
X002076Y005157D03*
X002176Y004157D03*
X002076Y003157D03*
D23*
X008936Y016487D02*
X008936Y017267D01*
X008936Y016487D02*
X008716Y016487D01*
X008716Y017267D01*
X008936Y017267D01*
X008936Y016567D02*
X008716Y016567D01*
X008716Y016647D02*
X008936Y016647D01*
X008936Y016727D02*
X008716Y016727D01*
X008716Y016807D02*
X008936Y016807D01*
X008936Y016887D02*
X008716Y016887D01*
X008716Y016967D02*
X008936Y016967D01*
X008936Y017047D02*
X008716Y017047D01*
X008716Y017127D02*
X008936Y017127D01*
X008936Y017207D02*
X008716Y017207D01*
X009436Y017267D02*
X009436Y016487D01*
X009216Y016487D01*
X009216Y017267D01*
X009436Y017267D01*
X009436Y016567D02*
X009216Y016567D01*
X009216Y016647D02*
X009436Y016647D01*
X009436Y016727D02*
X009216Y016727D01*
X009216Y016807D02*
X009436Y016807D01*
X009436Y016887D02*
X009216Y016887D01*
X009216Y016967D02*
X009436Y016967D01*
X009436Y017047D02*
X009216Y017047D01*
X009216Y017127D02*
X009436Y017127D01*
X009436Y017207D02*
X009216Y017207D01*
X009936Y017267D02*
X009936Y016487D01*
X009716Y016487D01*
X009716Y017267D01*
X009936Y017267D01*
X009936Y016567D02*
X009716Y016567D01*
X009716Y016647D02*
X009936Y016647D01*
X009936Y016727D02*
X009716Y016727D01*
X009716Y016807D02*
X009936Y016807D01*
X009936Y016887D02*
X009716Y016887D01*
X009716Y016967D02*
X009936Y016967D01*
X009936Y017047D02*
X009716Y017047D01*
X009716Y017127D02*
X009936Y017127D01*
X009936Y017207D02*
X009716Y017207D01*
X010436Y017267D02*
X010436Y016487D01*
X010216Y016487D01*
X010216Y017267D01*
X010436Y017267D01*
X010436Y016567D02*
X010216Y016567D01*
X010216Y016647D02*
X010436Y016647D01*
X010436Y016727D02*
X010216Y016727D01*
X010216Y016807D02*
X010436Y016807D01*
X010436Y016887D02*
X010216Y016887D01*
X010216Y016967D02*
X010436Y016967D01*
X010436Y017047D02*
X010216Y017047D01*
X010216Y017127D02*
X010436Y017127D01*
X010436Y017207D02*
X010216Y017207D01*
X010936Y017267D02*
X010936Y016487D01*
X010716Y016487D01*
X010716Y017267D01*
X010936Y017267D01*
X010936Y016567D02*
X010716Y016567D01*
X010716Y016647D02*
X010936Y016647D01*
X010936Y016727D02*
X010716Y016727D01*
X010716Y016807D02*
X010936Y016807D01*
X010936Y016887D02*
X010716Y016887D01*
X010716Y016967D02*
X010936Y016967D01*
X010936Y017047D02*
X010716Y017047D01*
X010716Y017127D02*
X010936Y017127D01*
X010936Y017207D02*
X010716Y017207D01*
X011436Y017267D02*
X011436Y016487D01*
X011216Y016487D01*
X011216Y017267D01*
X011436Y017267D01*
X011436Y016567D02*
X011216Y016567D01*
X011216Y016647D02*
X011436Y016647D01*
X011436Y016727D02*
X011216Y016727D01*
X011216Y016807D02*
X011436Y016807D01*
X011436Y016887D02*
X011216Y016887D01*
X011216Y016967D02*
X011436Y016967D01*
X011436Y017047D02*
X011216Y017047D01*
X011216Y017127D02*
X011436Y017127D01*
X011436Y017207D02*
X011216Y017207D01*
X011936Y017267D02*
X011936Y016487D01*
X011716Y016487D01*
X011716Y017267D01*
X011936Y017267D01*
X011936Y016567D02*
X011716Y016567D01*
X011716Y016647D02*
X011936Y016647D01*
X011936Y016727D02*
X011716Y016727D01*
X011716Y016807D02*
X011936Y016807D01*
X011936Y016887D02*
X011716Y016887D01*
X011716Y016967D02*
X011936Y016967D01*
X011936Y017047D02*
X011716Y017047D01*
X011716Y017127D02*
X011936Y017127D01*
X011936Y017207D02*
X011716Y017207D01*
X012436Y017267D02*
X012436Y016487D01*
X012216Y016487D01*
X012216Y017267D01*
X012436Y017267D01*
X012436Y016567D02*
X012216Y016567D01*
X012216Y016647D02*
X012436Y016647D01*
X012436Y016727D02*
X012216Y016727D01*
X012216Y016807D02*
X012436Y016807D01*
X012436Y016887D02*
X012216Y016887D01*
X012216Y016967D02*
X012436Y016967D01*
X012436Y017047D02*
X012216Y017047D01*
X012216Y017127D02*
X012436Y017127D01*
X012436Y017207D02*
X012216Y017207D01*
X012936Y017267D02*
X012936Y016487D01*
X012716Y016487D01*
X012716Y017267D01*
X012936Y017267D01*
X012936Y016567D02*
X012716Y016567D01*
X012716Y016647D02*
X012936Y016647D01*
X012936Y016727D02*
X012716Y016727D01*
X012716Y016807D02*
X012936Y016807D01*
X012936Y016887D02*
X012716Y016887D01*
X012716Y016967D02*
X012936Y016967D01*
X012936Y017047D02*
X012716Y017047D01*
X012716Y017127D02*
X012936Y017127D01*
X012936Y017207D02*
X012716Y017207D01*
X013436Y017267D02*
X013436Y016487D01*
X013216Y016487D01*
X013216Y017267D01*
X013436Y017267D01*
X013436Y016567D02*
X013216Y016567D01*
X013216Y016647D02*
X013436Y016647D01*
X013436Y016727D02*
X013216Y016727D01*
X013216Y016807D02*
X013436Y016807D01*
X013436Y016887D02*
X013216Y016887D01*
X013216Y016967D02*
X013436Y016967D01*
X013436Y017047D02*
X013216Y017047D01*
X013216Y017127D02*
X013436Y017127D01*
X013436Y017207D02*
X013216Y017207D01*
X013936Y017267D02*
X013936Y016487D01*
X013716Y016487D01*
X013716Y017267D01*
X013936Y017267D01*
X013936Y016567D02*
X013716Y016567D01*
X013716Y016647D02*
X013936Y016647D01*
X013936Y016727D02*
X013716Y016727D01*
X013716Y016807D02*
X013936Y016807D01*
X013936Y016887D02*
X013716Y016887D01*
X013716Y016967D02*
X013936Y016967D01*
X013936Y017047D02*
X013716Y017047D01*
X013716Y017127D02*
X013936Y017127D01*
X013936Y017207D02*
X013716Y017207D01*
X014436Y017267D02*
X014436Y016487D01*
X014216Y016487D01*
X014216Y017267D01*
X014436Y017267D01*
X014436Y016567D02*
X014216Y016567D01*
X014216Y016647D02*
X014436Y016647D01*
X014436Y016727D02*
X014216Y016727D01*
X014216Y016807D02*
X014436Y016807D01*
X014436Y016887D02*
X014216Y016887D01*
X014216Y016967D02*
X014436Y016967D01*
X014436Y017047D02*
X014216Y017047D01*
X014216Y017127D02*
X014436Y017127D01*
X014436Y017207D02*
X014216Y017207D01*
X014936Y017267D02*
X014936Y016487D01*
X014716Y016487D01*
X014716Y017267D01*
X014936Y017267D01*
X014936Y016567D02*
X014716Y016567D01*
X014716Y016647D02*
X014936Y016647D01*
X014936Y016727D02*
X014716Y016727D01*
X014716Y016807D02*
X014936Y016807D01*
X014936Y016887D02*
X014716Y016887D01*
X014716Y016967D02*
X014936Y016967D01*
X014936Y017047D02*
X014716Y017047D01*
X014716Y017127D02*
X014936Y017127D01*
X014936Y017207D02*
X014716Y017207D01*
X015436Y017267D02*
X015436Y016487D01*
X015216Y016487D01*
X015216Y017267D01*
X015436Y017267D01*
X015436Y016567D02*
X015216Y016567D01*
X015216Y016647D02*
X015436Y016647D01*
X015436Y016727D02*
X015216Y016727D01*
X015216Y016807D02*
X015436Y016807D01*
X015436Y016887D02*
X015216Y016887D01*
X015216Y016967D02*
X015436Y016967D01*
X015436Y017047D02*
X015216Y017047D01*
X015216Y017127D02*
X015436Y017127D01*
X015436Y017207D02*
X015216Y017207D01*
X015436Y020047D02*
X015436Y020827D01*
X015436Y020047D02*
X015216Y020047D01*
X015216Y020827D01*
X015436Y020827D01*
X015436Y020127D02*
X015216Y020127D01*
X015216Y020207D02*
X015436Y020207D01*
X015436Y020287D02*
X015216Y020287D01*
X015216Y020367D02*
X015436Y020367D01*
X015436Y020447D02*
X015216Y020447D01*
X015216Y020527D02*
X015436Y020527D01*
X015436Y020607D02*
X015216Y020607D01*
X015216Y020687D02*
X015436Y020687D01*
X015436Y020767D02*
X015216Y020767D01*
X014936Y020827D02*
X014936Y020047D01*
X014716Y020047D01*
X014716Y020827D01*
X014936Y020827D01*
X014936Y020127D02*
X014716Y020127D01*
X014716Y020207D02*
X014936Y020207D01*
X014936Y020287D02*
X014716Y020287D01*
X014716Y020367D02*
X014936Y020367D01*
X014936Y020447D02*
X014716Y020447D01*
X014716Y020527D02*
X014936Y020527D01*
X014936Y020607D02*
X014716Y020607D01*
X014716Y020687D02*
X014936Y020687D01*
X014936Y020767D02*
X014716Y020767D01*
X014436Y020827D02*
X014436Y020047D01*
X014216Y020047D01*
X014216Y020827D01*
X014436Y020827D01*
X014436Y020127D02*
X014216Y020127D01*
X014216Y020207D02*
X014436Y020207D01*
X014436Y020287D02*
X014216Y020287D01*
X014216Y020367D02*
X014436Y020367D01*
X014436Y020447D02*
X014216Y020447D01*
X014216Y020527D02*
X014436Y020527D01*
X014436Y020607D02*
X014216Y020607D01*
X014216Y020687D02*
X014436Y020687D01*
X014436Y020767D02*
X014216Y020767D01*
X013936Y020827D02*
X013936Y020047D01*
X013716Y020047D01*
X013716Y020827D01*
X013936Y020827D01*
X013936Y020127D02*
X013716Y020127D01*
X013716Y020207D02*
X013936Y020207D01*
X013936Y020287D02*
X013716Y020287D01*
X013716Y020367D02*
X013936Y020367D01*
X013936Y020447D02*
X013716Y020447D01*
X013716Y020527D02*
X013936Y020527D01*
X013936Y020607D02*
X013716Y020607D01*
X013716Y020687D02*
X013936Y020687D01*
X013936Y020767D02*
X013716Y020767D01*
X013436Y020827D02*
X013436Y020047D01*
X013216Y020047D01*
X013216Y020827D01*
X013436Y020827D01*
X013436Y020127D02*
X013216Y020127D01*
X013216Y020207D02*
X013436Y020207D01*
X013436Y020287D02*
X013216Y020287D01*
X013216Y020367D02*
X013436Y020367D01*
X013436Y020447D02*
X013216Y020447D01*
X013216Y020527D02*
X013436Y020527D01*
X013436Y020607D02*
X013216Y020607D01*
X013216Y020687D02*
X013436Y020687D01*
X013436Y020767D02*
X013216Y020767D01*
X012936Y020827D02*
X012936Y020047D01*
X012716Y020047D01*
X012716Y020827D01*
X012936Y020827D01*
X012936Y020127D02*
X012716Y020127D01*
X012716Y020207D02*
X012936Y020207D01*
X012936Y020287D02*
X012716Y020287D01*
X012716Y020367D02*
X012936Y020367D01*
X012936Y020447D02*
X012716Y020447D01*
X012716Y020527D02*
X012936Y020527D01*
X012936Y020607D02*
X012716Y020607D01*
X012716Y020687D02*
X012936Y020687D01*
X012936Y020767D02*
X012716Y020767D01*
X012436Y020827D02*
X012436Y020047D01*
X012216Y020047D01*
X012216Y020827D01*
X012436Y020827D01*
X012436Y020127D02*
X012216Y020127D01*
X012216Y020207D02*
X012436Y020207D01*
X012436Y020287D02*
X012216Y020287D01*
X012216Y020367D02*
X012436Y020367D01*
X012436Y020447D02*
X012216Y020447D01*
X012216Y020527D02*
X012436Y020527D01*
X012436Y020607D02*
X012216Y020607D01*
X012216Y020687D02*
X012436Y020687D01*
X012436Y020767D02*
X012216Y020767D01*
X011936Y020827D02*
X011936Y020047D01*
X011716Y020047D01*
X011716Y020827D01*
X011936Y020827D01*
X011936Y020127D02*
X011716Y020127D01*
X011716Y020207D02*
X011936Y020207D01*
X011936Y020287D02*
X011716Y020287D01*
X011716Y020367D02*
X011936Y020367D01*
X011936Y020447D02*
X011716Y020447D01*
X011716Y020527D02*
X011936Y020527D01*
X011936Y020607D02*
X011716Y020607D01*
X011716Y020687D02*
X011936Y020687D01*
X011936Y020767D02*
X011716Y020767D01*
X011436Y020827D02*
X011436Y020047D01*
X011216Y020047D01*
X011216Y020827D01*
X011436Y020827D01*
X011436Y020127D02*
X011216Y020127D01*
X011216Y020207D02*
X011436Y020207D01*
X011436Y020287D02*
X011216Y020287D01*
X011216Y020367D02*
X011436Y020367D01*
X011436Y020447D02*
X011216Y020447D01*
X011216Y020527D02*
X011436Y020527D01*
X011436Y020607D02*
X011216Y020607D01*
X011216Y020687D02*
X011436Y020687D01*
X011436Y020767D02*
X011216Y020767D01*
X010936Y020827D02*
X010936Y020047D01*
X010716Y020047D01*
X010716Y020827D01*
X010936Y020827D01*
X010936Y020127D02*
X010716Y020127D01*
X010716Y020207D02*
X010936Y020207D01*
X010936Y020287D02*
X010716Y020287D01*
X010716Y020367D02*
X010936Y020367D01*
X010936Y020447D02*
X010716Y020447D01*
X010716Y020527D02*
X010936Y020527D01*
X010936Y020607D02*
X010716Y020607D01*
X010716Y020687D02*
X010936Y020687D01*
X010936Y020767D02*
X010716Y020767D01*
X010436Y020827D02*
X010436Y020047D01*
X010216Y020047D01*
X010216Y020827D01*
X010436Y020827D01*
X010436Y020127D02*
X010216Y020127D01*
X010216Y020207D02*
X010436Y020207D01*
X010436Y020287D02*
X010216Y020287D01*
X010216Y020367D02*
X010436Y020367D01*
X010436Y020447D02*
X010216Y020447D01*
X010216Y020527D02*
X010436Y020527D01*
X010436Y020607D02*
X010216Y020607D01*
X010216Y020687D02*
X010436Y020687D01*
X010436Y020767D02*
X010216Y020767D01*
X009936Y020827D02*
X009936Y020047D01*
X009716Y020047D01*
X009716Y020827D01*
X009936Y020827D01*
X009936Y020127D02*
X009716Y020127D01*
X009716Y020207D02*
X009936Y020207D01*
X009936Y020287D02*
X009716Y020287D01*
X009716Y020367D02*
X009936Y020367D01*
X009936Y020447D02*
X009716Y020447D01*
X009716Y020527D02*
X009936Y020527D01*
X009936Y020607D02*
X009716Y020607D01*
X009716Y020687D02*
X009936Y020687D01*
X009936Y020767D02*
X009716Y020767D01*
X009436Y020827D02*
X009436Y020047D01*
X009216Y020047D01*
X009216Y020827D01*
X009436Y020827D01*
X009436Y020127D02*
X009216Y020127D01*
X009216Y020207D02*
X009436Y020207D01*
X009436Y020287D02*
X009216Y020287D01*
X009216Y020367D02*
X009436Y020367D01*
X009436Y020447D02*
X009216Y020447D01*
X009216Y020527D02*
X009436Y020527D01*
X009436Y020607D02*
X009216Y020607D01*
X009216Y020687D02*
X009436Y020687D01*
X009436Y020767D02*
X009216Y020767D01*
X008936Y020827D02*
X008936Y020047D01*
X008716Y020047D01*
X008716Y020827D01*
X008936Y020827D01*
X008936Y020127D02*
X008716Y020127D01*
X008716Y020207D02*
X008936Y020207D01*
X008936Y020287D02*
X008716Y020287D01*
X008716Y020367D02*
X008936Y020367D01*
X008936Y020447D02*
X008716Y020447D01*
X008716Y020527D02*
X008936Y020527D01*
X008936Y020607D02*
X008716Y020607D01*
X008716Y020687D02*
X008936Y020687D01*
X008936Y020767D02*
X008716Y020767D01*
D24*
X009115Y014753D02*
X009115Y014253D01*
X008537Y014253D01*
X008537Y014753D01*
X009115Y014753D01*
X009115Y014333D02*
X008537Y014333D01*
X008537Y014413D02*
X009115Y014413D01*
X009115Y014493D02*
X008537Y014493D01*
X008537Y014573D02*
X009115Y014573D01*
X009115Y014653D02*
X008537Y014653D01*
X008537Y014733D02*
X009115Y014733D01*
X008537Y013060D02*
X008537Y012560D01*
X008537Y013060D02*
X009115Y013060D01*
X009115Y012560D01*
X008537Y012560D01*
X008537Y012640D02*
X009115Y012640D01*
X009115Y012720D02*
X008537Y012720D01*
X008537Y012800D02*
X009115Y012800D01*
X009115Y012880D02*
X008537Y012880D01*
X008537Y012960D02*
X009115Y012960D01*
X009115Y013040D02*
X008537Y013040D01*
D25*
X002350Y021081D02*
X002350Y021551D01*
X002350Y021081D02*
X001802Y021081D01*
X001802Y021551D01*
X002350Y021551D01*
X002350Y021163D02*
X001802Y021163D01*
X001802Y021245D02*
X002350Y021245D01*
X002350Y021327D02*
X001802Y021327D01*
X001802Y021409D02*
X002350Y021409D01*
X002350Y021491D02*
X001802Y021491D01*
X002350Y022262D02*
X002350Y022732D01*
X002350Y022262D02*
X001802Y022262D01*
X001802Y022732D01*
X002350Y022732D01*
X002350Y022344D02*
X001802Y022344D01*
X001802Y022426D02*
X002350Y022426D01*
X002350Y022508D02*
X001802Y022508D01*
X001802Y022590D02*
X002350Y022590D01*
X002350Y022672D02*
X001802Y022672D01*
D26*
X004842Y023744D02*
X004842Y024569D01*
X006842Y024569D02*
X006842Y023744D01*
X008811Y023744D02*
X008811Y024569D01*
D27*
X002076Y001407D03*
X019076Y001407D03*
X019076Y017907D03*
X002076Y024407D03*
D28*
X011528Y024509D02*
X011528Y024805D01*
X012124Y024805D01*
X012124Y024509D01*
X011528Y024509D01*
X011528Y024592D02*
X012124Y024592D01*
X012124Y024675D02*
X011528Y024675D01*
X011528Y024758D02*
X012124Y024758D01*
X011528Y023305D02*
X011528Y023009D01*
X011528Y023305D02*
X012124Y023305D01*
X012124Y023009D01*
X011528Y023009D01*
X011528Y023092D02*
X012124Y023092D01*
X012124Y023175D02*
X011528Y023175D01*
X011528Y023258D02*
X012124Y023258D01*
X013528Y023305D02*
X013528Y023009D01*
X013528Y023305D02*
X014124Y023305D01*
X014124Y023009D01*
X013528Y023009D01*
X013528Y023092D02*
X014124Y023092D01*
X014124Y023175D02*
X013528Y023175D01*
X013528Y023258D02*
X014124Y023258D01*
X013528Y024509D02*
X013528Y024805D01*
X014124Y024805D01*
X014124Y024509D01*
X013528Y024509D01*
X013528Y024592D02*
X014124Y024592D01*
X014124Y024675D02*
X013528Y024675D01*
X013528Y024758D02*
X014124Y024758D01*
D29*
X013326Y022157D03*
X012326Y021407D03*
X011576Y021407D03*
X011326Y019407D03*
X011076Y018657D03*
X011826Y018157D03*
X012326Y016157D03*
X010576Y015407D03*
X011326Y013157D03*
X011826Y012907D03*
X009826Y012907D03*
X009726Y011557D03*
X010326Y009657D03*
X011326Y007907D03*
X012576Y007907D03*
X013826Y006157D03*
X014826Y005157D03*
X015326Y007907D03*
X014826Y009157D03*
X015326Y012157D03*
X016326Y012407D03*
X016826Y013657D03*
X016576Y014657D03*
X015576Y016157D03*
X016576Y017657D03*
X015826Y019157D03*
X014326Y017657D03*
X013826Y019157D03*
X009326Y018157D03*
X008326Y018657D03*
X007826Y019407D03*
X005576Y018657D03*
X003576Y018157D03*
X003576Y020657D03*
X003576Y021407D03*
X003076Y015157D03*
X005576Y015157D03*
X005576Y014407D03*
X007326Y012407D03*
X007826Y014407D03*
X008076Y008907D03*
X007576Y007907D03*
X006826Y007157D03*
X005326Y008157D03*
X003076Y005157D03*
X003576Y004157D03*
X002326Y008907D03*
X017576Y008657D03*
X019576Y008657D03*
X019076Y011907D03*
X019076Y013657D03*
X017576Y004157D03*
M02*
