G75*
G70*
%OFA0B0*%
%FSLAX24Y24*%
%IPPOS*%
%LPD*%
%AMOC8*
5,1,8,0,0,1.08239X$1,22.5*
%
%ADD10C,0.0740*%
%ADD11C,0.0650*%
%ADD12R,0.0650X0.0650*%
%ADD13R,0.0630X0.0551*%
%ADD14R,0.0630X0.0709*%
%ADD15C,0.1660*%
%ADD16C,0.1620*%
%ADD17R,0.0880X0.0480*%
%ADD18R,0.0866X0.1417*%
%ADD19R,0.0709X0.0630*%
%ADD20R,0.0394X0.0551*%
%ADD21C,0.0780*%
%ADD22C,0.0780*%
%ADD23C,0.0740*%
%ADD24R,0.0220X0.0780*%
%ADD25R,0.0579X0.0500*%
%ADD26R,0.0551X0.0472*%
%ADD27C,0.0825*%
%ADD28R,0.0600X0.0300*%
%ADD29C,0.0320*%
%ADD30C,0.0376*%
%ADD31C,0.0160*%
%ADD32C,0.0700*%
D10*
X018706Y004157D02*
X019446Y004157D01*
X019446Y005157D02*
X018706Y005157D01*
X018706Y006157D02*
X019446Y006157D01*
X019446Y007157D02*
X018706Y007157D01*
D11*
X015076Y013657D03*
X013076Y013657D03*
X018076Y015157D03*
D12*
X019076Y015157D03*
D13*
X013826Y010708D03*
X013826Y009606D03*
D14*
X011378Y010907D03*
X010275Y010907D03*
X010275Y012157D03*
X011378Y012157D03*
X011775Y015407D03*
X012878Y015407D03*
X014025Y015407D03*
X015128Y015407D03*
X018025Y012657D03*
X019128Y012657D03*
X003128Y019807D03*
X002025Y019807D03*
D15*
X018576Y020443D03*
D16*
X017096Y021694D03*
X018566Y023325D03*
D17*
X017796Y011317D03*
X017796Y010407D03*
X017796Y009497D03*
D18*
X015356Y010407D03*
D19*
X012576Y010856D03*
X012576Y011958D03*
X010576Y013356D03*
X010576Y014458D03*
X015326Y023356D03*
X015326Y024458D03*
X019076Y010708D03*
X019076Y009606D03*
D20*
X009200Y011840D03*
X008826Y010974D03*
X008452Y011840D03*
D21*
X008576Y009657D03*
X012576Y009657D03*
D22*
X006926Y010567D02*
X006926Y011347D01*
X004576Y010547D02*
X004576Y009767D01*
X002226Y010567D02*
X002226Y011347D01*
X002226Y015367D02*
X002226Y016147D01*
X006926Y016147D02*
X006926Y015367D01*
D23*
X002176Y008157D03*
X002076Y007157D03*
X002176Y006157D03*
X002076Y005157D03*
X002176Y004157D03*
X002076Y003157D03*
D24*
X008826Y016877D03*
X009326Y016877D03*
X009826Y016877D03*
X010326Y016877D03*
X010826Y016877D03*
X011326Y016877D03*
X011826Y016877D03*
X012326Y016877D03*
X012826Y016877D03*
X013326Y016877D03*
X013826Y016877D03*
X014326Y016877D03*
X014826Y016877D03*
X015326Y016877D03*
X015326Y020437D03*
X014826Y020437D03*
X014326Y020437D03*
X013826Y020437D03*
X013326Y020437D03*
X012826Y020437D03*
X012326Y020437D03*
X011826Y020437D03*
X011326Y020437D03*
X010826Y020437D03*
X010326Y020437D03*
X009826Y020437D03*
X009326Y020437D03*
X008826Y020437D03*
D25*
X008826Y014503D03*
X008826Y012810D03*
D26*
X002076Y021316D03*
X002076Y022497D03*
D27*
X004842Y023744D02*
X004842Y024569D01*
X006842Y024569D02*
X006842Y023744D01*
X008811Y023744D02*
X008811Y024569D01*
D28*
X011826Y024657D03*
X011826Y023157D03*
X013826Y023157D03*
X013826Y024657D03*
D29*
X017076Y022907D02*
X017076Y021713D01*
X017096Y021694D01*
X017096Y016138D01*
X018076Y015157D01*
X019076Y015157D02*
X019076Y013657D01*
X019076Y015157D02*
X019076Y015907D01*
X017576Y017407D01*
X017576Y019157D01*
X018576Y020157D01*
X018576Y020443D01*
X017076Y022907D02*
X017495Y023325D01*
X018566Y023325D01*
X016826Y013657D02*
X016826Y011657D01*
X017166Y011317D01*
X017796Y011317D01*
D30*
X019076Y011907D03*
X019076Y013657D03*
X016826Y013657D03*
X016576Y014657D03*
X015576Y016157D03*
X016576Y017657D03*
X015826Y019157D03*
X014326Y017657D03*
X013826Y019157D03*
X011826Y018157D03*
X011076Y018657D03*
X011326Y019407D03*
X011576Y021407D03*
X012326Y021407D03*
X013326Y022157D03*
X009326Y018157D03*
X008326Y018657D03*
X007826Y019407D03*
X005576Y018657D03*
X003576Y018157D03*
X003576Y020657D03*
X003576Y021407D03*
X003076Y015157D03*
X005576Y015157D03*
X005576Y014407D03*
X007326Y012407D03*
X007826Y014407D03*
X009826Y012907D03*
X009726Y011557D03*
X010326Y009657D03*
X011326Y007907D03*
X012576Y007907D03*
X013826Y006157D03*
X014826Y005157D03*
X015326Y007907D03*
X014826Y009157D03*
X015326Y012157D03*
X016326Y012407D03*
X017576Y008657D03*
X019576Y008657D03*
X017576Y004157D03*
X011826Y012907D03*
X011326Y013157D03*
X010576Y015407D03*
X012326Y016157D03*
X008076Y008907D03*
X007576Y007907D03*
X006826Y007157D03*
X005326Y008157D03*
X003076Y005157D03*
X003576Y004157D03*
X002326Y008907D03*
D31*
X001066Y001495D02*
X001066Y024319D01*
X001113Y024056D01*
X001291Y023748D01*
X001291Y023748D01*
X001564Y023519D01*
X001898Y023397D01*
X001898Y023397D01*
X002021Y023397D01*
X002021Y023397D01*
X002048Y023397D01*
X002076Y023397D01*
X002132Y023397D01*
X002254Y023397D01*
X002255Y023397D01*
X002589Y023519D01*
X002589Y023519D01*
X002862Y023748D01*
X003040Y024056D01*
X003040Y024056D01*
X003102Y024407D01*
X003040Y024758D01*
X002862Y025066D01*
X002589Y025295D01*
X002255Y025417D01*
X002254Y025417D01*
X002132Y025417D01*
X002076Y025417D01*
X002075Y025417D01*
X002021Y025417D01*
X002021Y025417D01*
X001898Y025417D01*
X001564Y025295D01*
X001564Y025295D01*
X001291Y025066D01*
X001291Y025066D01*
X001113Y024758D01*
X001113Y024758D01*
X001066Y024495D01*
X001066Y025539D01*
X020271Y025539D01*
X020271Y000428D01*
X019341Y000428D01*
X019589Y000519D01*
X019589Y000519D01*
X019862Y000748D01*
X020040Y001056D01*
X020040Y001056D01*
X020102Y001407D01*
X020040Y001758D01*
X019862Y002066D01*
X019589Y002295D01*
X019255Y002417D01*
X019254Y002417D01*
X019132Y002417D01*
X019076Y002417D01*
X019021Y002417D01*
X019021Y002417D01*
X018898Y002417D01*
X018564Y002295D01*
X018564Y002295D01*
X018291Y002066D01*
X018113Y001758D01*
X018051Y001407D01*
X018113Y001056D01*
X018291Y000748D01*
X018291Y000748D01*
X018564Y000519D01*
X018812Y000428D01*
X002341Y000428D01*
X002589Y000519D01*
X002589Y000519D01*
X002862Y000748D01*
X003040Y001056D01*
X003102Y001407D01*
X003040Y001758D01*
X002862Y002066D01*
X002589Y002295D01*
X002255Y002417D01*
X002254Y002417D01*
X002132Y002417D01*
X002076Y002417D01*
X002074Y002417D01*
X002021Y002417D01*
X002021Y002417D01*
X001898Y002417D01*
X001564Y002295D01*
X001564Y002295D01*
X001291Y002066D01*
X001291Y002066D01*
X001113Y001758D01*
X001113Y001758D01*
X001066Y001495D01*
X001066Y001523D02*
X001071Y001523D01*
X001066Y001681D02*
X001099Y001681D01*
X001066Y001840D02*
X001160Y001840D01*
X001252Y001998D02*
X001066Y001998D01*
X001066Y002157D02*
X001399Y002157D01*
X001291Y002066D02*
X001291Y002066D01*
X001066Y002315D02*
X001620Y002315D01*
X001748Y002632D02*
X001066Y002632D01*
X001066Y002474D02*
X020271Y002474D01*
X020271Y002632D02*
X002404Y002632D01*
X002422Y002640D02*
X002594Y002811D01*
X002686Y003035D01*
X002686Y003278D01*
X002594Y003502D01*
X002475Y003620D01*
X002522Y003640D01*
X002694Y003811D01*
X002786Y004035D01*
X002786Y004278D01*
X002694Y004502D01*
X002522Y004674D01*
X002475Y004693D01*
X002594Y004811D01*
X002675Y005008D01*
X002714Y004914D01*
X002834Y004794D01*
X002991Y004729D01*
X003162Y004729D01*
X003256Y004768D01*
X003256Y004442D01*
X003214Y004399D01*
X003148Y004242D01*
X003148Y004072D01*
X003214Y003914D01*
X003334Y003794D01*
X003491Y003729D01*
X003662Y003729D01*
X003819Y003794D01*
X003939Y003914D01*
X004005Y004072D01*
X004005Y004242D01*
X003939Y004399D01*
X003896Y004442D01*
X003896Y017871D01*
X003939Y017914D01*
X003986Y018028D01*
X003986Y010769D01*
X003946Y010672D01*
X003946Y009641D01*
X004042Y009410D01*
X004220Y009233D01*
X004451Y009137D01*
X004702Y009137D01*
X004933Y009233D01*
X005111Y009410D01*
X005206Y009641D01*
X005206Y010672D01*
X005166Y010769D01*
X005166Y014278D01*
X005214Y014164D01*
X005256Y014121D01*
X005256Y008585D01*
X005241Y008585D01*
X005084Y008520D01*
X004964Y008399D01*
X004898Y008242D01*
X004898Y008072D01*
X004964Y007914D01*
X005084Y007794D01*
X005241Y007729D01*
X005412Y007729D01*
X005569Y007794D01*
X005689Y007914D01*
X005755Y008072D01*
X005755Y008132D01*
X005758Y008136D01*
X005848Y008226D01*
X005896Y008343D01*
X005896Y014121D01*
X005939Y014164D01*
X006005Y014322D01*
X006005Y014492D01*
X005939Y014649D01*
X005819Y014770D01*
X005790Y014782D01*
X005819Y014794D01*
X005939Y014914D01*
X006005Y015072D01*
X006005Y015242D01*
X005939Y015399D01*
X005896Y015442D01*
X005896Y018371D01*
X005939Y018414D01*
X006005Y018572D01*
X006005Y018742D01*
X005939Y018899D01*
X005819Y019020D01*
X005662Y019085D01*
X005491Y019085D01*
X005334Y019020D01*
X005214Y018899D01*
X005166Y018786D01*
X005166Y022412D01*
X005176Y022422D01*
X005342Y022588D01*
X005432Y022805D01*
X005432Y023464D01*
X005495Y023614D01*
X005495Y024699D01*
X005395Y024939D01*
X005212Y025123D01*
X004972Y025222D01*
X004712Y025222D01*
X004473Y025123D01*
X004289Y024939D01*
X004190Y024699D01*
X004190Y023614D01*
X004252Y023464D01*
X004252Y023167D01*
X004076Y022991D01*
X003986Y022774D01*
X003986Y022539D01*
X003986Y020786D01*
X003939Y020899D01*
X003819Y021020D01*
X003662Y021085D01*
X003491Y021085D01*
X003334Y021020D01*
X003214Y020899D01*
X003148Y020742D01*
X003148Y020681D01*
X002946Y020479D01*
X002868Y020401D01*
X002765Y020401D01*
X002677Y020365D01*
X002609Y020297D01*
X002576Y020218D01*
X002544Y020297D01*
X002476Y020365D01*
X002396Y020398D01*
X002396Y020840D01*
X002400Y020840D01*
X002488Y020877D01*
X002555Y020944D01*
X002592Y021032D01*
X002592Y021600D01*
X002555Y021688D01*
X002488Y021756D01*
X002400Y021792D01*
X001753Y021792D01*
X001665Y021756D01*
X001597Y021688D01*
X001561Y021600D01*
X001561Y021032D01*
X001597Y020944D01*
X001665Y020877D01*
X001753Y020840D01*
X001756Y020840D01*
X001756Y020401D01*
X001663Y020401D01*
X001574Y020365D01*
X001507Y020297D01*
X001470Y020209D01*
X001470Y019405D01*
X001507Y019317D01*
X001574Y019249D01*
X001663Y019213D01*
X002388Y019213D01*
X002476Y019249D01*
X002544Y019317D01*
X002576Y019396D01*
X002609Y019317D01*
X002677Y019249D01*
X002765Y019213D01*
X003490Y019213D01*
X003579Y019249D01*
X003646Y019317D01*
X003683Y019405D01*
X003683Y020209D01*
X003672Y020233D01*
X003819Y020294D01*
X003939Y020414D01*
X003986Y020528D01*
X003986Y018286D01*
X003939Y018399D01*
X003819Y018520D01*
X003662Y018585D01*
X003491Y018585D01*
X003334Y018520D01*
X003214Y018399D01*
X003148Y018242D01*
X003148Y018072D01*
X003214Y017914D01*
X003256Y017871D01*
X003256Y015546D01*
X003162Y015585D01*
X002991Y015585D01*
X002856Y015529D01*
X002856Y016272D01*
X002761Y016504D01*
X002583Y016681D01*
X002352Y016777D01*
X002101Y016777D01*
X001870Y016681D01*
X001692Y016504D01*
X001596Y016272D01*
X001596Y015241D01*
X001692Y015010D01*
X001870Y014833D01*
X002101Y014737D01*
X002352Y014737D01*
X002583Y014833D01*
X002699Y014949D01*
X002714Y014914D01*
X002756Y014871D01*
X002756Y011708D01*
X002583Y011881D01*
X002352Y011977D01*
X002101Y011977D01*
X001870Y011881D01*
X001692Y011704D01*
X001596Y011472D01*
X001596Y010441D01*
X001692Y010210D01*
X001870Y010033D01*
X002006Y009976D01*
X002006Y009192D01*
X001964Y009149D01*
X001898Y008992D01*
X001898Y008822D01*
X001941Y008719D01*
X001831Y008674D01*
X001659Y008502D01*
X001566Y008278D01*
X001566Y008035D01*
X001659Y007811D01*
X001777Y007693D01*
X001731Y007674D01*
X001559Y007502D01*
X001466Y007278D01*
X001466Y007035D01*
X001559Y006811D01*
X001731Y006640D01*
X001842Y006594D01*
X001818Y006576D01*
X001757Y006515D01*
X001706Y006445D01*
X001667Y006368D01*
X001640Y006286D01*
X001626Y006200D01*
X001626Y006177D01*
X002156Y006177D01*
X002156Y006137D01*
X001626Y006137D01*
X001626Y006114D01*
X001640Y006028D01*
X001667Y005946D01*
X001706Y005869D01*
X001757Y005799D01*
X001818Y005737D01*
X001842Y005720D01*
X001731Y005674D01*
X001559Y005502D01*
X001466Y005278D01*
X001466Y005035D01*
X001559Y004811D01*
X001731Y004640D01*
X001777Y004620D01*
X001659Y004502D01*
X001566Y004278D01*
X001566Y004035D01*
X001659Y003811D01*
X001777Y003693D01*
X001731Y003674D01*
X001559Y003502D01*
X001466Y003278D01*
X001466Y003035D01*
X001559Y002811D01*
X001731Y002640D01*
X001955Y002547D01*
X002198Y002547D01*
X002422Y002640D01*
X002573Y002791D02*
X020271Y002791D01*
X020271Y002950D02*
X002651Y002950D01*
X002686Y003108D02*
X020271Y003108D01*
X020271Y003267D02*
X002686Y003267D01*
X002626Y003425D02*
X020271Y003425D01*
X020271Y003584D02*
X019657Y003584D01*
X019568Y003547D02*
X019792Y003640D01*
X019964Y003811D01*
X020056Y004035D01*
X020056Y004278D01*
X019964Y004502D01*
X019809Y004657D01*
X019964Y004811D01*
X020056Y005035D01*
X020056Y005278D01*
X019964Y005502D01*
X019792Y005674D01*
X019744Y005694D01*
X019805Y005737D01*
X019866Y005799D01*
X019917Y005869D01*
X019956Y005946D01*
X019983Y006028D01*
X019996Y006114D01*
X019996Y006127D01*
X019107Y006127D01*
X019107Y006187D01*
X019996Y006187D01*
X019996Y006200D01*
X019983Y006286D01*
X019956Y006368D01*
X019917Y006445D01*
X019866Y006515D01*
X019805Y006576D01*
X019744Y006620D01*
X019792Y006640D01*
X019964Y006811D01*
X020056Y007035D01*
X020056Y007278D01*
X019964Y007502D01*
X019792Y007674D01*
X019568Y007767D01*
X018585Y007767D01*
X018361Y007674D01*
X018189Y007502D01*
X018096Y007278D01*
X018096Y007035D01*
X018189Y006811D01*
X018361Y006640D01*
X018408Y006620D01*
X018348Y006576D01*
X018287Y006515D01*
X018236Y006445D01*
X018197Y006368D01*
X018170Y006286D01*
X018156Y006200D01*
X018156Y006187D01*
X019046Y006187D01*
X019046Y006127D01*
X018156Y006127D01*
X018156Y006114D01*
X018170Y006028D01*
X018197Y005946D01*
X018236Y005869D01*
X018287Y005799D01*
X018348Y005737D01*
X018408Y005694D01*
X018361Y005674D01*
X018189Y005502D01*
X018096Y005278D01*
X018096Y005035D01*
X018189Y004811D01*
X018344Y004657D01*
X018189Y004502D01*
X018096Y004278D01*
X018096Y004035D01*
X018189Y003811D01*
X018361Y003640D01*
X018585Y003547D01*
X019568Y003547D01*
X019895Y003742D02*
X020271Y003742D01*
X020271Y003901D02*
X020001Y003901D01*
X020056Y004059D02*
X020271Y004059D01*
X020271Y004218D02*
X020056Y004218D01*
X020016Y004376D02*
X020271Y004376D01*
X020271Y004535D02*
X019931Y004535D01*
X019846Y004694D02*
X020271Y004694D01*
X020271Y004852D02*
X019980Y004852D01*
X020046Y005011D02*
X020271Y005011D01*
X020271Y005169D02*
X020056Y005169D01*
X020036Y005328D02*
X020271Y005328D01*
X020271Y005486D02*
X019970Y005486D01*
X019821Y005645D02*
X020271Y005645D01*
X020271Y005803D02*
X019869Y005803D01*
X019961Y005962D02*
X020271Y005962D01*
X020271Y006120D02*
X019996Y006120D01*
X019984Y006279D02*
X020271Y006279D01*
X020271Y006438D02*
X019921Y006438D01*
X019778Y006596D02*
X020271Y006596D01*
X020271Y006755D02*
X019907Y006755D01*
X020006Y006913D02*
X020271Y006913D01*
X020271Y007072D02*
X020056Y007072D01*
X020056Y007230D02*
X020271Y007230D01*
X020271Y007389D02*
X020011Y007389D01*
X019919Y007547D02*
X020271Y007547D01*
X020271Y007706D02*
X019715Y007706D01*
X019662Y008229D02*
X019819Y008294D01*
X019939Y008414D01*
X020005Y008572D01*
X020005Y008742D01*
X019939Y008899D01*
X019819Y009020D01*
X019662Y009085D01*
X019561Y009085D01*
X019567Y009087D01*
X019634Y009155D01*
X019671Y009243D01*
X019671Y009968D01*
X019634Y010057D01*
X019567Y010124D01*
X019488Y010157D01*
X019567Y010190D01*
X019634Y010257D01*
X019671Y010345D01*
X019671Y011071D01*
X019634Y011159D01*
X019567Y011226D01*
X019479Y011263D01*
X018674Y011263D01*
X018586Y011226D01*
X018519Y011159D01*
X018482Y011071D01*
X018482Y011028D01*
X018476Y011028D01*
X018476Y011029D01*
X018476Y011605D01*
X018440Y011693D01*
X018372Y011760D01*
X018284Y011797D01*
X017309Y011797D01*
X017269Y011780D01*
X017226Y011823D01*
X017226Y013504D01*
X017255Y013572D01*
X018648Y013572D01*
X018714Y013414D01*
X018834Y013294D01*
X018937Y013251D01*
X018765Y013251D01*
X018677Y013215D01*
X018609Y013147D01*
X018573Y013059D01*
X018573Y012255D01*
X018609Y012167D01*
X018677Y012099D01*
X018690Y012093D01*
X018648Y011992D01*
X018648Y011822D01*
X018714Y011664D01*
X018834Y011544D01*
X018991Y011479D01*
X019162Y011479D01*
X019319Y011544D01*
X019439Y011664D01*
X019505Y011822D01*
X019505Y011992D01*
X019475Y012063D01*
X019490Y012063D01*
X019579Y012099D01*
X019646Y012167D01*
X019683Y012255D01*
X019683Y013059D01*
X019646Y013147D01*
X019579Y013215D01*
X019490Y013251D01*
X019216Y013251D01*
X019319Y013294D01*
X019439Y013414D01*
X019505Y013572D01*
X020271Y013572D01*
X020271Y013731D02*
X019505Y013731D01*
X019505Y013742D02*
X019476Y013810D01*
X019476Y014603D01*
X019537Y014628D01*
X019605Y014696D01*
X019641Y014784D01*
X019641Y015530D01*
X019605Y015618D01*
X019537Y015685D01*
X019476Y015711D01*
X019476Y015827D01*
X019476Y015986D01*
X019416Y016133D01*
X018356Y017193D01*
X018564Y017019D01*
X018898Y016897D01*
X018898Y016897D01*
X019021Y016897D01*
X019021Y016897D01*
X019049Y016897D01*
X019076Y016897D01*
X019132Y016897D01*
X019254Y016897D01*
X019255Y016897D01*
X019589Y017019D01*
X019589Y017019D01*
X019862Y017248D01*
X020040Y017556D01*
X020040Y017556D01*
X020102Y017907D01*
X020040Y018258D01*
X019862Y018566D01*
X019589Y018795D01*
X019255Y018917D01*
X019254Y018917D01*
X019132Y018917D01*
X019076Y018917D01*
X019021Y018917D01*
X019021Y018917D01*
X018898Y018917D01*
X018564Y018795D01*
X018564Y018795D01*
X018291Y018566D01*
X018291Y018566D01*
X018113Y018258D01*
X018113Y018258D01*
X018051Y017907D01*
X018051Y017907D01*
X018113Y017556D01*
X018277Y017272D01*
X017976Y017573D01*
X017976Y018991D01*
X018375Y019390D01*
X018436Y019373D01*
X018717Y019373D01*
X018989Y019446D01*
X019233Y019587D01*
X019433Y019786D01*
X019573Y020030D01*
X019646Y020302D01*
X019646Y020584D01*
X019573Y020856D01*
X019433Y021100D01*
X019233Y021299D01*
X018989Y021440D01*
X018717Y021513D01*
X018436Y021513D01*
X018163Y021440D01*
X018028Y021362D01*
X018048Y021420D01*
X018073Y021528D01*
X018083Y021614D01*
X017176Y021614D01*
X017176Y021774D01*
X018083Y021774D01*
X018073Y021860D01*
X018048Y021969D01*
X018012Y022074D01*
X017963Y022174D01*
X017904Y022268D01*
X017835Y022355D01*
X017756Y022434D01*
X017669Y022503D01*
X017575Y022562D01*
X017475Y022610D01*
X017370Y022647D01*
X017262Y022672D01*
X017175Y022681D01*
X017175Y021774D01*
X017016Y021774D01*
X017016Y022681D01*
X016929Y022672D01*
X016821Y022647D01*
X016716Y022610D01*
X016616Y022562D01*
X016522Y022503D01*
X016435Y022434D01*
X016356Y022355D01*
X016287Y022268D01*
X016228Y022174D01*
X016179Y022074D01*
X016143Y021969D01*
X016118Y021860D01*
X016108Y021774D01*
X017015Y021774D01*
X017015Y021614D01*
X016108Y021614D01*
X016118Y021528D01*
X016143Y021420D01*
X016179Y021315D01*
X016228Y021215D01*
X016287Y021120D01*
X016356Y021034D01*
X016435Y020955D01*
X016522Y020886D01*
X016616Y020826D01*
X016716Y020778D01*
X016821Y020741D01*
X016929Y020717D01*
X017016Y020707D01*
X017016Y021614D01*
X017175Y021614D01*
X017175Y020707D01*
X017262Y020717D01*
X017370Y020741D01*
X017475Y020778D01*
X017571Y020824D01*
X017507Y020584D01*
X017507Y020302D01*
X017579Y020030D01*
X017691Y019837D01*
X017237Y019383D01*
X017176Y019236D01*
X017176Y019077D01*
X017176Y017327D01*
X017237Y017180D01*
X017350Y017068D01*
X018676Y015741D01*
X018676Y015711D01*
X018615Y015685D01*
X018548Y015618D01*
X018511Y015530D01*
X018511Y015415D01*
X018508Y015421D01*
X018462Y015486D01*
X018405Y015542D01*
X018341Y015589D01*
X018270Y015625D01*
X018195Y015649D01*
X018116Y015662D01*
X018077Y015662D01*
X018077Y015157D01*
X018076Y015157D01*
X018076Y015157D01*
X017571Y015157D01*
X017571Y015197D01*
X017584Y015275D01*
X017608Y015351D01*
X017645Y015421D01*
X017691Y015486D01*
X017747Y015542D01*
X017812Y015589D01*
X017883Y015625D01*
X017958Y015649D01*
X018037Y015662D01*
X018076Y015662D01*
X018076Y015157D01*
X017571Y015157D01*
X016896Y015157D01*
X016896Y014999D02*
X017597Y014999D01*
X017608Y014963D02*
X017645Y014892D01*
X017691Y014828D01*
X017747Y014772D01*
X017812Y014725D01*
X017883Y014689D01*
X017958Y014664D01*
X018037Y014652D01*
X018076Y014652D01*
X018076Y015156D01*
X018077Y015156D01*
X018077Y014652D01*
X018116Y014652D01*
X018195Y014664D01*
X018270Y014689D01*
X018341Y014725D01*
X018405Y014772D01*
X018462Y014828D01*
X018508Y014892D01*
X018511Y014898D01*
X018511Y014784D01*
X018548Y014696D01*
X018615Y014628D01*
X018676Y014603D01*
X018676Y013810D01*
X018648Y013742D01*
X018648Y013572D01*
X018648Y013731D02*
X017255Y013731D01*
X017255Y013742D02*
X017189Y013899D01*
X017069Y014020D01*
X016912Y014085D01*
X016741Y014085D01*
X016584Y014020D01*
X016464Y013899D01*
X016398Y013742D01*
X016398Y013572D01*
X016396Y013572D01*
X016398Y013572D02*
X016426Y013504D01*
X016426Y012829D01*
X016412Y012835D01*
X016396Y012835D01*
X016396Y014268D01*
X016491Y014229D01*
X016662Y014229D01*
X016819Y014294D01*
X016939Y014414D01*
X017005Y014572D01*
X017005Y014742D01*
X016939Y014899D01*
X016896Y014942D01*
X016896Y017371D01*
X016939Y017414D01*
X017005Y017572D01*
X017005Y017742D01*
X016939Y017899D01*
X016819Y018020D01*
X016662Y018085D01*
X016491Y018085D01*
X016396Y018046D01*
X016396Y018093D01*
X016396Y018221D01*
X016348Y018338D01*
X016146Y018539D01*
X016146Y018871D01*
X016189Y018914D01*
X016255Y019072D01*
X016255Y019242D01*
X016189Y019399D01*
X016069Y019520D01*
X015912Y019585D01*
X015741Y019585D01*
X015584Y019520D01*
X015464Y019399D01*
X015398Y019242D01*
X015398Y019072D01*
X015464Y018914D01*
X015506Y018871D01*
X015506Y018343D01*
X015555Y018226D01*
X015645Y018136D01*
X015756Y018024D01*
X015756Y012593D01*
X015805Y012476D01*
X015895Y012386D01*
X015898Y012382D01*
X015898Y012322D01*
X015964Y012164D01*
X016084Y012044D01*
X016241Y011979D01*
X016412Y011979D01*
X016426Y011985D01*
X016426Y011736D01*
X016426Y011577D01*
X016487Y011430D01*
X016827Y011090D01*
X016940Y010978D01*
X017087Y010917D01*
X017177Y010917D01*
X017220Y010873D01*
X017248Y010862D01*
X017220Y010850D01*
X017153Y010783D01*
X017130Y010727D01*
X016029Y010727D01*
X016029Y011163D01*
X015993Y011251D01*
X015925Y011319D01*
X015837Y011355D01*
X015676Y011355D01*
X015676Y011901D01*
X015689Y011914D01*
X015755Y012072D01*
X015755Y012242D01*
X015689Y012399D01*
X015569Y012520D01*
X015412Y012585D01*
X015241Y012585D01*
X015084Y012520D01*
X014964Y012399D01*
X014898Y012242D01*
X014898Y012072D01*
X014964Y011914D01*
X015036Y011841D01*
X015036Y011355D01*
X014876Y011355D01*
X014787Y011319D01*
X014720Y011251D01*
X014683Y011163D01*
X014683Y011028D01*
X014381Y011028D01*
X014381Y011031D01*
X014345Y011120D01*
X014277Y011187D01*
X014189Y011224D01*
X013464Y011224D01*
X013376Y011187D01*
X013308Y011120D01*
X013271Y011031D01*
X013271Y010385D01*
X013308Y010296D01*
X013376Y010229D01*
X013464Y010192D01*
X014189Y010192D01*
X014277Y010229D01*
X014345Y010296D01*
X014381Y010385D01*
X014381Y010388D01*
X014683Y010388D01*
X014683Y009650D01*
X014715Y009574D01*
X014584Y009520D01*
X014464Y009399D01*
X014398Y009242D01*
X014398Y009072D01*
X014464Y008914D01*
X014506Y008871D01*
X014506Y005442D01*
X014464Y005399D01*
X014398Y005242D01*
X014398Y005072D01*
X014464Y004914D01*
X014584Y004794D01*
X014741Y004729D01*
X014912Y004729D01*
X015069Y004794D01*
X015189Y004914D01*
X015255Y005072D01*
X015255Y005242D01*
X015189Y005399D01*
X015146Y005442D01*
X015146Y007518D01*
X015241Y007479D01*
X015412Y007479D01*
X015569Y007544D01*
X015689Y007664D01*
X015755Y007822D01*
X015755Y007992D01*
X015689Y008149D01*
X015676Y008162D01*
X015676Y009458D01*
X015837Y009458D01*
X015925Y009495D01*
X015993Y009562D01*
X016029Y009650D01*
X016029Y010087D01*
X017130Y010087D01*
X017153Y010031D01*
X017220Y009963D01*
X017248Y009952D01*
X017220Y009940D01*
X017153Y009873D01*
X017116Y009785D01*
X017116Y009209D01*
X017153Y009121D01*
X017220Y009053D01*
X017309Y009017D01*
X017331Y009017D01*
X017214Y008899D01*
X017148Y008742D01*
X017148Y008572D01*
X017214Y008414D01*
X017256Y008371D01*
X017256Y004442D01*
X017214Y004399D01*
X017148Y004242D01*
X017148Y004072D01*
X017214Y003914D01*
X017334Y003794D01*
X017491Y003729D01*
X017662Y003729D01*
X017819Y003794D01*
X017939Y003914D01*
X018005Y004072D01*
X018005Y004242D01*
X017939Y004399D01*
X017896Y004442D01*
X017896Y008371D01*
X017939Y008414D01*
X018005Y008572D01*
X018005Y008742D01*
X017939Y008899D01*
X017822Y009017D01*
X018284Y009017D01*
X018372Y009053D01*
X018440Y009121D01*
X018463Y009177D01*
X018510Y009177D01*
X018519Y009155D01*
X018586Y009087D01*
X018674Y009051D01*
X018756Y009051D01*
X018756Y008843D01*
X018805Y008726D01*
X018895Y008636D01*
X019145Y008386D01*
X019263Y008337D01*
X019291Y008337D01*
X019334Y008294D01*
X019491Y008229D01*
X019662Y008229D01*
X019865Y008340D02*
X020271Y008340D01*
X020271Y008181D02*
X017896Y008181D01*
X017896Y008023D02*
X020271Y008023D01*
X020271Y007864D02*
X017896Y007864D01*
X017896Y007706D02*
X018438Y007706D01*
X018234Y007547D02*
X017896Y007547D01*
X017896Y007389D02*
X018142Y007389D01*
X018096Y007230D02*
X017896Y007230D01*
X017896Y007072D02*
X018096Y007072D01*
X018147Y006913D02*
X017896Y006913D01*
X017896Y006755D02*
X018246Y006755D01*
X018375Y006596D02*
X017896Y006596D01*
X017896Y006438D02*
X018232Y006438D01*
X018169Y006279D02*
X017896Y006279D01*
X017896Y006120D02*
X018156Y006120D01*
X018191Y005962D02*
X017896Y005962D01*
X017896Y005803D02*
X018283Y005803D01*
X018332Y005645D02*
X017896Y005645D01*
X017896Y005486D02*
X018183Y005486D01*
X018117Y005328D02*
X017896Y005328D01*
X017896Y005169D02*
X018096Y005169D01*
X018107Y005011D02*
X017896Y005011D01*
X017896Y004852D02*
X018172Y004852D01*
X018307Y004694D02*
X017896Y004694D01*
X017896Y004535D02*
X018222Y004535D01*
X018137Y004376D02*
X017949Y004376D01*
X018005Y004218D02*
X018096Y004218D01*
X018096Y004059D02*
X017999Y004059D01*
X017926Y003901D02*
X018152Y003901D01*
X018258Y003742D02*
X017694Y003742D01*
X017459Y003742D02*
X003694Y003742D01*
X003459Y003742D02*
X002625Y003742D01*
X002731Y003901D02*
X003227Y003901D01*
X003153Y004059D02*
X002786Y004059D01*
X002786Y004218D02*
X003148Y004218D01*
X003204Y004376D02*
X002746Y004376D01*
X002661Y004535D02*
X003256Y004535D01*
X003256Y004694D02*
X002476Y004694D01*
X002610Y004852D02*
X002776Y004852D01*
X003076Y005157D02*
X003076Y015157D01*
X002756Y014840D02*
X002591Y014840D01*
X002756Y014682D02*
X001066Y014682D01*
X001066Y014840D02*
X001862Y014840D01*
X001703Y014999D02*
X001066Y014999D01*
X001066Y015157D02*
X001631Y015157D01*
X001596Y015316D02*
X001066Y015316D01*
X001066Y015474D02*
X001596Y015474D01*
X001596Y015633D02*
X001066Y015633D01*
X001066Y015792D02*
X001596Y015792D01*
X001596Y015950D02*
X001066Y015950D01*
X001066Y016109D02*
X001596Y016109D01*
X001596Y016267D02*
X001066Y016267D01*
X001066Y016426D02*
X001660Y016426D01*
X001773Y016584D02*
X001066Y016584D01*
X001066Y016743D02*
X002019Y016743D01*
X002434Y016743D02*
X003256Y016743D01*
X003256Y016901D02*
X001066Y016901D01*
X001066Y017060D02*
X003256Y017060D01*
X003256Y017218D02*
X001066Y017218D01*
X001066Y017377D02*
X003256Y017377D01*
X003256Y017536D02*
X001066Y017536D01*
X001066Y017694D02*
X003256Y017694D01*
X003256Y017853D02*
X001066Y017853D01*
X001066Y018011D02*
X003173Y018011D01*
X003148Y018170D02*
X001066Y018170D01*
X001066Y018328D02*
X003184Y018328D01*
X003301Y018487D02*
X001066Y018487D01*
X001066Y018645D02*
X003986Y018645D01*
X003986Y018487D02*
X003852Y018487D01*
X003969Y018328D02*
X003986Y018328D01*
X003979Y018011D02*
X003986Y018011D01*
X003986Y017853D02*
X003896Y017853D01*
X003896Y017694D02*
X003986Y017694D01*
X003986Y017536D02*
X003896Y017536D01*
X003896Y017377D02*
X003986Y017377D01*
X003986Y017218D02*
X003896Y017218D01*
X003896Y017060D02*
X003986Y017060D01*
X003986Y016901D02*
X003896Y016901D01*
X003896Y016743D02*
X003986Y016743D01*
X003986Y016584D02*
X003896Y016584D01*
X003896Y016426D02*
X003986Y016426D01*
X003986Y016267D02*
X003896Y016267D01*
X003896Y016109D02*
X003986Y016109D01*
X003986Y015950D02*
X003896Y015950D01*
X003896Y015792D02*
X003986Y015792D01*
X003986Y015633D02*
X003896Y015633D01*
X003896Y015474D02*
X003986Y015474D01*
X003986Y015316D02*
X003896Y015316D01*
X003896Y015157D02*
X003986Y015157D01*
X003986Y014999D02*
X003896Y014999D01*
X003896Y014840D02*
X003986Y014840D01*
X003986Y014682D02*
X003896Y014682D01*
X003896Y014523D02*
X003986Y014523D01*
X003986Y014365D02*
X003896Y014365D01*
X003896Y014206D02*
X003986Y014206D01*
X003986Y014048D02*
X003896Y014048D01*
X003896Y013889D02*
X003986Y013889D01*
X003986Y013731D02*
X003896Y013731D01*
X003896Y013572D02*
X003986Y013572D01*
X003986Y013413D02*
X003896Y013413D01*
X003896Y013255D02*
X003986Y013255D01*
X003986Y013096D02*
X003896Y013096D01*
X003896Y012938D02*
X003986Y012938D01*
X003986Y012779D02*
X003896Y012779D01*
X003896Y012621D02*
X003986Y012621D01*
X003986Y012462D02*
X003896Y012462D01*
X003896Y012304D02*
X003986Y012304D01*
X003986Y012145D02*
X003896Y012145D01*
X003896Y011987D02*
X003986Y011987D01*
X003986Y011828D02*
X003896Y011828D01*
X003896Y011669D02*
X003986Y011669D01*
X003986Y011511D02*
X003896Y011511D01*
X003896Y011352D02*
X003986Y011352D01*
X003986Y011194D02*
X003896Y011194D01*
X003896Y011035D02*
X003986Y011035D01*
X003986Y010877D02*
X003896Y010877D01*
X003896Y010718D02*
X003966Y010718D01*
X003946Y010560D02*
X003896Y010560D01*
X003896Y010401D02*
X003946Y010401D01*
X003946Y010243D02*
X003896Y010243D01*
X003896Y010084D02*
X003946Y010084D01*
X003946Y009925D02*
X003896Y009925D01*
X003896Y009767D02*
X003946Y009767D01*
X003960Y009608D02*
X003896Y009608D01*
X003896Y009450D02*
X004026Y009450D01*
X003896Y009291D02*
X004161Y009291D01*
X003896Y009133D02*
X005256Y009133D01*
X005256Y009291D02*
X004992Y009291D01*
X005127Y009450D02*
X005256Y009450D01*
X005256Y009608D02*
X005193Y009608D01*
X005206Y009767D02*
X005256Y009767D01*
X005256Y009925D02*
X005206Y009925D01*
X005206Y010084D02*
X005256Y010084D01*
X005256Y010243D02*
X005206Y010243D01*
X005206Y010401D02*
X005256Y010401D01*
X005256Y010560D02*
X005206Y010560D01*
X005187Y010718D02*
X005256Y010718D01*
X005256Y010877D02*
X005166Y010877D01*
X005166Y011035D02*
X005256Y011035D01*
X005256Y011194D02*
X005166Y011194D01*
X005166Y011352D02*
X005256Y011352D01*
X005256Y011511D02*
X005166Y011511D01*
X005166Y011669D02*
X005256Y011669D01*
X005256Y011828D02*
X005166Y011828D01*
X005166Y011987D02*
X005256Y011987D01*
X005256Y012145D02*
X005166Y012145D01*
X005166Y012304D02*
X005256Y012304D01*
X005256Y012462D02*
X005166Y012462D01*
X005166Y012621D02*
X005256Y012621D01*
X005256Y012779D02*
X005166Y012779D01*
X005166Y012938D02*
X005256Y012938D01*
X005256Y013096D02*
X005166Y013096D01*
X005166Y013255D02*
X005256Y013255D01*
X005256Y013413D02*
X005166Y013413D01*
X005166Y013572D02*
X005256Y013572D01*
X005256Y013731D02*
X005166Y013731D01*
X005166Y013889D02*
X005256Y013889D01*
X005256Y014048D02*
X005166Y014048D01*
X005166Y014206D02*
X005196Y014206D01*
X005576Y014407D02*
X005576Y008407D01*
X005326Y008157D01*
X005013Y007864D02*
X003896Y007864D01*
X003896Y007706D02*
X006606Y007706D01*
X006606Y007864D02*
X005639Y007864D01*
X005734Y008023D02*
X006606Y008023D01*
X006606Y008181D02*
X005804Y008181D01*
X005895Y008340D02*
X006606Y008340D01*
X006606Y008499D02*
X005896Y008499D01*
X005896Y008657D02*
X006606Y008657D01*
X006606Y008816D02*
X005896Y008816D01*
X005896Y008974D02*
X006606Y008974D01*
X006606Y009133D02*
X005896Y009133D01*
X005896Y009291D02*
X006606Y009291D01*
X006606Y009450D02*
X005896Y009450D01*
X005896Y009608D02*
X006606Y009608D01*
X006606Y009767D02*
X005896Y009767D01*
X005896Y009925D02*
X006606Y009925D01*
X006606Y010017D02*
X006606Y007529D01*
X006584Y007520D01*
X006464Y007399D01*
X006398Y007242D01*
X006398Y007072D01*
X003896Y007072D01*
X003896Y007230D02*
X006398Y007230D01*
X006398Y007072D02*
X006464Y006914D01*
X006584Y006794D01*
X006741Y006729D01*
X006912Y006729D01*
X007069Y006794D01*
X007189Y006914D01*
X007255Y007072D01*
X014506Y007072D01*
X014506Y007230D02*
X007255Y007230D01*
X007255Y007242D02*
X007246Y007262D01*
X007246Y010017D01*
X007283Y010033D01*
X007461Y010210D01*
X007556Y010441D01*
X007556Y011472D01*
X007461Y011704D01*
X007283Y011881D01*
X007052Y011977D01*
X006801Y011977D01*
X006570Y011881D01*
X006392Y011704D01*
X006296Y011472D01*
X006296Y010441D01*
X006392Y010210D01*
X006570Y010033D01*
X006606Y010017D01*
X006518Y010084D02*
X005896Y010084D01*
X005896Y010243D02*
X006379Y010243D01*
X006313Y010401D02*
X005896Y010401D01*
X005896Y010560D02*
X006296Y010560D01*
X006296Y010718D02*
X005896Y010718D01*
X005896Y010877D02*
X006296Y010877D01*
X006296Y011035D02*
X005896Y011035D01*
X005896Y011194D02*
X006296Y011194D01*
X006296Y011352D02*
X005896Y011352D01*
X005896Y011511D02*
X006313Y011511D01*
X006378Y011669D02*
X005896Y011669D01*
X005896Y011828D02*
X006517Y011828D01*
X006964Y012164D02*
X006898Y012322D01*
X006898Y012492D01*
X006964Y012649D01*
X007006Y012692D01*
X007006Y014593D01*
X007006Y014721D01*
X007013Y014737D01*
X006801Y014737D01*
X006570Y014833D01*
X006392Y015010D01*
X006296Y015241D01*
X006296Y015595D01*
X006236Y015739D01*
X006236Y021289D01*
X006236Y021524D01*
X006326Y021741D01*
X008170Y023585D01*
X008158Y023614D01*
X008158Y024699D01*
X008258Y024939D01*
X008441Y025123D01*
X008681Y025222D01*
X008941Y025222D01*
X009180Y025123D01*
X009364Y024939D01*
X009463Y024699D01*
X009463Y023614D01*
X009401Y023464D01*
X009401Y023274D01*
X009311Y023057D01*
X009145Y022891D01*
X007416Y021162D01*
X007416Y019536D01*
X007464Y019649D01*
X007584Y019770D01*
X007741Y019835D01*
X007912Y019835D01*
X008069Y019770D01*
X008189Y019649D01*
X008255Y019492D01*
X008255Y019322D01*
X008189Y019164D01*
X008146Y019121D01*
X008338Y019121D01*
X008302Y019085D02*
X008506Y019289D01*
X008506Y019927D01*
X008476Y019999D01*
X008476Y020875D01*
X008513Y020963D01*
X008580Y021030D01*
X008669Y021067D01*
X008984Y021067D01*
X009072Y021030D01*
X009076Y021026D01*
X009080Y021030D01*
X009169Y021067D01*
X009484Y021067D01*
X009572Y021030D01*
X009576Y021026D01*
X009580Y021030D01*
X009669Y021067D01*
X009984Y021067D01*
X010072Y021030D01*
X010076Y021026D01*
X010080Y021030D01*
X010169Y021067D01*
X010484Y021067D01*
X010572Y021030D01*
X010576Y021026D01*
X010580Y021030D01*
X010669Y021067D01*
X010984Y021067D01*
X011072Y021030D01*
X011076Y021026D01*
X011080Y021030D01*
X011169Y021067D01*
X011311Y021067D01*
X011214Y021164D01*
X011148Y021322D01*
X011148Y021492D01*
X011214Y021649D01*
X011334Y021770D01*
X011491Y021835D01*
X011662Y021835D01*
X011819Y021770D01*
X011939Y021649D01*
X011951Y021620D01*
X011964Y021649D01*
X012084Y021770D01*
X012241Y021835D01*
X012302Y021835D01*
X012506Y022039D01*
X012506Y024093D01*
X012506Y024221D01*
X012555Y024338D01*
X013055Y024838D01*
X013145Y024928D01*
X013263Y024977D01*
X013357Y024977D01*
X013390Y025010D01*
X013479Y025047D01*
X014174Y025047D01*
X014262Y025010D01*
X014330Y024943D01*
X014366Y024855D01*
X014366Y024778D01*
X014732Y024778D01*
X014732Y024821D01*
X014769Y024909D01*
X014836Y024976D01*
X014924Y025013D01*
X015729Y025013D01*
X015817Y024976D01*
X015884Y024909D01*
X015921Y024821D01*
X015921Y024095D01*
X015884Y024007D01*
X015817Y023940D01*
X015738Y023907D01*
X015817Y023874D01*
X015884Y023807D01*
X015921Y023718D01*
X015921Y022993D01*
X015884Y022905D01*
X015817Y022837D01*
X015729Y022801D01*
X015646Y022801D01*
X015646Y022093D01*
X015598Y021976D01*
X015508Y021886D01*
X015008Y021386D01*
X014890Y021337D01*
X014763Y021337D01*
X013459Y021337D01*
X013146Y021024D01*
X013146Y020994D01*
X013147Y020995D01*
X013193Y021007D01*
X013326Y021007D01*
X013326Y020437D01*
X013327Y020437D01*
X013327Y021007D01*
X013460Y021007D01*
X013506Y020995D01*
X013531Y020980D01*
X013580Y021030D01*
X013669Y021067D01*
X013984Y021067D01*
X014072Y021030D01*
X014076Y021026D01*
X014080Y021030D01*
X014169Y021067D01*
X014484Y021067D01*
X014572Y021030D01*
X014576Y021026D01*
X014580Y021030D01*
X014669Y021067D01*
X014984Y021067D01*
X015072Y021030D01*
X015076Y021026D01*
X015080Y021030D01*
X015169Y021067D01*
X015484Y021067D01*
X015572Y021030D01*
X015640Y020963D01*
X015676Y020875D01*
X015676Y019999D01*
X015640Y019911D01*
X015572Y019843D01*
X015484Y019807D01*
X015169Y019807D01*
X015080Y019843D01*
X015076Y019847D01*
X015072Y019843D01*
X014984Y019807D01*
X014669Y019807D01*
X014646Y019816D01*
X014646Y017942D01*
X014689Y017899D01*
X014755Y017742D01*
X014755Y017572D01*
X014728Y017507D01*
X014984Y017507D01*
X015072Y017470D01*
X015076Y017466D01*
X015080Y017470D01*
X015169Y017507D01*
X015484Y017507D01*
X015572Y017470D01*
X015640Y017403D01*
X015676Y017315D01*
X015676Y016439D01*
X015640Y016351D01*
X015572Y016283D01*
X015484Y016247D01*
X015169Y016247D01*
X015080Y016283D01*
X015076Y016287D01*
X015072Y016283D01*
X014984Y016247D01*
X014669Y016247D01*
X014580Y016283D01*
X014576Y016287D01*
X014572Y016283D01*
X014484Y016247D01*
X014169Y016247D01*
X014080Y016283D01*
X014076Y016287D01*
X014072Y016283D01*
X013984Y016247D01*
X013939Y016247D01*
X014185Y016001D01*
X014388Y016001D01*
X014476Y015965D01*
X014544Y015897D01*
X014580Y015809D01*
X014580Y015005D01*
X014544Y014917D01*
X014476Y014849D01*
X014396Y014816D01*
X014396Y014539D01*
X014787Y014149D01*
X014964Y014222D01*
X015189Y014222D01*
X015396Y014136D01*
X015555Y013977D01*
X015641Y013769D01*
X015641Y013544D01*
X015555Y013337D01*
X015396Y013178D01*
X015189Y013092D01*
X014964Y013092D01*
X014756Y013178D01*
X014597Y013337D01*
X014529Y013501D01*
X013805Y014226D01*
X013756Y014343D01*
X013756Y014471D01*
X013756Y014813D01*
X013663Y014813D01*
X013574Y014849D01*
X013507Y014917D01*
X013470Y015005D01*
X013470Y015809D01*
X013471Y015810D01*
X013405Y015876D01*
X013433Y015809D01*
X013433Y015005D01*
X013396Y014918D01*
X013396Y014136D01*
X013396Y014136D01*
X013555Y013977D01*
X013641Y013769D01*
X013641Y013544D01*
X013555Y013337D01*
X013396Y013178D01*
X013189Y013092D01*
X012964Y013092D01*
X012756Y013178D01*
X012597Y013337D01*
X012511Y013544D01*
X012511Y013769D01*
X012597Y013977D01*
X012756Y014136D01*
X012756Y014136D01*
X012756Y014813D01*
X012515Y014813D01*
X012427Y014849D01*
X012359Y014917D01*
X012323Y015005D01*
X012323Y015809D01*
X012359Y015897D01*
X012427Y015965D01*
X012506Y015998D01*
X012506Y016319D01*
X012506Y016319D01*
X012460Y016307D01*
X012327Y016307D01*
X012327Y016876D01*
X012326Y016876D01*
X012326Y016307D01*
X012193Y016307D01*
X012147Y016319D01*
X012122Y016333D01*
X012072Y016283D01*
X011984Y016247D01*
X011669Y016247D01*
X011580Y016283D01*
X011576Y016287D01*
X011572Y016283D01*
X011484Y016247D01*
X011169Y016247D01*
X011080Y016283D01*
X011076Y016287D01*
X011072Y016283D01*
X010984Y016247D01*
X010669Y016247D01*
X010580Y016283D01*
X010576Y016287D01*
X010572Y016283D01*
X010484Y016247D01*
X010169Y016247D01*
X010080Y016283D01*
X010076Y016287D01*
X010072Y016283D01*
X009984Y016247D01*
X009669Y016247D01*
X009580Y016283D01*
X009576Y016287D01*
X009572Y016283D01*
X009484Y016247D01*
X009386Y016247D01*
X009396Y016221D01*
X009396Y016093D01*
X009396Y014440D01*
X009356Y014341D01*
X009356Y014206D01*
X009982Y014206D01*
X009982Y014095D02*
X010019Y014007D01*
X010086Y013940D01*
X010165Y013907D01*
X010086Y013874D01*
X010019Y013807D01*
X009982Y013718D01*
X009982Y013676D01*
X009308Y013676D01*
X009190Y013627D01*
X009100Y013537D01*
X008864Y013300D01*
X008489Y013300D01*
X008401Y013264D01*
X008334Y013196D01*
X008297Y013108D01*
X008297Y012513D01*
X008334Y012424D01*
X008401Y012357D01*
X008489Y012320D01*
X008871Y012320D01*
X008868Y012319D01*
X008800Y012251D01*
X008791Y012229D01*
X008760Y012260D01*
X008719Y012283D01*
X008673Y012295D01*
X008471Y012295D01*
X008471Y011859D01*
X008434Y011859D01*
X008434Y012295D01*
X008232Y012295D01*
X008186Y012283D01*
X008145Y012260D01*
X008112Y012226D01*
X008088Y012185D01*
X008076Y012139D01*
X008076Y011858D01*
X008434Y011858D01*
X008434Y011821D01*
X008076Y011821D01*
X008076Y011541D01*
X008088Y011495D01*
X008112Y011454D01*
X008145Y011420D01*
X008186Y011397D01*
X008232Y011384D01*
X008426Y011384D01*
X008390Y011297D01*
X008390Y010650D01*
X008426Y010562D01*
X008494Y010495D01*
X008506Y010489D01*
X008506Y010287D01*
X008451Y010287D01*
X008220Y010191D01*
X008042Y010014D01*
X007946Y009782D01*
X007946Y009531D01*
X008028Y009335D01*
X007991Y009335D01*
X007834Y009270D01*
X007714Y009149D01*
X007648Y008992D01*
X007648Y008822D01*
X007714Y008664D01*
X007834Y008544D01*
X007991Y008479D01*
X008162Y008479D01*
X008319Y008544D01*
X008439Y008664D01*
X008505Y008822D01*
X008505Y008882D01*
X008649Y009027D01*
X008702Y009027D01*
X008933Y009123D01*
X009111Y009300D01*
X009206Y009531D01*
X009206Y009782D01*
X009146Y009927D01*
X009146Y010489D01*
X009159Y010495D01*
X009227Y010562D01*
X009263Y010650D01*
X009263Y011297D01*
X009252Y011324D01*
X009359Y011324D01*
X009364Y011314D01*
X009484Y011194D01*
X009641Y011129D01*
X009720Y011129D01*
X009720Y010505D01*
X009757Y010417D01*
X009824Y010349D01*
X009913Y010313D01*
X009955Y010313D01*
X009955Y009879D01*
X009898Y009742D01*
X009898Y009572D01*
X009964Y009414D01*
X010084Y009294D01*
X010241Y009229D01*
X010412Y009229D01*
X010569Y009294D01*
X010689Y009414D01*
X010755Y009572D01*
X010755Y009742D01*
X010689Y009899D01*
X010595Y009993D01*
X010595Y010313D01*
X010638Y010313D01*
X010726Y010349D01*
X010794Y010417D01*
X010830Y010505D01*
X010830Y011309D01*
X010794Y011397D01*
X010726Y011465D01*
X010638Y011501D01*
X010155Y011501D01*
X010155Y011532D01*
X010185Y011563D01*
X010638Y011563D01*
X010726Y011599D01*
X010794Y011667D01*
X010826Y011746D01*
X010859Y011667D01*
X010927Y011599D01*
X011015Y011563D01*
X011740Y011563D01*
X011829Y011599D01*
X011896Y011667D01*
X011933Y011755D01*
X011933Y011837D01*
X011982Y011837D01*
X011982Y011595D01*
X012019Y011507D01*
X012086Y011440D01*
X012174Y011403D01*
X012979Y011403D01*
X013067Y011440D01*
X013134Y011507D01*
X013171Y011595D01*
X013171Y012321D01*
X013134Y012409D01*
X013067Y012476D01*
X012979Y012513D01*
X012174Y012513D01*
X012087Y012477D01*
X011933Y012477D01*
X011933Y012487D01*
X012069Y012544D01*
X012189Y012664D01*
X012255Y012822D01*
X012255Y012992D01*
X012189Y013149D01*
X012146Y013192D01*
X012146Y013971D01*
X012098Y014088D01*
X012008Y014178D01*
X012008Y014178D01*
X011598Y014588D01*
X011508Y014678D01*
X011390Y014727D01*
X011171Y014727D01*
X011171Y014821D01*
X011134Y014909D01*
X011067Y014976D01*
X010979Y015013D01*
X010896Y015013D01*
X010896Y015121D01*
X010939Y015164D01*
X011005Y015322D01*
X011005Y015492D01*
X010939Y015649D01*
X010819Y015770D01*
X010662Y015835D01*
X010491Y015835D01*
X010334Y015770D01*
X010214Y015649D01*
X010148Y015492D01*
X010148Y015322D01*
X010214Y015164D01*
X010256Y015121D01*
X010256Y015013D01*
X010174Y015013D01*
X010086Y014976D01*
X010019Y014909D01*
X009982Y014821D01*
X009982Y014095D01*
X010002Y014048D02*
X009246Y014048D01*
X009252Y014050D02*
X009319Y014117D01*
X009356Y014206D01*
X009365Y014365D02*
X009982Y014365D01*
X009982Y014523D02*
X009396Y014523D01*
X009396Y014682D02*
X009982Y014682D01*
X009990Y014840D02*
X009396Y014840D01*
X009396Y014999D02*
X010140Y014999D01*
X010220Y015157D02*
X009396Y015157D01*
X009396Y015316D02*
X010151Y015316D01*
X010148Y015474D02*
X009396Y015474D01*
X009396Y015633D02*
X010207Y015633D01*
X010387Y015792D02*
X009396Y015792D01*
X009396Y015950D02*
X012412Y015950D01*
X012323Y015792D02*
X012268Y015792D01*
X012270Y015785D02*
X012258Y015831D01*
X012234Y015872D01*
X012201Y015905D01*
X012160Y015929D01*
X012114Y015941D01*
X011853Y015941D01*
X011853Y015485D01*
X011698Y015485D01*
X011698Y015941D01*
X011437Y015941D01*
X011391Y015929D01*
X011350Y015905D01*
X011316Y015872D01*
X011293Y015831D01*
X011280Y015785D01*
X011280Y015484D01*
X011698Y015484D01*
X011698Y015329D01*
X011853Y015329D01*
X011853Y014873D01*
X012114Y014873D01*
X012160Y014885D01*
X012201Y014908D01*
X012234Y014942D01*
X012258Y014983D01*
X012270Y015029D01*
X012270Y015329D01*
X011853Y015329D01*
X011853Y015484D01*
X012270Y015484D01*
X012270Y015785D01*
X012270Y015633D02*
X012323Y015633D01*
X012323Y015474D02*
X011853Y015474D01*
X011826Y015458D02*
X011826Y015907D01*
X012076Y016157D01*
X012326Y016157D01*
X012326Y016877D01*
X012326Y017447D01*
X012193Y017447D01*
X012147Y017435D01*
X012122Y017420D01*
X012072Y017470D01*
X011984Y017507D01*
X011669Y017507D01*
X011580Y017470D01*
X011576Y017466D01*
X011572Y017470D01*
X011484Y017507D01*
X011169Y017507D01*
X011080Y017470D01*
X011076Y017466D01*
X011072Y017470D01*
X010984Y017507D01*
X010669Y017507D01*
X010580Y017470D01*
X010576Y017466D01*
X010572Y017470D01*
X010484Y017507D01*
X010169Y017507D01*
X010080Y017470D01*
X010076Y017466D01*
X010072Y017470D01*
X009984Y017507D01*
X009879Y017507D01*
X010709Y018337D01*
X010791Y018337D01*
X010834Y018294D01*
X010991Y018229D01*
X011162Y018229D01*
X011319Y018294D01*
X011439Y018414D01*
X011505Y018572D01*
X011505Y018742D01*
X011439Y018899D01*
X011360Y018979D01*
X011412Y018979D01*
X011569Y019044D01*
X011612Y019087D01*
X011763Y019087D01*
X011804Y019087D01*
X011645Y018928D01*
X011555Y018838D01*
X011506Y018721D01*
X011506Y018442D01*
X011464Y018399D01*
X011398Y018242D01*
X011398Y018072D01*
X011464Y017914D01*
X011584Y017794D01*
X011741Y017729D01*
X011912Y017729D01*
X012069Y017794D01*
X012189Y017914D01*
X012255Y018072D01*
X012255Y018242D01*
X012189Y018399D01*
X012146Y018442D01*
X012146Y018524D01*
X013098Y019476D01*
X013146Y019593D01*
X013146Y019721D01*
X013146Y019879D01*
X013147Y019879D01*
X013193Y019867D01*
X013326Y019867D01*
X013326Y020436D01*
X013327Y020436D01*
X013327Y019867D01*
X013460Y019867D01*
X013506Y019879D01*
X013506Y019879D01*
X013506Y019442D01*
X013464Y019399D01*
X013398Y019242D01*
X013398Y019072D01*
X013464Y018914D01*
X013584Y018794D01*
X013741Y018729D01*
X013912Y018729D01*
X014006Y018768D01*
X014006Y017942D01*
X013964Y017899D01*
X013898Y017742D01*
X013898Y017572D01*
X013925Y017507D01*
X013669Y017507D01*
X013580Y017470D01*
X013576Y017466D01*
X013572Y017470D01*
X013484Y017507D01*
X013169Y017507D01*
X013080Y017470D01*
X013076Y017466D01*
X013072Y017470D01*
X012984Y017507D01*
X012669Y017507D01*
X012580Y017470D01*
X012531Y017420D01*
X012506Y017435D01*
X012460Y017447D01*
X012327Y017447D01*
X012327Y016877D01*
X012326Y016877D01*
X012326Y018657D01*
X013326Y019657D01*
X013326Y020437D01*
X013326Y020389D02*
X013327Y020389D01*
X013326Y020231D02*
X013327Y020231D01*
X013326Y020072D02*
X013327Y020072D01*
X013326Y019914D02*
X013327Y019914D01*
X013506Y019755D02*
X013146Y019755D01*
X013146Y019597D02*
X013506Y019597D01*
X013502Y019438D02*
X013060Y019438D01*
X012902Y019280D02*
X013414Y019280D01*
X013398Y019121D02*
X012743Y019121D01*
X012585Y018962D02*
X013444Y018962D01*
X013574Y018804D02*
X012426Y018804D01*
X012268Y018645D02*
X014006Y018645D01*
X014006Y018487D02*
X012146Y018487D01*
X012219Y018328D02*
X014006Y018328D01*
X014006Y018170D02*
X012255Y018170D01*
X012229Y018011D02*
X014006Y018011D01*
X013944Y017853D02*
X012128Y017853D01*
X011826Y018157D02*
X011826Y018657D01*
X012826Y019657D01*
X012826Y020437D01*
X012826Y021157D01*
X013326Y021657D01*
X014826Y021657D01*
X015326Y022157D01*
X015326Y023356D01*
X015921Y023402D02*
X018486Y023402D01*
X018486Y023405D02*
X018486Y023245D01*
X017579Y023245D01*
X017589Y023159D01*
X017614Y023051D01*
X017650Y022946D01*
X017699Y022846D01*
X017758Y022752D01*
X017827Y022665D01*
X017906Y022586D01*
X017993Y022517D01*
X018087Y022458D01*
X018187Y022409D01*
X018292Y022373D01*
X018400Y022348D01*
X018486Y022338D01*
X018486Y023245D01*
X018646Y023245D01*
X018646Y022338D01*
X018733Y022348D01*
X018841Y022373D01*
X018946Y022409D01*
X019046Y022458D01*
X019140Y022517D01*
X019227Y022586D01*
X019306Y022665D01*
X019375Y022752D01*
X019434Y022846D01*
X019483Y022946D01*
X019519Y023051D01*
X019544Y023159D01*
X019554Y023245D01*
X018647Y023245D01*
X018647Y023405D01*
X019554Y023405D01*
X019544Y023491D01*
X019519Y023600D01*
X019483Y023705D01*
X019434Y023805D01*
X019375Y023899D01*
X019306Y023986D01*
X019227Y024065D01*
X019140Y024134D01*
X019046Y024193D01*
X018946Y024241D01*
X018841Y024278D01*
X018733Y024303D01*
X018646Y024313D01*
X018646Y023406D01*
X018486Y023406D01*
X018486Y024313D01*
X018400Y024303D01*
X018292Y024278D01*
X018187Y024241D01*
X018087Y024193D01*
X017993Y024134D01*
X017906Y024065D01*
X017827Y023986D01*
X017758Y023899D01*
X017699Y023805D01*
X017650Y023705D01*
X017614Y023600D01*
X017589Y023491D01*
X017579Y023405D01*
X018486Y023405D01*
X018486Y023560D02*
X018646Y023560D01*
X018647Y023402D02*
X020271Y023402D01*
X020271Y023560D02*
X019528Y023560D01*
X019476Y023719D02*
X020271Y023719D01*
X020271Y023877D02*
X019389Y023877D01*
X019256Y024036D02*
X020271Y024036D01*
X020271Y024194D02*
X019044Y024194D01*
X018646Y024194D02*
X018486Y024194D01*
X018486Y024036D02*
X018646Y024036D01*
X018646Y023877D02*
X018486Y023877D01*
X018486Y023719D02*
X018646Y023719D01*
X018646Y023243D02*
X018486Y023243D01*
X018486Y023085D02*
X018646Y023085D01*
X018646Y022926D02*
X018486Y022926D01*
X018486Y022767D02*
X018646Y022767D01*
X018646Y022609D02*
X018486Y022609D01*
X018486Y022450D02*
X018646Y022450D01*
X019031Y022450D02*
X020271Y022450D01*
X020271Y022292D02*
X017885Y022292D01*
X017983Y022133D02*
X020271Y022133D01*
X020271Y021975D02*
X018046Y021975D01*
X018078Y021816D02*
X020271Y021816D01*
X020271Y021658D02*
X017176Y021658D01*
X017175Y021816D02*
X017016Y021816D01*
X017015Y021658D02*
X015280Y021658D01*
X015438Y021816D02*
X016113Y021816D01*
X016145Y021975D02*
X015597Y021975D01*
X015646Y022133D02*
X016208Y022133D01*
X016306Y022292D02*
X015646Y022292D01*
X015646Y022450D02*
X016456Y022450D01*
X016713Y022609D02*
X015646Y022609D01*
X015646Y022767D02*
X017748Y022767D01*
X017660Y022926D02*
X015893Y022926D01*
X015921Y023085D02*
X017606Y023085D01*
X017579Y023243D02*
X015921Y023243D01*
X015921Y023560D02*
X017605Y023560D01*
X017657Y023719D02*
X015921Y023719D01*
X015809Y023877D02*
X017744Y023877D01*
X017877Y024036D02*
X015896Y024036D01*
X015921Y024194D02*
X018089Y024194D01*
X017883Y022609D02*
X017478Y022609D01*
X017735Y022450D02*
X018102Y022450D01*
X018066Y021499D02*
X018384Y021499D01*
X018769Y021499D02*
X020271Y021499D01*
X020271Y021341D02*
X019162Y021341D01*
X019351Y021182D02*
X020271Y021182D01*
X020271Y021024D02*
X019477Y021024D01*
X019568Y020865D02*
X020271Y020865D01*
X020271Y020706D02*
X019614Y020706D01*
X019646Y020548D02*
X020271Y020548D01*
X020271Y020389D02*
X019646Y020389D01*
X019627Y020231D02*
X020271Y020231D01*
X020271Y020072D02*
X019585Y020072D01*
X019506Y019914D02*
X020271Y019914D01*
X020271Y019755D02*
X019402Y019755D01*
X019243Y019597D02*
X020271Y019597D01*
X020271Y019438D02*
X018959Y019438D01*
X018898Y018917D02*
X018898Y018917D01*
X019076Y018917D02*
X019076Y018917D01*
X019132Y018917D02*
X019132Y018917D01*
X019565Y018804D02*
X020271Y018804D01*
X020271Y018962D02*
X017976Y018962D01*
X017976Y018804D02*
X018588Y018804D01*
X018385Y018645D02*
X017976Y018645D01*
X017976Y018487D02*
X018245Y018487D01*
X018291Y018566D02*
X018291Y018566D01*
X018154Y018328D02*
X017976Y018328D01*
X017976Y018170D02*
X018097Y018170D01*
X018069Y018011D02*
X017976Y018011D01*
X017976Y017853D02*
X018060Y017853D01*
X018088Y017694D02*
X017976Y017694D01*
X018013Y017536D02*
X018125Y017536D01*
X018113Y017556D02*
X018113Y017556D01*
X018172Y017377D02*
X018216Y017377D01*
X018489Y017060D02*
X018515Y017060D01*
X018564Y017019D02*
X018564Y017019D01*
X018648Y016901D02*
X018886Y016901D01*
X018806Y016743D02*
X020271Y016743D01*
X020271Y016901D02*
X019267Y016901D01*
X019132Y016897D02*
X019132Y016897D01*
X018965Y016584D02*
X020271Y016584D01*
X020271Y016426D02*
X019123Y016426D01*
X019282Y016267D02*
X020271Y016267D01*
X020271Y016109D02*
X019426Y016109D01*
X019476Y015950D02*
X020271Y015950D01*
X020271Y015792D02*
X019476Y015792D01*
X019590Y015633D02*
X020271Y015633D01*
X020271Y015474D02*
X019641Y015474D01*
X019641Y015316D02*
X020271Y015316D01*
X020271Y015157D02*
X019641Y015157D01*
X019641Y014999D02*
X020271Y014999D01*
X020271Y014840D02*
X019641Y014840D01*
X019591Y014682D02*
X020271Y014682D01*
X020271Y014523D02*
X019476Y014523D01*
X019476Y014365D02*
X020271Y014365D01*
X020271Y014206D02*
X019476Y014206D01*
X019476Y014048D02*
X020271Y014048D01*
X020271Y013889D02*
X019476Y013889D01*
X019505Y013742D02*
X019505Y013572D01*
X019438Y013413D02*
X020271Y013413D01*
X020271Y013255D02*
X019225Y013255D01*
X018928Y013255D02*
X017226Y013255D01*
X017226Y013413D02*
X018714Y013413D01*
X018588Y013096D02*
X018499Y013096D01*
X018508Y013081D02*
X018484Y013122D01*
X018451Y013155D01*
X018410Y013179D01*
X018364Y013191D01*
X018103Y013191D01*
X018103Y012735D01*
X017948Y012735D01*
X017948Y013191D01*
X017687Y013191D01*
X017641Y013179D01*
X017600Y013155D01*
X017566Y013122D01*
X017543Y013081D01*
X017530Y013035D01*
X017530Y012734D01*
X017948Y012734D01*
X017948Y012579D01*
X018103Y012579D01*
X018103Y012123D01*
X018364Y012123D01*
X018410Y012135D01*
X018451Y012158D01*
X018484Y012192D01*
X018508Y012233D01*
X018520Y012279D01*
X018520Y012579D01*
X018103Y012579D01*
X018103Y012734D01*
X018520Y012734D01*
X018520Y013035D01*
X018508Y013081D01*
X018520Y012938D02*
X018573Y012938D01*
X018573Y012779D02*
X018520Y012779D01*
X018573Y012621D02*
X018103Y012621D01*
X018025Y012657D02*
X018076Y012708D01*
X018076Y015157D01*
X018077Y015157D01*
X018076Y014999D02*
X018077Y014999D01*
X018076Y014840D02*
X018077Y014840D01*
X018076Y014682D02*
X018077Y014682D01*
X018248Y014682D02*
X018562Y014682D01*
X018511Y014840D02*
X018471Y014840D01*
X018676Y014523D02*
X016984Y014523D01*
X017005Y014682D02*
X017904Y014682D01*
X017682Y014840D02*
X016964Y014840D01*
X016576Y014657D02*
X016576Y017657D01*
X016902Y017377D02*
X017176Y017377D01*
X017176Y017536D02*
X016990Y017536D01*
X017005Y017694D02*
X017176Y017694D01*
X017176Y017853D02*
X016959Y017853D01*
X016828Y018011D02*
X017176Y018011D01*
X017176Y018170D02*
X016396Y018170D01*
X016352Y018328D02*
X017176Y018328D01*
X017176Y018487D02*
X016199Y018487D01*
X016146Y018645D02*
X017176Y018645D01*
X017176Y018804D02*
X016146Y018804D01*
X016209Y018962D02*
X017176Y018962D01*
X017176Y019121D02*
X016255Y019121D01*
X016239Y019280D02*
X017194Y019280D01*
X017292Y019438D02*
X016151Y019438D01*
X015826Y019157D02*
X015826Y018407D01*
X016076Y018157D01*
X016076Y012657D01*
X016326Y012407D01*
X015983Y012145D02*
X015755Y012145D01*
X015729Y012304D02*
X015906Y012304D01*
X015819Y012462D02*
X015627Y012462D01*
X015756Y012621D02*
X012146Y012621D01*
X012237Y012779D02*
X015756Y012779D01*
X015756Y012938D02*
X012255Y012938D01*
X012211Y013096D02*
X012953Y013096D01*
X013200Y013096D02*
X014953Y013096D01*
X015200Y013096D02*
X015756Y013096D01*
X015756Y013255D02*
X015474Y013255D01*
X015587Y013413D02*
X015756Y013413D01*
X015756Y013572D02*
X015641Y013572D01*
X015641Y013731D02*
X015756Y013731D01*
X015756Y013889D02*
X015592Y013889D01*
X015485Y014048D02*
X015756Y014048D01*
X015756Y014206D02*
X015227Y014206D01*
X014926Y014206D02*
X014730Y014206D01*
X014571Y014365D02*
X015756Y014365D01*
X015756Y014523D02*
X014413Y014523D01*
X014396Y014682D02*
X015756Y014682D01*
X015756Y014840D02*
X014455Y014840D01*
X014578Y014999D02*
X014641Y014999D01*
X014645Y014983D02*
X014669Y014942D01*
X014702Y014908D01*
X014743Y014885D01*
X014789Y014873D01*
X015050Y014873D01*
X015050Y015329D01*
X015205Y015329D01*
X015205Y014873D01*
X015466Y014873D01*
X015512Y014885D01*
X015553Y014908D01*
X015587Y014942D01*
X015610Y014983D01*
X015623Y015029D01*
X015623Y015329D01*
X015205Y015329D01*
X015205Y015484D01*
X015623Y015484D01*
X015623Y015785D01*
X015610Y015831D01*
X015587Y015872D01*
X015553Y015905D01*
X015512Y015929D01*
X015466Y015941D01*
X015205Y015941D01*
X015205Y015485D01*
X015050Y015485D01*
X015050Y015941D01*
X014789Y015941D01*
X014743Y015929D01*
X014702Y015905D01*
X014669Y015872D01*
X014645Y015831D01*
X014633Y015785D01*
X014633Y015484D01*
X015050Y015484D01*
X015050Y015329D01*
X014633Y015329D01*
X014633Y015029D01*
X014645Y014983D01*
X014633Y015157D02*
X014580Y015157D01*
X014580Y015316D02*
X014633Y015316D01*
X014580Y015474D02*
X015050Y015474D01*
X015128Y015407D02*
X015576Y015856D01*
X015576Y016157D01*
X015533Y016267D02*
X015756Y016267D01*
X015756Y016109D02*
X014077Y016109D01*
X014120Y016267D02*
X014033Y016267D01*
X014025Y015708D02*
X013326Y016407D01*
X013326Y016877D01*
X012826Y016877D02*
X012826Y015407D01*
X012878Y015407D01*
X013076Y015208D01*
X013076Y013657D01*
X012668Y014048D02*
X012115Y014048D01*
X012146Y013889D02*
X012561Y013889D01*
X012511Y013731D02*
X012146Y013731D01*
X012146Y013572D02*
X012511Y013572D01*
X012566Y013413D02*
X012146Y013413D01*
X012146Y013255D02*
X012679Y013255D01*
X012326Y013407D02*
X013326Y012407D01*
X013326Y011407D01*
X012775Y010856D01*
X012576Y010856D01*
X012525Y010907D01*
X011378Y010907D01*
X011326Y010856D01*
X011326Y007907D01*
X012148Y007864D02*
X007246Y007864D01*
X007246Y007706D02*
X012196Y007706D01*
X012214Y007664D02*
X012148Y007822D01*
X012148Y007992D01*
X012214Y008149D01*
X012256Y008192D01*
X012256Y009107D01*
X012220Y009123D01*
X012042Y009300D01*
X011946Y009531D01*
X011946Y009782D01*
X012042Y010014D01*
X012220Y010191D01*
X012451Y010287D01*
X012702Y010287D01*
X012933Y010191D01*
X013111Y010014D01*
X013206Y009782D01*
X013206Y009531D01*
X013111Y009300D01*
X012933Y009123D01*
X012896Y009107D01*
X012896Y008192D01*
X012939Y008149D01*
X013005Y007992D01*
X013005Y007822D01*
X012939Y007664D01*
X012819Y007544D01*
X012662Y007479D01*
X012491Y007479D01*
X012334Y007544D01*
X012214Y007664D01*
X012331Y007547D02*
X007246Y007547D01*
X007246Y007389D02*
X014506Y007389D01*
X014506Y007547D02*
X012822Y007547D01*
X012957Y007706D02*
X014506Y007706D01*
X014506Y007864D02*
X013005Y007864D01*
X012992Y008023D02*
X014506Y008023D01*
X014506Y008181D02*
X012907Y008181D01*
X012896Y008340D02*
X014506Y008340D01*
X014506Y008499D02*
X012896Y008499D01*
X012896Y008657D02*
X014506Y008657D01*
X014506Y008816D02*
X012896Y008816D01*
X012896Y008974D02*
X014439Y008974D01*
X014398Y009133D02*
X012943Y009133D01*
X013102Y009291D02*
X013336Y009291D01*
X013331Y009306D02*
X013344Y009261D01*
X013367Y009220D01*
X013401Y009186D01*
X013442Y009162D01*
X013488Y009150D01*
X013769Y009150D01*
X013769Y009548D01*
X013884Y009548D01*
X013884Y009150D01*
X014165Y009150D01*
X014211Y009162D01*
X014252Y009186D01*
X014285Y009220D01*
X014309Y009261D01*
X014321Y009306D01*
X014321Y009548D01*
X013884Y009548D01*
X013884Y009663D01*
X014321Y009663D01*
X014321Y009905D01*
X014309Y009951D01*
X014285Y009992D01*
X014252Y010025D01*
X014211Y010049D01*
X014165Y010061D01*
X013884Y010061D01*
X013884Y009664D01*
X013769Y009664D01*
X013769Y010061D01*
X013488Y010061D01*
X013442Y010049D01*
X013401Y010025D01*
X013367Y009992D01*
X013344Y009951D01*
X013331Y009905D01*
X013331Y009663D01*
X013768Y009663D01*
X013768Y009548D01*
X013331Y009548D01*
X013331Y009306D01*
X013331Y009450D02*
X013173Y009450D01*
X013206Y009608D02*
X013768Y009608D01*
X013826Y009606D02*
X012576Y010856D01*
X012499Y010877D02*
X011455Y010877D01*
X011455Y010829D02*
X011455Y010984D01*
X011873Y010984D01*
X011873Y011285D01*
X011860Y011331D01*
X011837Y011372D01*
X011803Y011405D01*
X011762Y011429D01*
X011716Y011441D01*
X011455Y011441D01*
X011455Y010985D01*
X011300Y010985D01*
X011300Y011441D01*
X011039Y011441D01*
X010993Y011429D01*
X010952Y011405D01*
X010919Y011372D01*
X010895Y011331D01*
X010883Y011285D01*
X010883Y010984D01*
X011300Y010984D01*
X011300Y010829D01*
X011455Y010829D01*
X011455Y010373D01*
X011716Y010373D01*
X011762Y010385D01*
X011803Y010408D01*
X011837Y010442D01*
X011860Y010483D01*
X011873Y010529D01*
X011873Y010829D01*
X011455Y010829D01*
X011455Y010718D02*
X011300Y010718D01*
X011300Y010829D02*
X011300Y010373D01*
X011039Y010373D01*
X010993Y010385D01*
X010952Y010408D01*
X010919Y010442D01*
X010895Y010483D01*
X010883Y010529D01*
X010883Y010829D01*
X011300Y010829D01*
X011300Y010877D02*
X010830Y010877D01*
X010830Y011035D02*
X010883Y011035D01*
X010883Y011194D02*
X010830Y011194D01*
X010812Y011352D02*
X010908Y011352D01*
X010858Y011669D02*
X010795Y011669D01*
X011300Y011352D02*
X011455Y011352D01*
X011455Y011194D02*
X011300Y011194D01*
X011300Y011035D02*
X011455Y011035D01*
X011873Y011035D02*
X012042Y011035D01*
X012042Y010933D02*
X012042Y011194D01*
X011873Y011194D01*
X011848Y011352D02*
X014868Y011352D01*
X015036Y011511D02*
X013136Y011511D01*
X013171Y011669D02*
X015036Y011669D01*
X015036Y011828D02*
X013171Y011828D01*
X013171Y011987D02*
X014934Y011987D01*
X014898Y012145D02*
X013171Y012145D01*
X013171Y012304D02*
X014924Y012304D01*
X015026Y012462D02*
X013081Y012462D01*
X012576Y011958D02*
X012378Y012157D01*
X011378Y012157D01*
X011378Y013106D01*
X011326Y013157D01*
X011826Y012907D02*
X011826Y013907D01*
X011326Y014407D01*
X010628Y014407D01*
X010576Y014458D01*
X010576Y015407D01*
X010946Y015633D02*
X011280Y015633D01*
X011282Y015792D02*
X010766Y015792D01*
X010620Y016267D02*
X010533Y016267D01*
X010120Y016267D02*
X010033Y016267D01*
X009620Y016267D02*
X009533Y016267D01*
X009396Y016109D02*
X012506Y016109D01*
X012506Y016267D02*
X012033Y016267D01*
X012326Y016426D02*
X012327Y016426D01*
X012326Y016584D02*
X012327Y016584D01*
X012326Y016743D02*
X012327Y016743D01*
X012326Y016901D02*
X012327Y016901D01*
X012326Y017060D02*
X012327Y017060D01*
X012326Y017218D02*
X012327Y017218D01*
X012326Y017377D02*
X012327Y017377D01*
X011525Y017853D02*
X010225Y017853D01*
X010383Y018011D02*
X011423Y018011D01*
X011398Y018170D02*
X010542Y018170D01*
X010700Y018328D02*
X010800Y018328D01*
X010576Y018657D02*
X011076Y018657D01*
X011376Y018962D02*
X011680Y018962D01*
X011541Y018804D02*
X011479Y018804D01*
X011505Y018645D02*
X011506Y018645D01*
X011506Y018487D02*
X011469Y018487D01*
X011434Y018328D02*
X011353Y018328D01*
X010576Y018657D02*
X009326Y017407D01*
X009326Y016877D01*
X009908Y017536D02*
X013913Y017536D01*
X013898Y017694D02*
X010066Y017694D01*
X009326Y018157D02*
X009326Y020437D01*
X008826Y020437D02*
X008826Y019157D01*
X008326Y018657D01*
X008146Y019046D02*
X008146Y019121D01*
X008146Y019046D02*
X008241Y019085D01*
X008302Y019085D01*
X008237Y019280D02*
X008497Y019280D01*
X008506Y019438D02*
X008255Y019438D01*
X008211Y019597D02*
X008506Y019597D01*
X008506Y019755D02*
X008084Y019755D01*
X007826Y019407D02*
X007826Y015157D01*
X007326Y014657D01*
X007326Y012407D01*
X007646Y012692D02*
X007646Y014018D01*
X007741Y013979D01*
X007912Y013979D01*
X008069Y014044D01*
X008189Y014164D01*
X008197Y014183D01*
X008306Y014183D01*
X008334Y014117D01*
X008401Y014050D01*
X008489Y014013D01*
X009164Y014013D01*
X009252Y014050D01*
X009076Y014503D02*
X008826Y014503D01*
X007923Y014503D01*
X007826Y014407D01*
X008073Y014048D02*
X008406Y014048D01*
X008392Y013255D02*
X007646Y013255D01*
X007646Y013413D02*
X008977Y013413D01*
X009135Y013572D02*
X007646Y013572D01*
X007646Y013731D02*
X009987Y013731D01*
X010122Y013889D02*
X007646Y013889D01*
X007646Y013096D02*
X008297Y013096D01*
X008297Y012938D02*
X007646Y012938D01*
X007646Y012779D02*
X008297Y012779D01*
X008297Y012621D02*
X007701Y012621D01*
X007689Y012649D02*
X007646Y012692D01*
X007689Y012649D02*
X007755Y012492D01*
X007755Y012322D01*
X007689Y012164D01*
X007569Y012044D01*
X007412Y011979D01*
X007241Y011979D01*
X007084Y012044D01*
X006964Y012164D01*
X006983Y012145D02*
X005896Y012145D01*
X005896Y011987D02*
X007222Y011987D01*
X007336Y011828D02*
X008434Y011828D01*
X008452Y011840D02*
X008010Y011840D01*
X007826Y011657D01*
X007826Y010157D01*
X007576Y009907D01*
X007576Y007907D01*
X007246Y008023D02*
X012161Y008023D01*
X012246Y008181D02*
X007246Y008181D01*
X007246Y008340D02*
X012256Y008340D01*
X012256Y008499D02*
X008209Y008499D01*
X007943Y008499D02*
X007246Y008499D01*
X007246Y008657D02*
X007721Y008657D01*
X007651Y008816D02*
X007246Y008816D01*
X007246Y008974D02*
X007648Y008974D01*
X007707Y009133D02*
X007246Y009133D01*
X007246Y009291D02*
X007886Y009291D01*
X007980Y009450D02*
X007246Y009450D01*
X007246Y009608D02*
X007946Y009608D01*
X007946Y009767D02*
X007246Y009767D01*
X007246Y009925D02*
X008006Y009925D01*
X008113Y010084D02*
X007335Y010084D01*
X007474Y010243D02*
X008344Y010243D01*
X008506Y010401D02*
X007540Y010401D01*
X007556Y010560D02*
X008429Y010560D01*
X008390Y010718D02*
X007556Y010718D01*
X007556Y010877D02*
X008390Y010877D01*
X008390Y011035D02*
X007556Y011035D01*
X007556Y011194D02*
X008390Y011194D01*
X008413Y011352D02*
X007556Y011352D01*
X007540Y011511D02*
X008084Y011511D01*
X008076Y011669D02*
X007475Y011669D01*
X007430Y011987D02*
X008076Y011987D01*
X008077Y012145D02*
X007670Y012145D01*
X007747Y012304D02*
X008852Y012304D01*
X008826Y012810D02*
X009372Y013356D01*
X010576Y013356D01*
X009826Y012907D02*
X009576Y012657D01*
X009576Y012216D01*
X009200Y011840D01*
X009726Y011557D02*
X010275Y012106D01*
X010275Y012157D01*
X010155Y011511D02*
X012017Y011511D01*
X011982Y011669D02*
X011897Y011669D01*
X011933Y011828D02*
X011982Y011828D01*
X012153Y011338D02*
X012112Y011315D01*
X012078Y011281D01*
X012054Y011240D01*
X012042Y011194D01*
X012153Y011338D02*
X012198Y011351D01*
X012499Y011351D01*
X012499Y010933D01*
X012499Y010778D01*
X012654Y010778D01*
X012654Y010361D01*
X012954Y010361D01*
X013000Y010373D01*
X013041Y010397D01*
X013075Y010430D01*
X013098Y010471D01*
X013111Y010517D01*
X013111Y010778D01*
X012654Y010778D01*
X012654Y010933D01*
X013111Y010933D01*
X013111Y011194D01*
X013392Y011194D01*
X013273Y011035D02*
X013111Y011035D01*
X013111Y011194D02*
X013098Y011240D01*
X013075Y011281D01*
X013041Y011315D01*
X013000Y011338D01*
X012954Y011351D01*
X012654Y011351D01*
X012654Y010933D01*
X012499Y010933D01*
X012042Y010933D01*
X012042Y010778D02*
X012042Y010517D01*
X012054Y010471D01*
X012078Y010430D01*
X012112Y010397D01*
X012153Y010373D01*
X012198Y010361D01*
X012499Y010361D01*
X012499Y010778D01*
X012042Y010778D01*
X012042Y010718D02*
X011873Y010718D01*
X011873Y010560D02*
X012042Y010560D01*
X012107Y010401D02*
X011790Y010401D01*
X011455Y010401D02*
X011300Y010401D01*
X011300Y010560D02*
X011455Y010560D01*
X012006Y009925D02*
X010663Y009925D01*
X010595Y010084D02*
X012113Y010084D01*
X012344Y010243D02*
X010595Y010243D01*
X010778Y010401D02*
X010965Y010401D01*
X010883Y010560D02*
X010830Y010560D01*
X010830Y010718D02*
X010883Y010718D01*
X010275Y010907D02*
X010275Y009708D01*
X010326Y009657D01*
X009949Y009450D02*
X009173Y009450D01*
X009206Y009608D02*
X009898Y009608D01*
X009909Y009767D02*
X009206Y009767D01*
X009147Y009925D02*
X009955Y009925D01*
X009955Y010084D02*
X009146Y010084D01*
X009146Y010243D02*
X009955Y010243D01*
X009772Y010401D02*
X009146Y010401D01*
X009224Y010560D02*
X009720Y010560D01*
X009720Y010718D02*
X009263Y010718D01*
X009263Y010877D02*
X009720Y010877D01*
X009720Y011035D02*
X009263Y011035D01*
X009263Y011194D02*
X009484Y011194D01*
X008826Y010974D02*
X008826Y009907D01*
X008576Y009657D01*
X008576Y009407D01*
X008076Y008907D01*
X008432Y008657D02*
X012256Y008657D01*
X012256Y008816D02*
X008502Y008816D01*
X008596Y008974D02*
X012256Y008974D01*
X012210Y009133D02*
X008943Y009133D01*
X009102Y009291D02*
X010090Y009291D01*
X010563Y009291D02*
X012051Y009291D01*
X011980Y009450D02*
X010704Y009450D01*
X010755Y009608D02*
X011946Y009608D01*
X011946Y009767D02*
X010744Y009767D01*
X012576Y009657D02*
X012576Y007907D01*
X013769Y009291D02*
X013884Y009291D01*
X013884Y009450D02*
X013769Y009450D01*
X013826Y009606D02*
X013826Y006157D01*
X014506Y006120D02*
X003896Y006120D01*
X003896Y005962D02*
X014506Y005962D01*
X014506Y005803D02*
X003896Y005803D01*
X003896Y005645D02*
X014506Y005645D01*
X014506Y005486D02*
X003896Y005486D01*
X003896Y005328D02*
X014434Y005328D01*
X014398Y005169D02*
X003896Y005169D01*
X003896Y005011D02*
X014424Y005011D01*
X014526Y004852D02*
X003896Y004852D01*
X003896Y004694D02*
X017256Y004694D01*
X017256Y004852D02*
X015127Y004852D01*
X015229Y005011D02*
X017256Y005011D01*
X017256Y005169D02*
X015255Y005169D01*
X015219Y005328D02*
X017256Y005328D01*
X017256Y005486D02*
X015146Y005486D01*
X015146Y005645D02*
X017256Y005645D01*
X017256Y005803D02*
X015146Y005803D01*
X015146Y005962D02*
X017256Y005962D01*
X017256Y006120D02*
X015146Y006120D01*
X015146Y006279D02*
X017256Y006279D01*
X017256Y006438D02*
X015146Y006438D01*
X015146Y006596D02*
X017256Y006596D01*
X017256Y006755D02*
X015146Y006755D01*
X015146Y006913D02*
X017256Y006913D01*
X017256Y007072D02*
X015146Y007072D01*
X015146Y007230D02*
X017256Y007230D01*
X017256Y007389D02*
X015146Y007389D01*
X015572Y007547D02*
X017256Y007547D01*
X017256Y007706D02*
X015707Y007706D01*
X015755Y007864D02*
X017256Y007864D01*
X017256Y008023D02*
X015742Y008023D01*
X015676Y008181D02*
X017256Y008181D01*
X017256Y008340D02*
X015676Y008340D01*
X015676Y008499D02*
X017179Y008499D01*
X017148Y008657D02*
X015676Y008657D01*
X015676Y008816D02*
X017179Y008816D01*
X017288Y008974D02*
X015676Y008974D01*
X015676Y009133D02*
X017148Y009133D01*
X017116Y009291D02*
X015676Y009291D01*
X015676Y009450D02*
X017116Y009450D01*
X017116Y009608D02*
X016012Y009608D01*
X016029Y009767D02*
X017116Y009767D01*
X017206Y009925D02*
X016029Y009925D01*
X016029Y010084D02*
X017131Y010084D01*
X017796Y010407D02*
X015356Y010407D01*
X015356Y012127D01*
X015326Y012157D01*
X015719Y011987D02*
X016222Y011987D01*
X016426Y011828D02*
X015676Y011828D01*
X015676Y011669D02*
X016426Y011669D01*
X016454Y011511D02*
X015676Y011511D01*
X015845Y011352D02*
X016565Y011352D01*
X016724Y011194D02*
X016017Y011194D01*
X016029Y011035D02*
X016882Y011035D01*
X017217Y010877D02*
X016029Y010877D01*
X015356Y010407D02*
X015356Y007937D01*
X015326Y007907D01*
X014506Y006913D02*
X007188Y006913D01*
X007255Y007072D02*
X007255Y007242D01*
X006926Y007257D02*
X006926Y010957D01*
X006906Y012304D02*
X005896Y012304D01*
X005896Y012462D02*
X006898Y012462D01*
X006952Y012621D02*
X005896Y012621D01*
X005896Y012779D02*
X007006Y012779D01*
X007006Y012938D02*
X005896Y012938D01*
X005896Y013096D02*
X007006Y013096D01*
X007006Y013255D02*
X005896Y013255D01*
X005896Y013413D02*
X007006Y013413D01*
X007006Y013572D02*
X005896Y013572D01*
X005896Y013731D02*
X007006Y013731D01*
X007006Y013889D02*
X005896Y013889D01*
X005896Y014048D02*
X007006Y014048D01*
X007006Y014206D02*
X005957Y014206D01*
X006005Y014365D02*
X007006Y014365D01*
X007006Y014523D02*
X005992Y014523D01*
X005907Y014682D02*
X007006Y014682D01*
X006562Y014840D02*
X005865Y014840D01*
X005974Y014999D02*
X006403Y014999D01*
X006331Y015157D02*
X006005Y015157D01*
X005974Y015316D02*
X006296Y015316D01*
X006296Y015474D02*
X005896Y015474D01*
X005896Y015633D02*
X006281Y015633D01*
X006236Y015792D02*
X005896Y015792D01*
X005896Y015950D02*
X006236Y015950D01*
X006236Y016109D02*
X005896Y016109D01*
X005896Y016267D02*
X006236Y016267D01*
X006236Y016426D02*
X005896Y016426D01*
X005896Y016584D02*
X006236Y016584D01*
X006236Y016743D02*
X005896Y016743D01*
X005896Y016901D02*
X006236Y016901D01*
X006236Y017060D02*
X005896Y017060D01*
X005896Y017218D02*
X006236Y017218D01*
X006236Y017377D02*
X005896Y017377D01*
X005896Y017536D02*
X006236Y017536D01*
X006236Y017694D02*
X005896Y017694D01*
X005896Y017853D02*
X006236Y017853D01*
X006236Y018011D02*
X005896Y018011D01*
X005896Y018170D02*
X006236Y018170D01*
X006236Y018328D02*
X005896Y018328D01*
X005969Y018487D02*
X006236Y018487D01*
X006236Y018645D02*
X006005Y018645D01*
X005979Y018804D02*
X006236Y018804D01*
X006236Y018962D02*
X005876Y018962D01*
X006236Y019121D02*
X005166Y019121D01*
X005166Y018962D02*
X005277Y018962D01*
X005174Y018804D02*
X005166Y018804D01*
X005576Y018657D02*
X005576Y015157D01*
X003256Y015633D02*
X002856Y015633D01*
X002856Y015792D02*
X003256Y015792D01*
X003256Y015950D02*
X002856Y015950D01*
X002856Y016109D02*
X003256Y016109D01*
X003256Y016267D02*
X002856Y016267D01*
X002793Y016426D02*
X003256Y016426D01*
X003256Y016584D02*
X002680Y016584D01*
X003576Y018157D02*
X003576Y004157D01*
X003926Y003901D02*
X017227Y003901D01*
X017153Y004059D02*
X003999Y004059D01*
X004005Y004218D02*
X017148Y004218D01*
X017204Y004376D02*
X003949Y004376D01*
X003896Y004535D02*
X017256Y004535D01*
X017576Y004157D02*
X017576Y008657D01*
X017974Y008816D02*
X018768Y008816D01*
X018756Y008974D02*
X017864Y008974D01*
X018005Y008657D02*
X018874Y008657D01*
X019032Y008499D02*
X017974Y008499D01*
X017896Y008340D02*
X019255Y008340D01*
X019326Y008657D02*
X019076Y008907D01*
X019076Y009606D01*
X018968Y009497D01*
X017796Y009497D01*
X017796Y010407D02*
X018098Y010708D01*
X019076Y010708D01*
X019599Y011194D02*
X020271Y011194D01*
X020271Y011352D02*
X018476Y011352D01*
X018476Y011194D02*
X018554Y011194D01*
X018482Y011035D02*
X018476Y011035D01*
X018476Y011511D02*
X018914Y011511D01*
X018711Y011669D02*
X018450Y011669D01*
X018648Y011828D02*
X017226Y011828D01*
X017226Y011987D02*
X018648Y011987D01*
X018631Y012145D02*
X018427Y012145D01*
X018520Y012304D02*
X018573Y012304D01*
X018573Y012462D02*
X018520Y012462D01*
X018103Y012462D02*
X017948Y012462D01*
X017948Y012579D02*
X017948Y012123D01*
X017687Y012123D01*
X017641Y012135D01*
X017600Y012158D01*
X017566Y012192D01*
X017543Y012233D01*
X017530Y012279D01*
X017530Y012579D01*
X017948Y012579D01*
X017948Y012621D02*
X017226Y012621D01*
X017226Y012779D02*
X017530Y012779D01*
X017530Y012938D02*
X017226Y012938D01*
X017226Y013096D02*
X017552Y013096D01*
X017255Y013572D02*
X017255Y013742D01*
X017194Y013889D02*
X018676Y013889D01*
X018676Y014048D02*
X017002Y014048D01*
X016890Y014365D02*
X018676Y014365D01*
X018676Y014206D02*
X016396Y014206D01*
X016396Y014048D02*
X016651Y014048D01*
X016459Y013889D02*
X016396Y013889D01*
X016396Y013731D02*
X016398Y013731D01*
X016396Y013413D02*
X016426Y013413D01*
X016426Y013255D02*
X016396Y013255D01*
X016396Y013096D02*
X016426Y013096D01*
X016426Y012938D02*
X016396Y012938D01*
X017226Y012462D02*
X017530Y012462D01*
X017530Y012304D02*
X017226Y012304D01*
X017226Y012145D02*
X017623Y012145D01*
X017948Y012145D02*
X018103Y012145D01*
X018103Y012304D02*
X017948Y012304D01*
X017948Y012779D02*
X018103Y012779D01*
X018103Y012938D02*
X017948Y012938D01*
X017948Y013096D02*
X018103Y013096D01*
X019076Y012606D02*
X019076Y011907D01*
X019239Y011511D02*
X020271Y011511D01*
X020271Y011669D02*
X019441Y011669D01*
X019505Y011828D02*
X020271Y011828D01*
X020271Y011987D02*
X019505Y011987D01*
X019625Y012145D02*
X020271Y012145D01*
X020271Y012304D02*
X019683Y012304D01*
X019683Y012462D02*
X020271Y012462D01*
X020271Y012621D02*
X019683Y012621D01*
X019683Y012779D02*
X020271Y012779D01*
X020271Y012938D02*
X019683Y012938D01*
X019667Y013096D02*
X020271Y013096D01*
X019128Y012657D02*
X019076Y012606D01*
X019671Y011035D02*
X020271Y011035D01*
X020271Y010877D02*
X019671Y010877D01*
X019671Y010718D02*
X020271Y010718D01*
X020271Y010560D02*
X019671Y010560D01*
X019671Y010401D02*
X020271Y010401D01*
X020271Y010243D02*
X019620Y010243D01*
X019607Y010084D02*
X020271Y010084D01*
X020271Y009925D02*
X019671Y009925D01*
X019671Y009767D02*
X020271Y009767D01*
X020271Y009608D02*
X019671Y009608D01*
X019671Y009450D02*
X020271Y009450D01*
X020271Y009291D02*
X019671Y009291D01*
X019612Y009133D02*
X020271Y009133D01*
X020271Y008974D02*
X019864Y008974D01*
X019974Y008816D02*
X020271Y008816D01*
X020271Y008657D02*
X020005Y008657D01*
X019974Y008499D02*
X020271Y008499D01*
X019576Y008657D02*
X019326Y008657D01*
X018541Y009133D02*
X018445Y009133D01*
X015356Y010407D02*
X015055Y010708D01*
X013826Y010708D01*
X013271Y010718D02*
X013111Y010718D01*
X013111Y010560D02*
X013271Y010560D01*
X013271Y010401D02*
X013046Y010401D01*
X012809Y010243D02*
X013362Y010243D01*
X013337Y009925D02*
X013147Y009925D01*
X013206Y009767D02*
X013331Y009767D01*
X013040Y010084D02*
X014683Y010084D01*
X014683Y009925D02*
X014316Y009925D01*
X014321Y009767D02*
X014683Y009767D01*
X014701Y009608D02*
X013884Y009608D01*
X013884Y009767D02*
X013769Y009767D01*
X013769Y009925D02*
X013884Y009925D01*
X014291Y010243D02*
X014683Y010243D01*
X014683Y011035D02*
X014380Y011035D01*
X014261Y011194D02*
X014696Y011194D01*
X013271Y010877D02*
X012654Y010877D01*
X012654Y011035D02*
X012499Y011035D01*
X012499Y011194D02*
X012654Y011194D01*
X012654Y010718D02*
X012499Y010718D01*
X012499Y010560D02*
X012654Y010560D01*
X012654Y010401D02*
X012499Y010401D01*
X014321Y009450D02*
X014514Y009450D01*
X014419Y009291D02*
X014317Y009291D01*
X014826Y009157D02*
X014826Y005157D01*
X014506Y006279D02*
X003896Y006279D01*
X003896Y006438D02*
X014506Y006438D01*
X014506Y006596D02*
X003896Y006596D01*
X003896Y006755D02*
X006679Y006755D01*
X006465Y006913D02*
X003896Y006913D01*
X003896Y007389D02*
X006459Y007389D01*
X006606Y007547D02*
X003896Y007547D01*
X003896Y008023D02*
X004919Y008023D01*
X004898Y008181D02*
X003896Y008181D01*
X003896Y008340D02*
X004939Y008340D01*
X005063Y008499D02*
X003896Y008499D01*
X003896Y008657D02*
X005256Y008657D01*
X005256Y008816D02*
X003896Y008816D01*
X003896Y008974D02*
X005256Y008974D01*
X006926Y007257D02*
X006826Y007157D01*
X006974Y006755D02*
X014506Y006755D01*
X018399Y002157D02*
X002754Y002157D01*
X002862Y002066D02*
X002862Y002066D01*
X002901Y001998D02*
X018252Y001998D01*
X018160Y001840D02*
X002993Y001840D01*
X003054Y001681D02*
X018099Y001681D01*
X018113Y001758D02*
X018113Y001758D01*
X018071Y001523D02*
X003082Y001523D01*
X003094Y001364D02*
X018058Y001364D01*
X018086Y001206D02*
X003066Y001206D01*
X003035Y001047D02*
X018118Y001047D01*
X018113Y001056D02*
X018113Y001056D01*
X018209Y000889D02*
X002943Y000889D01*
X002862Y000748D02*
X002862Y000748D01*
X002862Y000748D01*
X002841Y000730D02*
X018312Y000730D01*
X018501Y000571D02*
X002652Y000571D01*
X002589Y002295D02*
X002589Y002295D01*
X002533Y002315D02*
X018620Y002315D01*
X018898Y002417D02*
X018898Y002417D01*
X019076Y002417D02*
X019076Y002417D01*
X019132Y002417D02*
X019132Y002417D01*
X019533Y002315D02*
X020271Y002315D01*
X020271Y002157D02*
X019754Y002157D01*
X019862Y002066D02*
X019862Y002066D01*
X019901Y001998D02*
X020271Y001998D01*
X020271Y001840D02*
X019993Y001840D01*
X020040Y001758D02*
X020040Y001758D01*
X020054Y001681D02*
X020271Y001681D01*
X020271Y001523D02*
X020082Y001523D01*
X020102Y001407D02*
X020102Y001407D01*
X020094Y001364D02*
X020271Y001364D01*
X020271Y001206D02*
X020066Y001206D01*
X020035Y001047D02*
X020271Y001047D01*
X020271Y000889D02*
X019943Y000889D01*
X019862Y000748D02*
X019862Y000748D01*
X019862Y000748D01*
X019841Y000730D02*
X020271Y000730D01*
X020271Y000571D02*
X019652Y000571D01*
X018564Y000519D02*
X018564Y000519D01*
X019589Y002295D02*
X019589Y002295D01*
X018496Y003584D02*
X002512Y003584D01*
X001728Y003742D02*
X001066Y003742D01*
X001066Y003584D02*
X001641Y003584D01*
X001527Y003425D02*
X001066Y003425D01*
X001066Y003267D02*
X001466Y003267D01*
X001466Y003108D02*
X001066Y003108D01*
X001066Y002950D02*
X001502Y002950D01*
X001580Y002791D02*
X001066Y002791D01*
X001898Y002417D02*
X001898Y002417D01*
X002132Y002417D02*
X002132Y002417D01*
X001622Y003901D02*
X001066Y003901D01*
X001066Y004059D02*
X001566Y004059D01*
X001566Y004218D02*
X001066Y004218D01*
X001066Y004376D02*
X001607Y004376D01*
X001692Y004535D02*
X001066Y004535D01*
X001066Y004694D02*
X001677Y004694D01*
X001542Y004852D02*
X001066Y004852D01*
X001066Y005011D02*
X001477Y005011D01*
X001466Y005169D02*
X001066Y005169D01*
X001066Y005328D02*
X001487Y005328D01*
X001553Y005486D02*
X001066Y005486D01*
X001066Y005645D02*
X001702Y005645D01*
X001753Y005803D02*
X001066Y005803D01*
X001066Y005962D02*
X001661Y005962D01*
X001626Y006120D02*
X001066Y006120D01*
X001066Y006279D02*
X001639Y006279D01*
X001702Y006438D02*
X001066Y006438D01*
X001066Y006596D02*
X001836Y006596D01*
X001616Y006755D02*
X001066Y006755D01*
X001066Y006913D02*
X001517Y006913D01*
X001466Y007072D02*
X001066Y007072D01*
X001066Y007230D02*
X001466Y007230D01*
X001512Y007389D02*
X001066Y007389D01*
X001066Y007547D02*
X001604Y007547D01*
X001765Y007706D02*
X001066Y007706D01*
X001066Y007864D02*
X001637Y007864D01*
X001572Y008023D02*
X001066Y008023D01*
X001066Y008181D02*
X001566Y008181D01*
X001592Y008340D02*
X001066Y008340D01*
X001066Y008499D02*
X001658Y008499D01*
X001814Y008657D02*
X001066Y008657D01*
X001066Y008816D02*
X001901Y008816D01*
X001898Y008974D02*
X001066Y008974D01*
X001066Y009133D02*
X001957Y009133D01*
X002006Y009291D02*
X001066Y009291D01*
X001066Y009450D02*
X002006Y009450D01*
X002006Y009608D02*
X001066Y009608D01*
X001066Y009767D02*
X002006Y009767D01*
X002006Y009925D02*
X001066Y009925D01*
X001066Y010084D02*
X001818Y010084D01*
X001679Y010243D02*
X001066Y010243D01*
X001066Y010401D02*
X001613Y010401D01*
X001596Y010560D02*
X001066Y010560D01*
X001066Y010718D02*
X001596Y010718D01*
X001596Y010877D02*
X001066Y010877D01*
X001066Y011035D02*
X001596Y011035D01*
X001596Y011194D02*
X001066Y011194D01*
X001066Y011352D02*
X001596Y011352D01*
X001613Y011511D02*
X001066Y011511D01*
X001066Y011669D02*
X001678Y011669D01*
X001817Y011828D02*
X001066Y011828D01*
X001066Y011987D02*
X002756Y011987D01*
X002756Y012145D02*
X001066Y012145D01*
X001066Y012304D02*
X002756Y012304D01*
X002756Y012462D02*
X001066Y012462D01*
X001066Y012621D02*
X002756Y012621D01*
X002756Y012779D02*
X001066Y012779D01*
X001066Y012938D02*
X002756Y012938D01*
X002756Y013096D02*
X001066Y013096D01*
X001066Y013255D02*
X002756Y013255D01*
X002756Y013413D02*
X001066Y013413D01*
X001066Y013572D02*
X002756Y013572D01*
X002756Y013731D02*
X001066Y013731D01*
X001066Y013889D02*
X002756Y013889D01*
X002756Y014048D02*
X001066Y014048D01*
X001066Y014206D02*
X002756Y014206D01*
X002756Y014365D02*
X001066Y014365D01*
X001066Y014523D02*
X002756Y014523D01*
X002756Y011828D02*
X002636Y011828D01*
X002226Y010957D02*
X002326Y010857D01*
X002326Y008907D01*
X002756Y007963D02*
X002756Y005442D01*
X002714Y005399D01*
X002675Y005306D01*
X002594Y005502D01*
X002428Y005668D01*
X002465Y005686D01*
X002535Y005737D01*
X002596Y005799D01*
X002647Y005869D01*
X002686Y005946D01*
X002713Y006028D01*
X002726Y006114D01*
X002726Y006137D01*
X002197Y006137D01*
X002197Y006177D01*
X002726Y006177D01*
X002726Y006200D01*
X002713Y006286D01*
X002686Y006368D01*
X002647Y006445D01*
X002596Y006515D01*
X002535Y006576D01*
X002465Y006627D01*
X002428Y006646D01*
X002594Y006811D01*
X002686Y007035D01*
X002686Y007278D01*
X002594Y007502D01*
X002475Y007620D01*
X002522Y007640D01*
X002694Y007811D01*
X002756Y007963D01*
X002756Y007864D02*
X002716Y007864D01*
X002756Y007706D02*
X002588Y007706D01*
X002549Y007547D02*
X002756Y007547D01*
X002756Y007389D02*
X002641Y007389D01*
X002686Y007230D02*
X002756Y007230D01*
X002756Y007072D02*
X002686Y007072D01*
X002636Y006913D02*
X002756Y006913D01*
X002756Y006755D02*
X002537Y006755D01*
X002508Y006596D02*
X002756Y006596D01*
X002756Y006438D02*
X002651Y006438D01*
X002714Y006279D02*
X002756Y006279D01*
X002756Y006120D02*
X002726Y006120D01*
X002756Y005962D02*
X002691Y005962D01*
X002756Y005803D02*
X002599Y005803D01*
X002451Y005645D02*
X002756Y005645D01*
X002756Y005486D02*
X002600Y005486D01*
X002666Y005328D02*
X002684Y005328D01*
X007755Y012462D02*
X008318Y012462D01*
X008434Y012145D02*
X008471Y012145D01*
X008471Y011987D02*
X008434Y011987D01*
X009076Y014503D02*
X009076Y016157D01*
X008826Y016407D01*
X008826Y016877D01*
X010932Y015157D02*
X011280Y015157D01*
X011280Y015029D02*
X011293Y014983D01*
X011316Y014942D01*
X011350Y014908D01*
X011391Y014885D01*
X011437Y014873D01*
X011698Y014873D01*
X011698Y015329D01*
X011280Y015329D01*
X011280Y015029D01*
X011288Y014999D02*
X011013Y014999D01*
X011163Y014840D02*
X012448Y014840D01*
X012326Y014856D02*
X012326Y013407D01*
X011980Y014206D02*
X012756Y014206D01*
X012756Y014365D02*
X011821Y014365D01*
X011663Y014523D02*
X012756Y014523D01*
X012756Y014682D02*
X011499Y014682D01*
X011598Y014588D02*
X011598Y014588D01*
X011698Y014999D02*
X011853Y014999D01*
X011853Y015157D02*
X011698Y015157D01*
X011698Y015316D02*
X011853Y015316D01*
X011775Y015407D02*
X011826Y015458D01*
X011775Y015407D02*
X012326Y014856D01*
X012325Y014999D02*
X012262Y014999D01*
X012270Y015157D02*
X012323Y015157D01*
X012323Y015316D02*
X012270Y015316D01*
X011853Y015633D02*
X011698Y015633D01*
X011698Y015474D02*
X011005Y015474D01*
X011002Y015316D02*
X011280Y015316D01*
X011698Y015792D02*
X011853Y015792D01*
X011620Y016267D02*
X011533Y016267D01*
X011120Y016267D02*
X011033Y016267D01*
X013433Y015792D02*
X013470Y015792D01*
X013470Y015633D02*
X013433Y015633D01*
X013433Y015474D02*
X013470Y015474D01*
X013470Y015316D02*
X013433Y015316D01*
X013433Y015157D02*
X013470Y015157D01*
X013473Y014999D02*
X013430Y014999D01*
X013396Y014840D02*
X013595Y014840D01*
X013756Y014682D02*
X013396Y014682D01*
X013396Y014523D02*
X013756Y014523D01*
X013756Y014365D02*
X013396Y014365D01*
X013396Y014206D02*
X013825Y014206D01*
X013983Y014048D02*
X013485Y014048D01*
X013592Y013889D02*
X014142Y013889D01*
X014300Y013731D02*
X013641Y013731D01*
X013641Y013572D02*
X014459Y013572D01*
X014566Y013413D02*
X013587Y013413D01*
X013474Y013255D02*
X014679Y013255D01*
X014826Y013657D02*
X015076Y013657D01*
X014826Y013657D02*
X014076Y014407D01*
X014076Y015356D01*
X014025Y015407D01*
X014025Y015708D01*
X014491Y015950D02*
X015756Y015950D01*
X015756Y015792D02*
X015621Y015792D01*
X015623Y015633D02*
X015756Y015633D01*
X015756Y015474D02*
X015205Y015474D01*
X015205Y015316D02*
X015050Y015316D01*
X015050Y015157D02*
X015205Y015157D01*
X015205Y014999D02*
X015050Y014999D01*
X015050Y015633D02*
X015205Y015633D01*
X015205Y015792D02*
X015050Y015792D01*
X015033Y016267D02*
X015120Y016267D01*
X015671Y016426D02*
X015756Y016426D01*
X015756Y016584D02*
X015676Y016584D01*
X015676Y016743D02*
X015756Y016743D01*
X015756Y016901D02*
X015676Y016901D01*
X015676Y017060D02*
X015756Y017060D01*
X015756Y017218D02*
X015676Y017218D01*
X015651Y017377D02*
X015756Y017377D01*
X015756Y017536D02*
X014740Y017536D01*
X014755Y017694D02*
X015756Y017694D01*
X015756Y017853D02*
X014709Y017853D01*
X014646Y018011D02*
X015756Y018011D01*
X015611Y018170D02*
X014646Y018170D01*
X014646Y018328D02*
X015513Y018328D01*
X015506Y018487D02*
X014646Y018487D01*
X014646Y018645D02*
X015506Y018645D01*
X015506Y018804D02*
X014646Y018804D01*
X014646Y018962D02*
X015444Y018962D01*
X015398Y019121D02*
X014646Y019121D01*
X014646Y019280D02*
X015414Y019280D01*
X015502Y019438D02*
X014646Y019438D01*
X014646Y019597D02*
X017451Y019597D01*
X017609Y019755D02*
X014646Y019755D01*
X014326Y020437D02*
X014326Y017657D01*
X013826Y019157D02*
X013826Y020437D01*
X013327Y020548D02*
X013326Y020548D01*
X013326Y020706D02*
X013327Y020706D01*
X013326Y020865D02*
X013327Y020865D01*
X013146Y021024D02*
X013574Y021024D01*
X013304Y021182D02*
X016248Y021182D01*
X016170Y021341D02*
X014899Y021341D01*
X015121Y021499D02*
X016125Y021499D01*
X016366Y021024D02*
X015579Y021024D01*
X015676Y020865D02*
X016554Y020865D01*
X017016Y020865D02*
X017175Y020865D01*
X017175Y021024D02*
X017016Y021024D01*
X017016Y021182D02*
X017175Y021182D01*
X017175Y021341D02*
X017016Y021341D01*
X017016Y021499D02*
X017175Y021499D01*
X017175Y021975D02*
X017016Y021975D01*
X017016Y022133D02*
X017175Y022133D01*
X017175Y022292D02*
X017016Y022292D01*
X017016Y022450D02*
X017175Y022450D01*
X017175Y022609D02*
X017016Y022609D01*
X017539Y020706D02*
X015676Y020706D01*
X015676Y020548D02*
X017507Y020548D01*
X017507Y020389D02*
X015676Y020389D01*
X015676Y020231D02*
X017526Y020231D01*
X017568Y020072D02*
X015676Y020072D01*
X015641Y019914D02*
X017647Y019914D01*
X018265Y019280D02*
X020271Y019280D01*
X020271Y019121D02*
X018106Y019121D01*
X019589Y018795D02*
X019589Y018795D01*
X019768Y018645D02*
X020271Y018645D01*
X020271Y018487D02*
X019908Y018487D01*
X019862Y018566D02*
X019862Y018566D01*
X019999Y018328D02*
X020271Y018328D01*
X020271Y018170D02*
X020056Y018170D01*
X020040Y018258D02*
X020040Y018258D01*
X020084Y018011D02*
X020271Y018011D01*
X020271Y017853D02*
X020092Y017853D01*
X020102Y017907D02*
X020102Y017907D01*
X020064Y017694D02*
X020271Y017694D01*
X020271Y017536D02*
X020028Y017536D01*
X019937Y017377D02*
X020271Y017377D01*
X020271Y017218D02*
X019827Y017218D01*
X019862Y017248D02*
X019862Y017248D01*
X019862Y017248D01*
X019638Y017060D02*
X020271Y017060D01*
X018626Y015792D02*
X016896Y015792D01*
X016896Y015950D02*
X018467Y015950D01*
X018309Y016109D02*
X016896Y016109D01*
X016896Y016267D02*
X018150Y016267D01*
X017992Y016426D02*
X016896Y016426D01*
X016896Y016584D02*
X017833Y016584D01*
X017675Y016743D02*
X016896Y016743D01*
X016896Y016901D02*
X017516Y016901D01*
X017358Y017060D02*
X016896Y017060D01*
X016896Y017218D02*
X017221Y017218D01*
X016896Y015633D02*
X017908Y015633D01*
X018076Y015633D02*
X018077Y015633D01*
X018076Y015474D02*
X018077Y015474D01*
X018076Y015316D02*
X018077Y015316D01*
X018245Y015633D02*
X018563Y015633D01*
X018511Y015474D02*
X018470Y015474D01*
X017683Y015474D02*
X016896Y015474D01*
X016896Y015316D02*
X017597Y015316D01*
X017571Y015157D02*
X017571Y015117D01*
X017584Y015039D01*
X017608Y014963D01*
X015756Y014999D02*
X015614Y014999D01*
X015623Y015157D02*
X015756Y015157D01*
X015756Y015316D02*
X015623Y015316D01*
X014633Y015633D02*
X014580Y015633D01*
X014580Y015792D02*
X014634Y015792D01*
X014620Y016267D02*
X014533Y016267D01*
X011826Y019407D02*
X012326Y019907D01*
X012326Y020437D01*
X011826Y020437D02*
X011826Y021157D01*
X011576Y021407D01*
X011446Y021816D02*
X008070Y021816D01*
X007912Y021658D02*
X011222Y021658D01*
X011151Y021499D02*
X007753Y021499D01*
X007595Y021341D02*
X011148Y021341D01*
X011206Y021182D02*
X007436Y021182D01*
X007416Y021024D02*
X008574Y021024D01*
X008476Y020865D02*
X007416Y020865D01*
X007416Y020706D02*
X008476Y020706D01*
X008476Y020548D02*
X007416Y020548D01*
X007416Y020389D02*
X008476Y020389D01*
X008476Y020231D02*
X007416Y020231D01*
X007416Y020072D02*
X008476Y020072D01*
X008506Y019914D02*
X007416Y019914D01*
X007416Y019755D02*
X007569Y019755D01*
X007442Y019597D02*
X007416Y019597D01*
X006236Y019597D02*
X005166Y019597D01*
X005166Y019755D02*
X006236Y019755D01*
X006236Y019914D02*
X005166Y019914D01*
X005166Y020072D02*
X006236Y020072D01*
X006236Y020231D02*
X005166Y020231D01*
X005166Y020389D02*
X006236Y020389D01*
X006236Y020548D02*
X005166Y020548D01*
X005166Y020706D02*
X006236Y020706D01*
X006236Y020865D02*
X005166Y020865D01*
X005166Y021024D02*
X006236Y021024D01*
X006236Y021182D02*
X005166Y021182D01*
X005166Y021341D02*
X006236Y021341D01*
X006236Y021499D02*
X005166Y021499D01*
X005166Y021658D02*
X006292Y021658D01*
X006401Y021816D02*
X005166Y021816D01*
X005166Y021975D02*
X006560Y021975D01*
X006719Y022133D02*
X005166Y022133D01*
X005166Y022292D02*
X006877Y022292D01*
X007036Y022450D02*
X005204Y022450D01*
X005351Y022609D02*
X007194Y022609D01*
X007353Y022767D02*
X005417Y022767D01*
X005432Y022926D02*
X007511Y022926D01*
X007670Y023085D02*
X005432Y023085D01*
X005432Y023243D02*
X006421Y023243D01*
X006473Y023191D02*
X006712Y023092D01*
X006972Y023092D01*
X007212Y023191D01*
X007395Y023375D01*
X007495Y023614D01*
X007495Y024699D01*
X007395Y024939D01*
X007212Y025123D01*
X006972Y025222D01*
X006712Y025222D01*
X006473Y025123D01*
X006289Y024939D01*
X006190Y024699D01*
X006190Y023614D01*
X006289Y023375D01*
X006473Y023191D01*
X006278Y023402D02*
X005432Y023402D01*
X005472Y023560D02*
X006212Y023560D01*
X006190Y023719D02*
X005495Y023719D01*
X005495Y023877D02*
X006190Y023877D01*
X006190Y024036D02*
X005495Y024036D01*
X005495Y024194D02*
X006190Y024194D01*
X006190Y024353D02*
X005495Y024353D01*
X005495Y024511D02*
X006190Y024511D01*
X006190Y024670D02*
X005495Y024670D01*
X005441Y024829D02*
X006243Y024829D01*
X006337Y024987D02*
X005347Y024987D01*
X005156Y025146D02*
X006528Y025146D01*
X007156Y025146D02*
X008497Y025146D01*
X008306Y024987D02*
X007347Y024987D01*
X007441Y024829D02*
X008212Y024829D01*
X008158Y024670D02*
X007495Y024670D01*
X007495Y024511D02*
X008158Y024511D01*
X008158Y024353D02*
X007495Y024353D01*
X007495Y024194D02*
X008158Y024194D01*
X008158Y024036D02*
X007495Y024036D01*
X007495Y023877D02*
X008158Y023877D01*
X008158Y023719D02*
X007495Y023719D01*
X007472Y023560D02*
X008145Y023560D01*
X007987Y023402D02*
X007406Y023402D01*
X007264Y023243D02*
X007828Y023243D01*
X008546Y022292D02*
X012506Y022292D01*
X012506Y022450D02*
X008704Y022450D01*
X008863Y022609D02*
X012506Y022609D01*
X012506Y022767D02*
X012176Y022767D01*
X012174Y022767D02*
X012262Y022803D01*
X012330Y022871D01*
X012366Y022959D01*
X012366Y023355D01*
X012330Y023443D01*
X012262Y023510D01*
X012174Y023547D01*
X011479Y023547D01*
X011390Y023510D01*
X011323Y023443D01*
X011286Y023355D01*
X011286Y022959D01*
X011323Y022871D01*
X011390Y022803D01*
X011479Y022767D01*
X012174Y022767D01*
X012353Y022926D02*
X012506Y022926D01*
X012506Y023085D02*
X012366Y023085D01*
X012366Y023243D02*
X012506Y023243D01*
X012506Y023402D02*
X012347Y023402D01*
X012506Y023560D02*
X009441Y023560D01*
X009463Y023719D02*
X012506Y023719D01*
X012506Y023877D02*
X009463Y023877D01*
X009463Y024036D02*
X012506Y024036D01*
X012506Y024194D02*
X009463Y024194D01*
X009463Y024353D02*
X011341Y024353D01*
X011323Y024371D02*
X011390Y024303D01*
X011479Y024267D01*
X012174Y024267D01*
X012262Y024303D01*
X012330Y024371D01*
X012366Y024459D01*
X012366Y024855D01*
X012330Y024943D01*
X012262Y025010D01*
X012174Y025047D01*
X011479Y025047D01*
X011390Y025010D01*
X011323Y024943D01*
X011286Y024855D01*
X011286Y024459D01*
X011323Y024371D01*
X011286Y024511D02*
X009463Y024511D01*
X009463Y024670D02*
X011286Y024670D01*
X011286Y024829D02*
X009410Y024829D01*
X009316Y024987D02*
X011367Y024987D01*
X012286Y024987D02*
X013367Y024987D01*
X013326Y024657D02*
X013826Y024657D01*
X014025Y024458D01*
X015326Y024458D01*
X015921Y024511D02*
X020271Y024511D01*
X020271Y024353D02*
X015921Y024353D01*
X015921Y024670D02*
X020271Y024670D01*
X020271Y024829D02*
X015918Y024829D01*
X015791Y024987D02*
X020271Y024987D01*
X020271Y025146D02*
X009125Y025146D01*
X009401Y023402D02*
X011306Y023402D01*
X011286Y023243D02*
X009388Y023243D01*
X009322Y023085D02*
X011286Y023085D01*
X011300Y022926D02*
X009180Y022926D01*
X009021Y022767D02*
X011477Y022767D01*
X011707Y021816D02*
X012196Y021816D01*
X011972Y021658D02*
X011931Y021658D01*
X012326Y021407D02*
X012826Y021907D01*
X012826Y024157D01*
X013326Y024657D01*
X013046Y024829D02*
X012366Y024829D01*
X012366Y024670D02*
X012887Y024670D01*
X012729Y024511D02*
X012366Y024511D01*
X012312Y024353D02*
X012570Y024353D01*
X013146Y024024D02*
X013415Y024293D01*
X013479Y024267D01*
X013764Y024267D01*
X013844Y024187D01*
X013962Y024138D01*
X014732Y024138D01*
X014732Y024095D01*
X014769Y024007D01*
X014836Y023940D01*
X014915Y023907D01*
X014836Y023874D01*
X014769Y023807D01*
X014732Y023718D01*
X014732Y022993D01*
X014769Y022905D01*
X014836Y022837D01*
X014924Y022801D01*
X015006Y022801D01*
X015006Y022289D01*
X014694Y021977D01*
X013263Y021977D01*
X013146Y021929D01*
X013146Y024024D01*
X013158Y024036D02*
X014757Y024036D01*
X014844Y023877D02*
X013146Y023877D01*
X013146Y023719D02*
X014732Y023719D01*
X014732Y023560D02*
X013146Y023560D01*
X013146Y023402D02*
X013373Y023402D01*
X013382Y023417D02*
X013359Y023376D01*
X013346Y023331D01*
X013346Y023157D01*
X013826Y023157D01*
X013826Y023157D01*
X013826Y023487D01*
X013503Y023487D01*
X013457Y023475D01*
X013416Y023451D01*
X013382Y023417D01*
X013346Y023243D02*
X013146Y023243D01*
X013146Y023085D02*
X013346Y023085D01*
X013346Y023157D02*
X013346Y022983D01*
X013359Y022937D01*
X013382Y022896D01*
X013416Y022863D01*
X013457Y022839D01*
X013503Y022827D01*
X013826Y022827D01*
X013826Y023156D01*
X013827Y023156D01*
X013827Y022827D01*
X014150Y022827D01*
X014196Y022839D01*
X014237Y022863D01*
X014270Y022896D01*
X014294Y022937D01*
X014306Y022983D01*
X014306Y023157D01*
X014306Y023331D01*
X014294Y023376D01*
X014270Y023417D01*
X014237Y023451D01*
X014196Y023475D01*
X014150Y023487D01*
X013827Y023487D01*
X013827Y023157D01*
X014306Y023157D01*
X013827Y023157D01*
X013827Y023157D01*
X013826Y023157D01*
X013346Y023157D01*
X013365Y022926D02*
X013146Y022926D01*
X013146Y022767D02*
X015006Y022767D01*
X015006Y022609D02*
X013146Y022609D01*
X013146Y022450D02*
X015006Y022450D01*
X015006Y022292D02*
X013146Y022292D01*
X013146Y022133D02*
X014850Y022133D01*
X014760Y022926D02*
X014288Y022926D01*
X014306Y023085D02*
X014732Y023085D01*
X014732Y023243D02*
X014306Y023243D01*
X014280Y023402D02*
X014732Y023402D01*
X013827Y023402D02*
X013826Y023402D01*
X013826Y023243D02*
X013827Y023243D01*
X013826Y023157D02*
X013826Y022657D01*
X013326Y022157D01*
X013258Y021975D02*
X013146Y021975D01*
X012506Y022133D02*
X008387Y022133D01*
X008229Y021975D02*
X012442Y021975D01*
X013826Y022926D02*
X013827Y022926D01*
X013826Y023085D02*
X013827Y023085D01*
X013836Y024194D02*
X013316Y024194D01*
X014366Y024829D02*
X014735Y024829D01*
X014862Y024987D02*
X014286Y024987D01*
X011826Y019407D02*
X011326Y019407D01*
X006236Y019438D02*
X005166Y019438D01*
X005166Y019280D02*
X006236Y019280D01*
X003986Y019280D02*
X003609Y019280D01*
X003683Y019438D02*
X003986Y019438D01*
X003986Y019597D02*
X003683Y019597D01*
X003683Y019755D02*
X003986Y019755D01*
X003986Y019914D02*
X003683Y019914D01*
X003683Y020072D02*
X003986Y020072D01*
X003986Y020231D02*
X003673Y020231D01*
X003914Y020389D02*
X003986Y020389D01*
X003986Y020865D02*
X003954Y020865D01*
X003986Y021024D02*
X003810Y021024D01*
X003986Y021182D02*
X002592Y021182D01*
X002588Y021024D02*
X003343Y021024D01*
X003199Y020865D02*
X002460Y020865D01*
X002396Y020706D02*
X003148Y020706D01*
X003015Y020548D02*
X002396Y020548D01*
X002416Y020389D02*
X002736Y020389D01*
X002582Y020231D02*
X002571Y020231D01*
X002076Y019858D02*
X002076Y021316D01*
X002592Y021341D02*
X003986Y021341D01*
X003986Y021499D02*
X002592Y021499D01*
X002568Y021658D02*
X003986Y021658D01*
X003986Y021816D02*
X001066Y021816D01*
X001066Y021658D02*
X001585Y021658D01*
X001561Y021499D02*
X001066Y021499D01*
X001066Y021341D02*
X001561Y021341D01*
X001561Y021182D02*
X001066Y021182D01*
X001066Y021024D02*
X001564Y021024D01*
X001693Y020865D02*
X001066Y020865D01*
X001066Y020706D02*
X001756Y020706D01*
X001756Y020548D02*
X001066Y020548D01*
X001066Y020389D02*
X001634Y020389D01*
X001479Y020231D02*
X001066Y020231D01*
X001066Y020072D02*
X001470Y020072D01*
X001470Y019914D02*
X001066Y019914D01*
X001066Y019755D02*
X001470Y019755D01*
X001470Y019597D02*
X001066Y019597D01*
X001066Y019438D02*
X001470Y019438D01*
X001544Y019280D02*
X001066Y019280D01*
X001066Y019121D02*
X003986Y019121D01*
X003986Y018962D02*
X001066Y018962D01*
X001066Y018804D02*
X003986Y018804D01*
X003128Y019807D02*
X003128Y020208D01*
X003576Y020657D01*
X003576Y021407D02*
X003576Y021657D01*
X002826Y022407D01*
X002167Y022407D01*
X002076Y022497D01*
X002038Y022459D02*
X002115Y022459D01*
X002115Y022536D01*
X002038Y022536D01*
X002038Y022914D01*
X001777Y022914D01*
X001731Y022901D01*
X001690Y022878D01*
X001657Y022844D01*
X001633Y022803D01*
X001621Y022757D01*
X001621Y022536D01*
X002038Y022536D01*
X002038Y022459D01*
X001621Y022459D01*
X001621Y022237D01*
X001633Y022192D01*
X001657Y022151D01*
X001690Y022117D01*
X001731Y022093D01*
X001777Y022081D01*
X002038Y022081D01*
X002038Y022459D01*
X002038Y022450D02*
X002115Y022450D01*
X002115Y022459D02*
X002115Y022081D01*
X002376Y022081D01*
X002421Y022093D01*
X002463Y022117D01*
X002496Y022151D01*
X002520Y022192D01*
X002532Y022237D01*
X002532Y022459D01*
X002115Y022459D01*
X002115Y022536D02*
X002532Y022536D01*
X002532Y022757D01*
X002520Y022803D01*
X002496Y022844D01*
X002463Y022878D01*
X002421Y022901D01*
X002376Y022914D01*
X002115Y022914D01*
X002115Y022536D01*
X002115Y022609D02*
X002038Y022609D01*
X002038Y022767D02*
X002115Y022767D01*
X002529Y022767D02*
X003986Y022767D01*
X003986Y022609D02*
X002532Y022609D01*
X002532Y022450D02*
X003986Y022450D01*
X003986Y022292D02*
X002532Y022292D01*
X002479Y022133D02*
X003986Y022133D01*
X003986Y021975D02*
X001066Y021975D01*
X001066Y022133D02*
X001674Y022133D01*
X001621Y022292D02*
X001066Y022292D01*
X001066Y022450D02*
X001621Y022450D01*
X001621Y022609D02*
X001066Y022609D01*
X001066Y022767D02*
X001624Y022767D01*
X001066Y022926D02*
X004049Y022926D01*
X004170Y023085D02*
X001066Y023085D01*
X001066Y023243D02*
X004252Y023243D01*
X004252Y023402D02*
X002268Y023402D01*
X002132Y023397D02*
X002132Y023397D01*
X001885Y023402D02*
X001066Y023402D01*
X001066Y023560D02*
X001514Y023560D01*
X001564Y023519D02*
X001564Y023519D01*
X001325Y023719D02*
X001066Y023719D01*
X001066Y023877D02*
X001216Y023877D01*
X001124Y024036D02*
X001066Y024036D01*
X001113Y024056D02*
X001113Y024056D01*
X001088Y024194D02*
X001066Y024194D01*
X001066Y024511D02*
X001069Y024511D01*
X001066Y024670D02*
X001097Y024670D01*
X001066Y024829D02*
X001154Y024829D01*
X001066Y024987D02*
X001245Y024987D01*
X001291Y025066D02*
X001291Y025066D01*
X001386Y025146D02*
X001066Y025146D01*
X001066Y025304D02*
X001589Y025304D01*
X001898Y025417D02*
X001898Y025417D01*
X002132Y025417D02*
X002132Y025417D01*
X002564Y025304D02*
X020271Y025304D01*
X020271Y025463D02*
X001066Y025463D01*
X002589Y025295D02*
X002589Y025295D01*
X002767Y025146D02*
X004528Y025146D01*
X004337Y024987D02*
X002908Y024987D01*
X002862Y025066D02*
X002862Y025066D01*
X002999Y024829D02*
X004243Y024829D01*
X004190Y024670D02*
X003056Y024670D01*
X003040Y024758D02*
X003040Y024758D01*
X003084Y024511D02*
X004190Y024511D01*
X004190Y024353D02*
X003092Y024353D01*
X003102Y024407D02*
X003102Y024407D01*
X003064Y024194D02*
X004190Y024194D01*
X004190Y024036D02*
X003028Y024036D01*
X002937Y023877D02*
X004190Y023877D01*
X004190Y023719D02*
X002828Y023719D01*
X002862Y023748D02*
X002862Y023748D01*
X002862Y023748D01*
X002639Y023560D02*
X004212Y023560D01*
X002115Y022292D02*
X002038Y022292D01*
X002038Y022133D02*
X002115Y022133D01*
X002076Y019858D02*
X002025Y019807D01*
X002507Y019280D02*
X002646Y019280D01*
X019250Y022609D02*
X020271Y022609D01*
X020271Y022767D02*
X019385Y022767D01*
X019473Y022926D02*
X020271Y022926D01*
X020271Y023085D02*
X019527Y023085D01*
X019553Y023243D02*
X020271Y023243D01*
D32*
X008811Y023391D02*
X008811Y024157D01*
X008811Y023391D02*
X006826Y021407D01*
X006826Y015857D01*
X006926Y015757D01*
X004576Y010157D02*
X004576Y022657D01*
X004842Y022923D01*
X004842Y024157D01*
M02*
