G75*
G70*
%OFA0B0*%
%FSLAX24Y24*%
%IPPOS*%
%LPD*%
%AMOC8*
5,1,8,0,0,1.08239X$1,22.5*
%
%ADD10C,0.0000*%
D10*
X000826Y000188D02*
X000826Y025779D01*
X020511Y025779D01*
X020511Y000188D01*
X000826Y000188D01*
X001426Y001407D02*
X001428Y001457D01*
X001434Y001507D01*
X001444Y001557D01*
X001457Y001605D01*
X001474Y001653D01*
X001495Y001699D01*
X001519Y001743D01*
X001547Y001785D01*
X001578Y001825D01*
X001612Y001862D01*
X001649Y001897D01*
X001688Y001928D01*
X001729Y001957D01*
X001773Y001982D01*
X001819Y002004D01*
X001866Y002022D01*
X001914Y002036D01*
X001963Y002047D01*
X002013Y002054D01*
X002063Y002057D01*
X002114Y002056D01*
X002164Y002051D01*
X002214Y002042D01*
X002262Y002030D01*
X002310Y002013D01*
X002356Y001993D01*
X002401Y001970D01*
X002444Y001943D01*
X002484Y001913D01*
X002522Y001880D01*
X002557Y001844D01*
X002590Y001805D01*
X002619Y001764D01*
X002645Y001721D01*
X002668Y001676D01*
X002687Y001629D01*
X002702Y001581D01*
X002714Y001532D01*
X002722Y001482D01*
X002726Y001432D01*
X002726Y001382D01*
X002722Y001332D01*
X002714Y001282D01*
X002702Y001233D01*
X002687Y001185D01*
X002668Y001138D01*
X002645Y001093D01*
X002619Y001050D01*
X002590Y001009D01*
X002557Y000970D01*
X002522Y000934D01*
X002484Y000901D01*
X002444Y000871D01*
X002401Y000844D01*
X002356Y000821D01*
X002310Y000801D01*
X002262Y000784D01*
X002214Y000772D01*
X002164Y000763D01*
X002114Y000758D01*
X002063Y000757D01*
X002013Y000760D01*
X001963Y000767D01*
X001914Y000778D01*
X001866Y000792D01*
X001819Y000810D01*
X001773Y000832D01*
X001729Y000857D01*
X001688Y000886D01*
X001649Y000917D01*
X001612Y000952D01*
X001578Y000989D01*
X001547Y001029D01*
X001519Y001071D01*
X001495Y001115D01*
X001474Y001161D01*
X001457Y001209D01*
X001444Y001257D01*
X001434Y001307D01*
X001428Y001357D01*
X001426Y001407D01*
X018426Y001407D02*
X018428Y001457D01*
X018434Y001507D01*
X018444Y001557D01*
X018457Y001605D01*
X018474Y001653D01*
X018495Y001699D01*
X018519Y001743D01*
X018547Y001785D01*
X018578Y001825D01*
X018612Y001862D01*
X018649Y001897D01*
X018688Y001928D01*
X018729Y001957D01*
X018773Y001982D01*
X018819Y002004D01*
X018866Y002022D01*
X018914Y002036D01*
X018963Y002047D01*
X019013Y002054D01*
X019063Y002057D01*
X019114Y002056D01*
X019164Y002051D01*
X019214Y002042D01*
X019262Y002030D01*
X019310Y002013D01*
X019356Y001993D01*
X019401Y001970D01*
X019444Y001943D01*
X019484Y001913D01*
X019522Y001880D01*
X019557Y001844D01*
X019590Y001805D01*
X019619Y001764D01*
X019645Y001721D01*
X019668Y001676D01*
X019687Y001629D01*
X019702Y001581D01*
X019714Y001532D01*
X019722Y001482D01*
X019726Y001432D01*
X019726Y001382D01*
X019722Y001332D01*
X019714Y001282D01*
X019702Y001233D01*
X019687Y001185D01*
X019668Y001138D01*
X019645Y001093D01*
X019619Y001050D01*
X019590Y001009D01*
X019557Y000970D01*
X019522Y000934D01*
X019484Y000901D01*
X019444Y000871D01*
X019401Y000844D01*
X019356Y000821D01*
X019310Y000801D01*
X019262Y000784D01*
X019214Y000772D01*
X019164Y000763D01*
X019114Y000758D01*
X019063Y000757D01*
X019013Y000760D01*
X018963Y000767D01*
X018914Y000778D01*
X018866Y000792D01*
X018819Y000810D01*
X018773Y000832D01*
X018729Y000857D01*
X018688Y000886D01*
X018649Y000917D01*
X018612Y000952D01*
X018578Y000989D01*
X018547Y001029D01*
X018519Y001071D01*
X018495Y001115D01*
X018474Y001161D01*
X018457Y001209D01*
X018444Y001257D01*
X018434Y001307D01*
X018428Y001357D01*
X018426Y001407D01*
X018426Y017907D02*
X018428Y017957D01*
X018434Y018007D01*
X018444Y018057D01*
X018457Y018105D01*
X018474Y018153D01*
X018495Y018199D01*
X018519Y018243D01*
X018547Y018285D01*
X018578Y018325D01*
X018612Y018362D01*
X018649Y018397D01*
X018688Y018428D01*
X018729Y018457D01*
X018773Y018482D01*
X018819Y018504D01*
X018866Y018522D01*
X018914Y018536D01*
X018963Y018547D01*
X019013Y018554D01*
X019063Y018557D01*
X019114Y018556D01*
X019164Y018551D01*
X019214Y018542D01*
X019262Y018530D01*
X019310Y018513D01*
X019356Y018493D01*
X019401Y018470D01*
X019444Y018443D01*
X019484Y018413D01*
X019522Y018380D01*
X019557Y018344D01*
X019590Y018305D01*
X019619Y018264D01*
X019645Y018221D01*
X019668Y018176D01*
X019687Y018129D01*
X019702Y018081D01*
X019714Y018032D01*
X019722Y017982D01*
X019726Y017932D01*
X019726Y017882D01*
X019722Y017832D01*
X019714Y017782D01*
X019702Y017733D01*
X019687Y017685D01*
X019668Y017638D01*
X019645Y017593D01*
X019619Y017550D01*
X019590Y017509D01*
X019557Y017470D01*
X019522Y017434D01*
X019484Y017401D01*
X019444Y017371D01*
X019401Y017344D01*
X019356Y017321D01*
X019310Y017301D01*
X019262Y017284D01*
X019214Y017272D01*
X019164Y017263D01*
X019114Y017258D01*
X019063Y017257D01*
X019013Y017260D01*
X018963Y017267D01*
X018914Y017278D01*
X018866Y017292D01*
X018819Y017310D01*
X018773Y017332D01*
X018729Y017357D01*
X018688Y017386D01*
X018649Y017417D01*
X018612Y017452D01*
X018578Y017489D01*
X018547Y017529D01*
X018519Y017571D01*
X018495Y017615D01*
X018474Y017661D01*
X018457Y017709D01*
X018444Y017757D01*
X018434Y017807D01*
X018428Y017857D01*
X018426Y017907D01*
X001426Y024407D02*
X001428Y024457D01*
X001434Y024507D01*
X001444Y024557D01*
X001457Y024605D01*
X001474Y024653D01*
X001495Y024699D01*
X001519Y024743D01*
X001547Y024785D01*
X001578Y024825D01*
X001612Y024862D01*
X001649Y024897D01*
X001688Y024928D01*
X001729Y024957D01*
X001773Y024982D01*
X001819Y025004D01*
X001866Y025022D01*
X001914Y025036D01*
X001963Y025047D01*
X002013Y025054D01*
X002063Y025057D01*
X002114Y025056D01*
X002164Y025051D01*
X002214Y025042D01*
X002262Y025030D01*
X002310Y025013D01*
X002356Y024993D01*
X002401Y024970D01*
X002444Y024943D01*
X002484Y024913D01*
X002522Y024880D01*
X002557Y024844D01*
X002590Y024805D01*
X002619Y024764D01*
X002645Y024721D01*
X002668Y024676D01*
X002687Y024629D01*
X002702Y024581D01*
X002714Y024532D01*
X002722Y024482D01*
X002726Y024432D01*
X002726Y024382D01*
X002722Y024332D01*
X002714Y024282D01*
X002702Y024233D01*
X002687Y024185D01*
X002668Y024138D01*
X002645Y024093D01*
X002619Y024050D01*
X002590Y024009D01*
X002557Y023970D01*
X002522Y023934D01*
X002484Y023901D01*
X002444Y023871D01*
X002401Y023844D01*
X002356Y023821D01*
X002310Y023801D01*
X002262Y023784D01*
X002214Y023772D01*
X002164Y023763D01*
X002114Y023758D01*
X002063Y023757D01*
X002013Y023760D01*
X001963Y023767D01*
X001914Y023778D01*
X001866Y023792D01*
X001819Y023810D01*
X001773Y023832D01*
X001729Y023857D01*
X001688Y023886D01*
X001649Y023917D01*
X001612Y023952D01*
X001578Y023989D01*
X001547Y024029D01*
X001519Y024071D01*
X001495Y024115D01*
X001474Y024161D01*
X001457Y024209D01*
X001444Y024257D01*
X001434Y024307D01*
X001428Y024357D01*
X001426Y024407D01*
M02*
