G75*
G70*
%OFA0B0*%
%FSLAX24Y24*%
%IPPOS*%
%LPD*%
%AMOC8*
5,1,8,0,0,1.08239X$1,22.5*
%
%ADD10C,0.0740*%
%ADD11C,0.0650*%
%ADD12R,0.0650X0.0650*%
%ADD13C,0.1660*%
%ADD14C,0.1620*%
%ADD15C,0.0780*%
%ADD16C,0.0780*%
%ADD17C,0.0740*%
%ADD18C,0.0825*%
%ADD19C,0.0376*%
%ADD20C,0.0320*%
%ADD21C,0.0160*%
%ADD22C,0.0700*%
D10*
X018706Y004157D02*
X019446Y004157D01*
X019446Y005157D02*
X018706Y005157D01*
X018706Y006157D02*
X019446Y006157D01*
X019446Y007157D02*
X018706Y007157D01*
D11*
X015076Y013657D03*
X013076Y013657D03*
X018076Y015157D03*
D12*
X019076Y015157D03*
D13*
X018576Y020443D03*
D14*
X017096Y021694D03*
X018566Y023325D03*
D15*
X012576Y009657D03*
X008576Y009657D03*
D16*
X006926Y010567D02*
X006926Y011347D01*
X004576Y010547D02*
X004576Y009767D01*
X002226Y010567D02*
X002226Y011347D01*
X002226Y015367D02*
X002226Y016147D01*
X006926Y016147D02*
X006926Y015367D01*
D17*
X002176Y008157D03*
X002076Y007157D03*
X002176Y006157D03*
X002076Y005157D03*
X002176Y004157D03*
X002076Y003157D03*
D18*
X004842Y023744D02*
X004842Y024569D01*
X006842Y024569D02*
X006842Y023744D01*
X008811Y023744D02*
X008811Y024569D01*
D19*
X011576Y021407D03*
X012326Y021407D03*
X013326Y022157D03*
X011326Y019407D03*
X011076Y018657D03*
X011826Y018157D03*
X012326Y016157D03*
X010576Y015407D03*
X011326Y013157D03*
X011826Y012907D03*
X009826Y012907D03*
X009726Y011557D03*
X010326Y009657D03*
X011326Y007907D03*
X012576Y007907D03*
X013826Y006157D03*
X014826Y005157D03*
X015326Y007907D03*
X014826Y009157D03*
X015326Y012157D03*
X016326Y012407D03*
X016826Y013657D03*
X016576Y014657D03*
X015576Y016157D03*
X016576Y017657D03*
X015826Y019157D03*
X014326Y017657D03*
X013826Y019157D03*
X009326Y018157D03*
X008326Y018657D03*
X007826Y019407D03*
X005576Y018657D03*
X003576Y018157D03*
X003576Y020657D03*
X003576Y021407D03*
X003076Y015157D03*
X005576Y015157D03*
X005576Y014407D03*
X007326Y012407D03*
X007826Y014407D03*
X008076Y008907D03*
X007576Y007907D03*
X006826Y007157D03*
X005326Y008157D03*
X003076Y005157D03*
X003576Y004157D03*
X002326Y008907D03*
X017576Y008657D03*
X019576Y008657D03*
X019076Y011907D03*
X019076Y013657D03*
X017576Y004157D03*
D20*
X016826Y013657D02*
X019076Y013657D01*
D21*
X001066Y024319D02*
X001066Y001495D01*
X001113Y001758D01*
X001113Y001758D01*
X001291Y002066D01*
X001291Y002066D01*
X001564Y002295D01*
X001564Y002295D01*
X001898Y002417D01*
X001898Y002417D01*
X002021Y002417D01*
X002021Y002417D01*
X002075Y002417D01*
X002076Y002417D01*
X002132Y002417D01*
X002132Y002417D01*
X002254Y002417D01*
X002255Y002417D01*
X002589Y002295D01*
X002589Y002295D01*
X002862Y002066D01*
X002862Y002066D01*
X003040Y001758D01*
X003040Y001758D01*
X003102Y001407D01*
X003102Y001407D01*
X003040Y001056D01*
X003040Y001056D01*
X002862Y000748D01*
X002862Y000748D01*
X002862Y000748D01*
X002589Y000519D01*
X002589Y000519D01*
X002341Y000428D01*
X018812Y000428D01*
X018564Y000519D01*
X018564Y000519D01*
X018291Y000748D01*
X018291Y000748D01*
X018113Y001056D01*
X018113Y001056D01*
X018051Y001407D01*
X018051Y001407D01*
X018113Y001758D01*
X018113Y001758D01*
X018291Y002066D01*
X018291Y002066D01*
X018564Y002295D01*
X018564Y002295D01*
X018898Y002417D01*
X018898Y002417D01*
X019021Y002417D01*
X019021Y002417D01*
X019074Y002417D01*
X019076Y002417D01*
X019132Y002417D01*
X019132Y002417D01*
X019254Y002417D01*
X019255Y002417D01*
X019589Y002295D01*
X019589Y002295D01*
X019862Y002066D01*
X020040Y001758D01*
X020040Y001758D01*
X020102Y001407D01*
X020102Y001407D01*
X020040Y001056D01*
X020040Y001056D01*
X019862Y000748D01*
X019862Y000748D01*
X019862Y000748D01*
X019589Y000519D01*
X019589Y000519D01*
X019341Y000428D01*
X020271Y000428D01*
X020271Y025539D01*
X001066Y025539D01*
X001066Y024495D01*
X001113Y024758D01*
X001113Y024758D01*
X001291Y025066D01*
X001291Y025066D01*
X001564Y025295D01*
X001564Y025295D01*
X001898Y025417D01*
X001898Y025417D01*
X002021Y025417D01*
X002021Y025417D01*
X002076Y025417D01*
X002076Y025417D01*
X002132Y025417D01*
X002132Y025417D01*
X002254Y025417D01*
X002255Y025417D01*
X002589Y025295D01*
X002589Y025295D01*
X002862Y025066D01*
X002862Y025066D01*
X003040Y024758D01*
X003040Y024758D01*
X003102Y024407D01*
X003102Y024407D01*
X003040Y024056D01*
X003040Y024056D01*
X002862Y023748D01*
X002862Y023748D01*
X002862Y023748D01*
X002589Y023519D01*
X002589Y023519D01*
X002255Y023397D01*
X002254Y023397D01*
X002132Y023397D01*
X002132Y023397D01*
X002095Y023397D01*
X002076Y023397D01*
X002021Y023397D01*
X002021Y023397D01*
X001898Y023397D01*
X001564Y023519D01*
X001291Y023748D01*
X001291Y023748D01*
X001113Y024056D01*
X001113Y024056D01*
X001066Y024319D01*
X001066Y024194D02*
X001088Y024194D01*
X001066Y024036D02*
X001124Y024036D01*
X001066Y023877D02*
X001216Y023877D01*
X001325Y023719D02*
X001066Y023719D01*
X001066Y023560D02*
X001514Y023560D01*
X001885Y023402D02*
X001066Y023402D01*
X001066Y023243D02*
X004421Y023243D01*
X004473Y023191D02*
X004712Y023092D01*
X004972Y023092D01*
X005212Y023191D01*
X005395Y023375D01*
X005495Y023614D01*
X005495Y024699D01*
X005395Y024939D01*
X005212Y025123D01*
X004972Y025222D01*
X004712Y025222D01*
X004473Y025123D01*
X004289Y024939D01*
X004190Y024699D01*
X004190Y023614D01*
X004289Y023375D01*
X004473Y023191D01*
X004278Y023402D02*
X002268Y023402D01*
X002639Y023560D02*
X004212Y023560D01*
X004190Y023719D02*
X002828Y023719D01*
X002937Y023877D02*
X004190Y023877D01*
X004190Y024036D02*
X003028Y024036D01*
X003064Y024194D02*
X004190Y024194D01*
X004190Y024353D02*
X003092Y024353D01*
X003084Y024511D02*
X004190Y024511D01*
X004190Y024670D02*
X003056Y024670D01*
X002999Y024829D02*
X004243Y024829D01*
X004337Y024987D02*
X002908Y024987D01*
X002767Y025146D02*
X004528Y025146D01*
X005156Y025146D02*
X006528Y025146D01*
X006473Y025123D02*
X006289Y024939D01*
X006190Y024699D01*
X006190Y023614D01*
X006252Y023464D01*
X006252Y023417D01*
X005832Y022997D01*
X003209Y022997D01*
X002992Y022907D01*
X002826Y022741D01*
X001826Y021741D01*
X001736Y021524D01*
X001736Y021289D01*
X001736Y016548D01*
X001692Y016504D01*
X001596Y016272D01*
X001596Y015241D01*
X001692Y015010D01*
X001870Y014833D01*
X002101Y014737D01*
X002352Y014737D01*
X002583Y014833D01*
X002699Y014949D01*
X002714Y014914D01*
X002834Y014794D01*
X002991Y014729D01*
X003162Y014729D01*
X003319Y014794D01*
X003362Y014837D01*
X005291Y014837D01*
X005334Y014794D01*
X005363Y014782D01*
X005334Y014770D01*
X005214Y014649D01*
X005148Y014492D01*
X005148Y014322D01*
X005214Y014164D01*
X005334Y014044D01*
X005491Y013979D01*
X005662Y013979D01*
X005819Y014044D01*
X005862Y014087D01*
X007541Y014087D01*
X007584Y014044D01*
X007741Y013979D01*
X007912Y013979D01*
X008069Y014044D01*
X008189Y014164D01*
X008255Y014322D01*
X008255Y014492D01*
X008189Y014649D01*
X008069Y014770D01*
X007912Y014835D01*
X007741Y014835D01*
X007584Y014770D01*
X007541Y014727D01*
X005862Y014727D01*
X005819Y014770D01*
X005790Y014782D01*
X005819Y014794D01*
X005939Y014914D01*
X006005Y015072D01*
X006005Y015242D01*
X005939Y015399D01*
X005819Y015520D01*
X005662Y015585D01*
X005491Y015585D01*
X005334Y015520D01*
X005291Y015477D01*
X003362Y015477D01*
X003319Y015520D01*
X003162Y015585D01*
X002991Y015585D01*
X002856Y015529D01*
X002856Y015595D01*
X002916Y015739D01*
X002916Y021162D01*
X003571Y021817D01*
X005959Y021817D01*
X006194Y021817D01*
X006411Y021907D01*
X007176Y022672D01*
X007342Y022838D01*
X007432Y023055D01*
X007432Y023464D01*
X007495Y023614D01*
X007495Y024699D01*
X007395Y024939D01*
X007212Y025123D01*
X006972Y025222D01*
X006712Y025222D01*
X006473Y025123D01*
X006337Y024987D02*
X005347Y024987D01*
X005441Y024829D02*
X006243Y024829D01*
X006190Y024670D02*
X005495Y024670D01*
X005495Y024511D02*
X006190Y024511D01*
X006190Y024353D02*
X005495Y024353D01*
X005495Y024194D02*
X006190Y024194D01*
X006190Y024036D02*
X005495Y024036D01*
X005495Y023877D02*
X006190Y023877D01*
X006190Y023719D02*
X005495Y023719D01*
X005472Y023560D02*
X006212Y023560D01*
X006237Y023402D02*
X005406Y023402D01*
X005264Y023243D02*
X006078Y023243D01*
X005920Y023085D02*
X001066Y023085D01*
X001066Y022926D02*
X003038Y022926D01*
X002853Y022767D02*
X001066Y022767D01*
X001066Y022609D02*
X002694Y022609D01*
X002536Y022450D02*
X001066Y022450D01*
X001066Y022292D02*
X002377Y022292D01*
X002219Y022133D02*
X001066Y022133D01*
X001066Y021975D02*
X002060Y021975D01*
X001901Y021816D02*
X001066Y021816D01*
X001066Y021658D02*
X001792Y021658D01*
X001736Y021499D02*
X001066Y021499D01*
X001066Y021341D02*
X001736Y021341D01*
X001736Y021182D02*
X001066Y021182D01*
X001066Y021024D02*
X001736Y021024D01*
X001736Y020865D02*
X001066Y020865D01*
X001066Y020706D02*
X001736Y020706D01*
X001736Y020548D02*
X001066Y020548D01*
X001066Y020389D02*
X001736Y020389D01*
X001736Y020231D02*
X001066Y020231D01*
X001066Y020072D02*
X001736Y020072D01*
X001736Y019914D02*
X001066Y019914D01*
X001066Y019755D02*
X001736Y019755D01*
X001736Y019597D02*
X001066Y019597D01*
X001066Y019438D02*
X001736Y019438D01*
X001736Y019280D02*
X001066Y019280D01*
X001066Y019121D02*
X001736Y019121D01*
X001736Y018962D02*
X001066Y018962D01*
X001066Y018804D02*
X001736Y018804D01*
X001736Y018645D02*
X001066Y018645D01*
X001066Y018487D02*
X001736Y018487D01*
X001736Y018328D02*
X001066Y018328D01*
X001066Y018170D02*
X001736Y018170D01*
X001736Y018011D02*
X001066Y018011D01*
X001066Y017853D02*
X001736Y017853D01*
X001736Y017694D02*
X001066Y017694D01*
X001066Y017536D02*
X001736Y017536D01*
X001736Y017377D02*
X001066Y017377D01*
X001066Y017218D02*
X001736Y017218D01*
X001736Y017060D02*
X001066Y017060D01*
X001066Y016901D02*
X001736Y016901D01*
X001736Y016743D02*
X001066Y016743D01*
X001066Y016584D02*
X001736Y016584D01*
X001660Y016426D02*
X001066Y016426D01*
X001066Y016267D02*
X001596Y016267D01*
X001596Y016109D02*
X001066Y016109D01*
X001066Y015950D02*
X001596Y015950D01*
X001596Y015792D02*
X001066Y015792D01*
X001066Y015633D02*
X001596Y015633D01*
X001596Y015474D02*
X001066Y015474D01*
X001066Y015316D02*
X001596Y015316D01*
X001631Y015157D02*
X001066Y015157D01*
X001066Y014999D02*
X001703Y014999D01*
X001862Y014840D02*
X001066Y014840D01*
X001066Y014682D02*
X005246Y014682D01*
X005161Y014523D02*
X001066Y014523D01*
X001066Y014365D02*
X005148Y014365D01*
X005196Y014206D02*
X001066Y014206D01*
X001066Y014048D02*
X005330Y014048D01*
X005576Y014407D02*
X007826Y014407D01*
X007580Y014048D02*
X005823Y014048D01*
X005865Y014840D02*
X006562Y014840D01*
X006570Y014833D02*
X006801Y014737D01*
X007052Y014737D01*
X007283Y014833D01*
X007461Y015010D01*
X007556Y015241D01*
X007556Y016272D01*
X007461Y016504D01*
X007283Y016681D01*
X007052Y016777D01*
X006801Y016777D01*
X006570Y016681D01*
X006392Y016504D01*
X006296Y016272D01*
X006296Y015241D01*
X006392Y015010D01*
X006570Y014833D01*
X006403Y014999D02*
X005974Y014999D01*
X006005Y015157D02*
X006331Y015157D01*
X006296Y015316D02*
X005974Y015316D01*
X005864Y015474D02*
X006296Y015474D01*
X006296Y015633D02*
X002872Y015633D01*
X002916Y015792D02*
X006296Y015792D01*
X006296Y015950D02*
X002916Y015950D01*
X002916Y016109D02*
X006296Y016109D01*
X006296Y016267D02*
X002916Y016267D01*
X002916Y016426D02*
X006360Y016426D01*
X006473Y016584D02*
X002916Y016584D01*
X002916Y016743D02*
X006719Y016743D01*
X007134Y016743D02*
X010256Y016743D01*
X010256Y016901D02*
X002916Y016901D01*
X002916Y017060D02*
X010256Y017060D01*
X010256Y017218D02*
X002916Y017218D01*
X002916Y017377D02*
X010256Y017377D01*
X010256Y017536D02*
X002916Y017536D01*
X002916Y017694D02*
X010256Y017694D01*
X010256Y017853D02*
X009628Y017853D01*
X009569Y017794D02*
X009689Y017914D01*
X009755Y018072D01*
X009755Y018242D01*
X009689Y018399D01*
X009569Y018520D01*
X009412Y018585D01*
X009241Y018585D01*
X009084Y018520D01*
X009041Y018477D01*
X008715Y018477D01*
X008755Y018572D01*
X008755Y018742D01*
X008689Y018899D01*
X008569Y019020D01*
X008412Y019085D01*
X008241Y019085D01*
X008084Y019020D01*
X008041Y018977D01*
X005862Y018977D01*
X005819Y019020D01*
X005662Y019085D01*
X005491Y019085D01*
X005334Y019020D01*
X005214Y018899D01*
X005148Y018742D01*
X005148Y018572D01*
X005188Y018477D01*
X003862Y018477D01*
X003819Y018520D01*
X003662Y018585D01*
X003491Y018585D01*
X003334Y018520D01*
X003214Y018399D01*
X003148Y018242D01*
X003148Y018072D01*
X003214Y017914D01*
X003334Y017794D01*
X003491Y017729D01*
X003662Y017729D01*
X003819Y017794D01*
X003862Y017837D01*
X009041Y017837D01*
X009084Y017794D01*
X009241Y017729D01*
X009412Y017729D01*
X009569Y017794D01*
X009729Y018011D02*
X010273Y018011D01*
X010256Y017971D02*
X010256Y015692D01*
X010214Y015649D01*
X010148Y015492D01*
X010148Y015322D01*
X010214Y015164D01*
X010334Y015044D01*
X010491Y014979D01*
X010662Y014979D01*
X010819Y015044D01*
X010939Y015164D01*
X011005Y015322D01*
X011005Y015492D01*
X010939Y015649D01*
X010896Y015692D01*
X010896Y017774D01*
X010959Y017837D01*
X011541Y017837D01*
X011584Y017794D01*
X011741Y017729D01*
X011912Y017729D01*
X012069Y017794D01*
X012189Y017914D01*
X012255Y018072D01*
X012255Y018242D01*
X012189Y018399D01*
X012069Y018520D01*
X011944Y018572D01*
X012508Y019136D01*
X012598Y019226D01*
X012646Y019343D01*
X012646Y021121D01*
X012689Y021164D01*
X012755Y021322D01*
X012755Y021492D01*
X012689Y021649D01*
X012569Y021770D01*
X012412Y021835D01*
X012241Y021835D01*
X012084Y021770D01*
X011964Y021649D01*
X011951Y021620D01*
X011939Y021649D01*
X011819Y021770D01*
X011662Y021835D01*
X011491Y021835D01*
X011334Y021770D01*
X011291Y021727D01*
X010640Y021727D01*
X010513Y021727D01*
X010395Y021678D01*
X009694Y020977D01*
X003862Y020977D01*
X003819Y021020D01*
X003662Y021085D01*
X003491Y021085D01*
X003334Y021020D01*
X003214Y020899D01*
X003148Y020742D01*
X003148Y020572D01*
X003214Y020414D01*
X003334Y020294D01*
X003491Y020229D01*
X003662Y020229D01*
X003819Y020294D01*
X003862Y020337D01*
X009890Y020337D01*
X010008Y020386D01*
X010098Y020476D01*
X010709Y021087D01*
X011291Y021087D01*
X011334Y021044D01*
X011491Y020979D01*
X011662Y020979D01*
X011819Y021044D01*
X011939Y021164D01*
X011951Y021194D01*
X011964Y021164D01*
X012006Y021121D01*
X012006Y019539D01*
X011730Y019263D01*
X011755Y019322D01*
X011755Y019492D01*
X011689Y019649D01*
X011569Y019770D01*
X011412Y019835D01*
X011241Y019835D01*
X011084Y019770D01*
X011041Y019727D01*
X008112Y019727D01*
X008069Y019770D01*
X007912Y019835D01*
X007741Y019835D01*
X007584Y019770D01*
X007464Y019649D01*
X007398Y019492D01*
X007398Y019322D01*
X007464Y019164D01*
X007584Y019044D01*
X007741Y018979D01*
X007912Y018979D01*
X008069Y019044D01*
X008112Y019087D01*
X011041Y019087D01*
X011043Y019085D01*
X010991Y019085D01*
X010834Y019020D01*
X010714Y018899D01*
X010648Y018742D01*
X010648Y018572D01*
X010699Y018450D01*
X010645Y018428D01*
X010395Y018178D01*
X010305Y018088D01*
X010256Y017971D01*
X010387Y018170D02*
X009755Y018170D01*
X009719Y018328D02*
X010545Y018328D01*
X010684Y018487D02*
X009602Y018487D01*
X009326Y018157D02*
X003576Y018157D01*
X003184Y018328D02*
X002916Y018328D01*
X002916Y018170D02*
X003148Y018170D01*
X003173Y018011D02*
X002916Y018011D01*
X002916Y017853D02*
X003275Y017853D01*
X003301Y018487D02*
X002916Y018487D01*
X002916Y018645D02*
X005148Y018645D01*
X005174Y018804D02*
X002916Y018804D01*
X002916Y018962D02*
X005277Y018962D01*
X005576Y018657D02*
X008326Y018657D01*
X008626Y018962D02*
X010777Y018962D01*
X010674Y018804D02*
X008729Y018804D01*
X008755Y018645D02*
X010648Y018645D01*
X011076Y018657D02*
X011576Y018657D01*
X012326Y019407D01*
X012326Y021407D01*
X012196Y021816D02*
X011707Y021816D01*
X011446Y021816D02*
X003570Y021816D01*
X003412Y021658D02*
X010375Y021658D01*
X010216Y021499D02*
X003253Y021499D01*
X003095Y021341D02*
X010058Y021341D01*
X009899Y021182D02*
X002936Y021182D01*
X002916Y021024D02*
X003343Y021024D01*
X003199Y020865D02*
X002916Y020865D01*
X002916Y020706D02*
X003148Y020706D01*
X003158Y020548D02*
X002916Y020548D01*
X002916Y020389D02*
X003239Y020389D01*
X003486Y020231D02*
X002916Y020231D01*
X002916Y020072D02*
X012006Y020072D01*
X012006Y019914D02*
X002916Y019914D01*
X002916Y019755D02*
X007569Y019755D01*
X007442Y019597D02*
X002916Y019597D01*
X002916Y019438D02*
X007398Y019438D01*
X007416Y019280D02*
X002916Y019280D01*
X002916Y019121D02*
X007507Y019121D01*
X007826Y019407D02*
X011326Y019407D01*
X011069Y019755D02*
X008084Y019755D01*
X008719Y018487D02*
X009051Y018487D01*
X010011Y020389D02*
X012006Y020389D01*
X012006Y020231D02*
X003667Y020231D01*
X003576Y020657D02*
X009826Y020657D01*
X010576Y021407D01*
X011576Y021407D01*
X011383Y021024D02*
X010646Y021024D01*
X010487Y020865D02*
X012006Y020865D01*
X012006Y021024D02*
X011770Y021024D01*
X011947Y021182D02*
X011956Y021182D01*
X011931Y021658D02*
X011972Y021658D01*
X012457Y021816D02*
X016113Y021816D01*
X016108Y021774D02*
X017015Y021774D01*
X017015Y021614D01*
X016108Y021614D01*
X016118Y021528D01*
X016143Y021420D01*
X016179Y021315D01*
X016228Y021215D01*
X016287Y021120D01*
X016356Y021034D01*
X016435Y020955D01*
X016522Y020886D01*
X016616Y020826D01*
X016716Y020778D01*
X016821Y020741D01*
X016929Y020717D01*
X017016Y020707D01*
X017016Y021614D01*
X017175Y021614D01*
X017175Y020707D01*
X017262Y020717D01*
X017370Y020741D01*
X017475Y020778D01*
X017571Y020824D01*
X017507Y020584D01*
X017507Y020302D01*
X017579Y020030D01*
X017720Y019786D01*
X017919Y019587D01*
X018163Y019446D01*
X018436Y019373D01*
X018717Y019373D01*
X018989Y019446D01*
X019233Y019587D01*
X019433Y019786D01*
X019573Y020030D01*
X019646Y020302D01*
X019646Y020584D01*
X019573Y020856D01*
X019433Y021100D01*
X019233Y021299D01*
X018989Y021440D01*
X018717Y021513D01*
X018436Y021513D01*
X018163Y021440D01*
X018028Y021362D01*
X018048Y021420D01*
X018073Y021528D01*
X018083Y021614D01*
X017176Y021614D01*
X017176Y021774D01*
X018083Y021774D01*
X018073Y021860D01*
X018048Y021969D01*
X018012Y022074D01*
X017963Y022174D01*
X017904Y022268D01*
X017835Y022355D01*
X017756Y022434D01*
X017669Y022503D01*
X017575Y022562D01*
X017475Y022610D01*
X017370Y022647D01*
X017262Y022672D01*
X017175Y022681D01*
X017175Y021774D01*
X017016Y021774D01*
X017016Y022681D01*
X016929Y022672D01*
X016821Y022647D01*
X016716Y022610D01*
X016616Y022562D01*
X016522Y022503D01*
X016435Y022434D01*
X016356Y022355D01*
X016287Y022268D01*
X016228Y022174D01*
X016179Y022074D01*
X016143Y021969D01*
X016118Y021860D01*
X016108Y021774D01*
X016145Y021975D02*
X006479Y021975D01*
X006637Y022133D02*
X016208Y022133D01*
X016306Y022292D02*
X006796Y022292D01*
X006954Y022450D02*
X016456Y022450D01*
X016713Y022609D02*
X007113Y022609D01*
X007271Y022767D02*
X017748Y022767D01*
X017758Y022752D02*
X017827Y022665D01*
X017906Y022586D01*
X017993Y022517D01*
X018087Y022458D01*
X018187Y022409D01*
X018292Y022373D01*
X018400Y022348D01*
X018486Y022338D01*
X018486Y023245D01*
X017579Y023245D01*
X017589Y023159D01*
X017614Y023051D01*
X017650Y022946D01*
X017699Y022846D01*
X017758Y022752D01*
X017883Y022609D02*
X017478Y022609D01*
X017735Y022450D02*
X018102Y022450D01*
X017885Y022292D02*
X020271Y022292D01*
X020271Y022450D02*
X019031Y022450D01*
X019046Y022458D02*
X018946Y022409D01*
X018841Y022373D01*
X018733Y022348D01*
X018646Y022338D01*
X018646Y023245D01*
X018486Y023245D01*
X018486Y023405D01*
X017579Y023405D01*
X017589Y023491D01*
X017614Y023600D01*
X017650Y023705D01*
X017699Y023805D01*
X017758Y023899D01*
X017827Y023986D01*
X017906Y024065D01*
X017993Y024134D01*
X018087Y024193D01*
X018187Y024241D01*
X018292Y024278D01*
X018400Y024303D01*
X018486Y024313D01*
X018486Y023406D01*
X018646Y023406D01*
X018646Y024313D01*
X018733Y024303D01*
X018841Y024278D01*
X018946Y024241D01*
X019046Y024193D01*
X019140Y024134D01*
X019227Y024065D01*
X019306Y023986D01*
X019375Y023899D01*
X019434Y023805D01*
X019483Y023705D01*
X019519Y023600D01*
X019544Y023491D01*
X019554Y023405D01*
X018647Y023405D01*
X018647Y023245D01*
X019554Y023245D01*
X019544Y023159D01*
X019519Y023051D01*
X019483Y022946D01*
X019434Y022846D01*
X019375Y022752D01*
X019306Y022665D01*
X019227Y022586D01*
X019140Y022517D01*
X019046Y022458D01*
X019250Y022609D02*
X020271Y022609D01*
X020271Y022767D02*
X019385Y022767D01*
X019473Y022926D02*
X020271Y022926D01*
X020271Y023085D02*
X019527Y023085D01*
X019553Y023243D02*
X020271Y023243D01*
X020271Y023402D02*
X018647Y023402D01*
X018646Y023560D02*
X018486Y023560D01*
X018486Y023402D02*
X009375Y023402D01*
X009364Y023375D02*
X009463Y023614D01*
X009463Y024699D01*
X009364Y024939D01*
X009180Y025123D01*
X008941Y025222D01*
X008681Y025222D01*
X008441Y025123D01*
X008258Y024939D01*
X008158Y024699D01*
X008158Y023614D01*
X008258Y023375D01*
X008441Y023191D01*
X008681Y023092D01*
X008941Y023092D01*
X009180Y023191D01*
X009364Y023375D01*
X009232Y023243D02*
X017579Y023243D01*
X017606Y023085D02*
X007432Y023085D01*
X007432Y023243D02*
X008389Y023243D01*
X008246Y023402D02*
X007432Y023402D01*
X007472Y023560D02*
X008181Y023560D01*
X008158Y023719D02*
X007495Y023719D01*
X007495Y023877D02*
X008158Y023877D01*
X008158Y024036D02*
X007495Y024036D01*
X007495Y024194D02*
X008158Y024194D01*
X008158Y024353D02*
X007495Y024353D01*
X007495Y024511D02*
X008158Y024511D01*
X008158Y024670D02*
X007495Y024670D01*
X007441Y024829D02*
X008212Y024829D01*
X008306Y024987D02*
X007347Y024987D01*
X007156Y025146D02*
X008497Y025146D01*
X009125Y025146D02*
X020271Y025146D01*
X020271Y025304D02*
X002564Y025304D01*
X001589Y025304D02*
X001066Y025304D01*
X001066Y025146D02*
X001386Y025146D01*
X001291Y025066D02*
X001291Y025066D01*
X001245Y024987D02*
X001066Y024987D01*
X001066Y024829D02*
X001154Y024829D01*
X001097Y024670D02*
X001066Y024670D01*
X001066Y024511D02*
X001069Y024511D01*
X001066Y025463D02*
X020271Y025463D01*
X020271Y024987D02*
X009316Y024987D01*
X009410Y024829D02*
X020271Y024829D01*
X020271Y024670D02*
X009463Y024670D01*
X009463Y024511D02*
X020271Y024511D01*
X020271Y024353D02*
X009463Y024353D01*
X009463Y024194D02*
X018089Y024194D01*
X017877Y024036D02*
X009463Y024036D01*
X009463Y023877D02*
X017744Y023877D01*
X017657Y023719D02*
X009463Y023719D01*
X009441Y023560D02*
X017605Y023560D01*
X017660Y022926D02*
X007379Y022926D01*
X009576Y021407D02*
X010326Y022157D01*
X013326Y022157D01*
X016633Y022157D01*
X017096Y021694D01*
X017176Y021658D02*
X020271Y021658D01*
X020271Y021816D02*
X018078Y021816D01*
X018046Y021975D02*
X020271Y021975D01*
X020271Y022133D02*
X017983Y022133D01*
X018066Y021499D02*
X018384Y021499D01*
X018769Y021499D02*
X020271Y021499D01*
X020271Y021341D02*
X019162Y021341D01*
X019351Y021182D02*
X020271Y021182D01*
X020271Y021024D02*
X019477Y021024D01*
X019568Y020865D02*
X020271Y020865D01*
X020271Y020706D02*
X019614Y020706D01*
X019646Y020548D02*
X020271Y020548D01*
X020271Y020389D02*
X019646Y020389D01*
X019627Y020231D02*
X020271Y020231D01*
X020271Y020072D02*
X019585Y020072D01*
X019506Y019914D02*
X020271Y019914D01*
X020271Y019755D02*
X019402Y019755D01*
X019243Y019597D02*
X020271Y019597D01*
X020271Y019438D02*
X018959Y019438D01*
X018898Y018917D02*
X018564Y018795D01*
X018564Y018795D01*
X018291Y018566D01*
X018291Y018566D01*
X018113Y018258D01*
X018113Y018258D01*
X018051Y017907D01*
X018113Y017556D01*
X018291Y017248D01*
X018564Y017019D01*
X018898Y016897D01*
X018898Y016897D01*
X019021Y016897D01*
X019021Y016897D01*
X019076Y016897D01*
X019094Y016897D01*
X019132Y016897D01*
X019254Y016897D01*
X019255Y016897D01*
X019589Y017019D01*
X019589Y017019D01*
X019862Y017248D01*
X020040Y017556D01*
X020040Y017556D01*
X020102Y017907D01*
X020040Y018258D01*
X019862Y018566D01*
X019589Y018795D01*
X019255Y018917D01*
X019254Y018917D01*
X019132Y018917D01*
X019076Y018917D01*
X019021Y018917D01*
X019021Y018917D01*
X018898Y018917D01*
X018898Y018917D01*
X019076Y018917D02*
X019076Y018917D01*
X019132Y018917D02*
X019132Y018917D01*
X019565Y018804D02*
X020271Y018804D01*
X020271Y018962D02*
X016209Y018962D01*
X016189Y018914D02*
X016255Y019072D01*
X016255Y019242D01*
X016189Y019399D01*
X016069Y019520D01*
X015912Y019585D01*
X015741Y019585D01*
X015584Y019520D01*
X015541Y019477D01*
X014112Y019477D01*
X014069Y019520D01*
X013912Y019585D01*
X013741Y019585D01*
X013584Y019520D01*
X013464Y019399D01*
X013398Y019242D01*
X013398Y019072D01*
X013464Y018914D01*
X013584Y018794D01*
X013741Y018729D01*
X013912Y018729D01*
X014069Y018794D01*
X014112Y018837D01*
X015541Y018837D01*
X015584Y018794D01*
X015741Y018729D01*
X015912Y018729D01*
X016069Y018794D01*
X016189Y018914D01*
X016079Y018804D02*
X018588Y018804D01*
X018385Y018645D02*
X012017Y018645D01*
X012102Y018487D02*
X018245Y018487D01*
X018291Y018566D02*
X018291Y018566D01*
X018154Y018328D02*
X012219Y018328D01*
X012255Y018170D02*
X018097Y018170D01*
X018069Y018011D02*
X016828Y018011D01*
X016819Y018020D02*
X016662Y018085D01*
X016491Y018085D01*
X016334Y018020D01*
X016291Y017977D01*
X014612Y017977D01*
X014569Y018020D01*
X014412Y018085D01*
X014241Y018085D01*
X014084Y018020D01*
X013964Y017899D01*
X013898Y017742D01*
X013898Y017572D01*
X013964Y017414D01*
X014084Y017294D01*
X014241Y017229D01*
X014412Y017229D01*
X014569Y017294D01*
X014612Y017337D01*
X016291Y017337D01*
X016334Y017294D01*
X016491Y017229D01*
X016662Y017229D01*
X016819Y017294D01*
X016939Y017414D01*
X017005Y017572D01*
X017005Y017742D01*
X016939Y017899D01*
X016819Y018020D01*
X016959Y017853D02*
X018060Y017853D01*
X018051Y017907D02*
X018051Y017907D01*
X018088Y017694D02*
X017005Y017694D01*
X016990Y017536D02*
X018125Y017536D01*
X018216Y017377D02*
X016902Y017377D01*
X016576Y017657D02*
X014326Y017657D01*
X014578Y018011D02*
X016325Y018011D01*
X015574Y018804D02*
X014079Y018804D01*
X013826Y019157D02*
X015826Y019157D01*
X016151Y019438D02*
X018194Y019438D01*
X017910Y019597D02*
X012646Y019597D01*
X012646Y019755D02*
X017751Y019755D01*
X017647Y019914D02*
X012646Y019914D01*
X012646Y020072D02*
X017568Y020072D01*
X017526Y020231D02*
X012646Y020231D01*
X012646Y020389D02*
X017507Y020389D01*
X017507Y020548D02*
X012646Y020548D01*
X012646Y020706D02*
X017539Y020706D01*
X017175Y020865D02*
X017016Y020865D01*
X017016Y021024D02*
X017175Y021024D01*
X017175Y021182D02*
X017016Y021182D01*
X017016Y021341D02*
X017175Y021341D01*
X017175Y021499D02*
X017016Y021499D01*
X017015Y021658D02*
X012681Y021658D01*
X012752Y021499D02*
X016125Y021499D01*
X016170Y021341D02*
X012755Y021341D01*
X012697Y021182D02*
X016248Y021182D01*
X016366Y021024D02*
X012646Y021024D01*
X012646Y020865D02*
X016554Y020865D01*
X017016Y021816D02*
X017175Y021816D01*
X017175Y021975D02*
X017016Y021975D01*
X017016Y022133D02*
X017175Y022133D01*
X017175Y022292D02*
X017016Y022292D01*
X017016Y022450D02*
X017175Y022450D01*
X017175Y022609D02*
X017016Y022609D01*
X018486Y022609D02*
X018646Y022609D01*
X018646Y022767D02*
X018486Y022767D01*
X018486Y022926D02*
X018646Y022926D01*
X018646Y023085D02*
X018486Y023085D01*
X018486Y023243D02*
X018646Y023243D01*
X018646Y023719D02*
X018486Y023719D01*
X018486Y023877D02*
X018646Y023877D01*
X018646Y024036D02*
X018486Y024036D01*
X018486Y024194D02*
X018646Y024194D01*
X019044Y024194D02*
X020271Y024194D01*
X020271Y024036D02*
X019256Y024036D01*
X019389Y023877D02*
X020271Y023877D01*
X020271Y023719D02*
X019476Y023719D01*
X019528Y023560D02*
X020271Y023560D01*
X018646Y022450D02*
X018486Y022450D01*
X020271Y019280D02*
X016239Y019280D01*
X016255Y019121D02*
X020271Y019121D01*
X020271Y018645D02*
X019768Y018645D01*
X019862Y018566D02*
X019862Y018566D01*
X019908Y018487D02*
X020271Y018487D01*
X020271Y018328D02*
X019999Y018328D01*
X020040Y018258D02*
X020040Y018258D01*
X020056Y018170D02*
X020271Y018170D01*
X020271Y018011D02*
X020084Y018011D01*
X020102Y017907D02*
X020102Y017907D01*
X020092Y017853D02*
X020271Y017853D01*
X020271Y017694D02*
X020064Y017694D01*
X020028Y017536D02*
X020271Y017536D01*
X020271Y017377D02*
X019937Y017377D01*
X019862Y017248D02*
X019862Y017248D01*
X019862Y017248D01*
X019827Y017218D02*
X020271Y017218D01*
X020271Y017060D02*
X019638Y017060D01*
X019267Y016901D02*
X020271Y016901D01*
X020271Y016743D02*
X010896Y016743D01*
X010896Y016901D02*
X018886Y016901D01*
X019132Y016897D02*
X019132Y016897D01*
X018564Y017019D02*
X018564Y017019D01*
X018515Y017060D02*
X010896Y017060D01*
X010896Y017218D02*
X018326Y017218D01*
X017826Y016157D02*
X018076Y015907D01*
X018076Y015157D01*
X018076Y015157D01*
X017571Y015157D01*
X017571Y015197D01*
X017584Y015275D01*
X017608Y015351D01*
X017645Y015421D01*
X017691Y015486D01*
X017747Y015542D01*
X017812Y015589D01*
X017883Y015625D01*
X017958Y015649D01*
X018037Y015662D01*
X018076Y015662D01*
X018076Y015157D01*
X018077Y015157D01*
X018077Y015662D01*
X018116Y015662D01*
X018195Y015649D01*
X018270Y015625D01*
X018341Y015589D01*
X018405Y015542D01*
X018462Y015486D01*
X018508Y015421D01*
X018511Y015415D01*
X018511Y015530D01*
X018548Y015618D01*
X018615Y015685D01*
X018704Y015722D01*
X019449Y015722D01*
X019537Y015685D01*
X019605Y015618D01*
X019641Y015530D01*
X019641Y014784D01*
X019605Y014696D01*
X019537Y014628D01*
X019449Y014592D01*
X018704Y014592D01*
X018615Y014628D01*
X018548Y014696D01*
X018511Y014784D01*
X018511Y014898D01*
X018508Y014892D01*
X018462Y014828D01*
X018405Y014772D01*
X018341Y014725D01*
X018270Y014689D01*
X018195Y014664D01*
X018116Y014652D01*
X018077Y014652D01*
X018077Y015156D01*
X018076Y015156D01*
X018076Y014652D01*
X018037Y014652D01*
X017958Y014664D01*
X017883Y014689D01*
X017812Y014725D01*
X017747Y014772D01*
X017691Y014828D01*
X017645Y014892D01*
X017608Y014963D01*
X017584Y015039D01*
X017571Y015117D01*
X017571Y015157D01*
X010932Y015157D01*
X011002Y015316D02*
X017597Y015316D01*
X017571Y015157D02*
X018076Y015157D01*
X018077Y015157D01*
X018076Y014999D02*
X018077Y014999D01*
X018076Y014840D02*
X018077Y014840D01*
X018076Y014682D02*
X018077Y014682D01*
X018248Y014682D02*
X018562Y014682D01*
X018511Y014840D02*
X018471Y014840D01*
X018077Y015316D02*
X018076Y015316D01*
X018076Y015474D02*
X018077Y015474D01*
X018076Y015633D02*
X018077Y015633D01*
X018245Y015633D02*
X018563Y015633D01*
X018511Y015474D02*
X018470Y015474D01*
X017908Y015633D02*
X010946Y015633D01*
X010896Y015792D02*
X020271Y015792D01*
X020271Y015950D02*
X010896Y015950D01*
X010896Y016109D02*
X020271Y016109D01*
X020271Y016267D02*
X010896Y016267D01*
X010896Y016426D02*
X020271Y016426D01*
X020271Y016584D02*
X010896Y016584D01*
X010256Y016584D02*
X007380Y016584D01*
X007493Y016426D02*
X010256Y016426D01*
X010256Y016267D02*
X007556Y016267D01*
X007556Y016109D02*
X010256Y016109D01*
X010256Y015950D02*
X007556Y015950D01*
X007556Y015792D02*
X010256Y015792D01*
X010207Y015633D02*
X007556Y015633D01*
X007556Y015474D02*
X010148Y015474D01*
X010151Y015316D02*
X007556Y015316D01*
X007522Y015157D02*
X010220Y015157D01*
X010443Y014999D02*
X007449Y014999D01*
X007291Y014840D02*
X016189Y014840D01*
X016214Y014899D02*
X016148Y014742D01*
X016148Y014681D01*
X015895Y014428D01*
X015805Y014338D01*
X015756Y014221D01*
X015756Y013343D01*
X015805Y013226D01*
X015895Y013136D01*
X016209Y012822D01*
X016084Y012770D01*
X015964Y012649D01*
X015898Y012492D01*
X015898Y012322D01*
X015964Y012164D01*
X016006Y012121D01*
X016006Y010789D01*
X014802Y009585D01*
X014741Y009585D01*
X014584Y009520D01*
X014464Y009399D01*
X014398Y009242D01*
X014398Y009072D01*
X014464Y008914D01*
X014584Y008794D01*
X014741Y008729D01*
X014912Y008729D01*
X015069Y008794D01*
X015189Y008914D01*
X015255Y009072D01*
X015255Y009132D01*
X016508Y010386D01*
X016598Y010476D01*
X016646Y010593D01*
X016646Y012121D01*
X016689Y012164D01*
X016741Y012290D01*
X017256Y011774D01*
X017256Y008942D01*
X017214Y008899D01*
X017148Y008742D01*
X017148Y008572D01*
X017214Y008414D01*
X017334Y008294D01*
X017491Y008229D01*
X017662Y008229D01*
X017819Y008294D01*
X017939Y008414D01*
X018005Y008572D01*
X018005Y008742D01*
X017939Y008899D01*
X017896Y008942D01*
X017896Y011843D01*
X017896Y011971D01*
X017848Y012088D01*
X016683Y013253D01*
X016741Y013229D01*
X016912Y013229D01*
X016979Y013257D01*
X018923Y013257D01*
X018991Y013229D01*
X019162Y013229D01*
X019319Y013294D01*
X019439Y013414D01*
X019505Y013572D01*
X020271Y013572D01*
X020271Y013731D02*
X019505Y013731D01*
X019505Y013742D02*
X019439Y013899D01*
X019319Y014020D01*
X019162Y014085D01*
X018991Y014085D01*
X018923Y014057D01*
X016979Y014057D01*
X016912Y014085D01*
X016741Y014085D01*
X016584Y014020D01*
X016464Y013899D01*
X016398Y013742D01*
X016398Y013572D01*
X016396Y013572D01*
X016398Y013572D02*
X016423Y013513D01*
X016396Y013539D01*
X016396Y014024D01*
X016601Y014229D01*
X016662Y014229D01*
X016819Y014294D01*
X016939Y014414D01*
X017005Y014572D01*
X017005Y014742D01*
X016939Y014899D01*
X016819Y015020D01*
X016662Y015085D01*
X016491Y015085D01*
X016334Y015020D01*
X016214Y014899D01*
X016313Y014999D02*
X010710Y014999D01*
X010576Y015407D02*
X010576Y017907D01*
X010826Y018157D01*
X011826Y018157D01*
X012128Y017853D02*
X013944Y017853D01*
X013898Y017694D02*
X010896Y017694D01*
X010896Y017536D02*
X013913Y017536D01*
X014001Y017377D02*
X010896Y017377D01*
X012176Y018804D02*
X013574Y018804D01*
X013444Y018962D02*
X012335Y018962D01*
X012493Y019121D02*
X013398Y019121D01*
X013414Y019280D02*
X012620Y019280D01*
X012646Y019438D02*
X013502Y019438D01*
X014075Y018011D02*
X012229Y018011D01*
X011747Y019280D02*
X011737Y019280D01*
X011755Y019438D02*
X011905Y019438D01*
X012006Y019597D02*
X011711Y019597D01*
X011584Y019755D02*
X012006Y019755D01*
X012006Y020548D02*
X010170Y020548D01*
X010329Y020706D02*
X012006Y020706D01*
X009741Y021024D02*
X003810Y021024D01*
X003576Y021407D02*
X009576Y021407D01*
X012326Y016157D02*
X015576Y016157D01*
X017826Y016157D01*
X017683Y015474D02*
X011005Y015474D01*
X011241Y013585D02*
X011084Y013520D01*
X010964Y013399D01*
X010898Y013242D01*
X010898Y013227D01*
X010112Y013227D01*
X010069Y013270D01*
X009912Y013335D01*
X009741Y013335D01*
X009584Y013270D01*
X009464Y013149D01*
X009398Y012992D01*
X009398Y012822D01*
X009464Y012664D01*
X009584Y012544D01*
X009741Y012479D01*
X009912Y012479D01*
X010069Y012544D01*
X010112Y012587D01*
X011013Y012587D01*
X011140Y012587D01*
X011258Y012636D01*
X011351Y012729D01*
X011412Y012729D01*
X011433Y012738D01*
X011464Y012664D01*
X011584Y012544D01*
X011741Y012479D01*
X011912Y012479D01*
X012069Y012544D01*
X012112Y012587D01*
X014194Y012587D01*
X014805Y011976D01*
X014895Y011886D01*
X015013Y011837D01*
X015041Y011837D01*
X015084Y011794D01*
X015241Y011729D01*
X015412Y011729D01*
X015569Y011794D01*
X015689Y011914D01*
X015755Y012072D01*
X015755Y012242D01*
X015689Y012399D01*
X015569Y012520D01*
X015412Y012585D01*
X015241Y012585D01*
X015142Y012544D01*
X014508Y013178D01*
X014390Y013227D01*
X014263Y013227D01*
X013445Y013227D01*
X013555Y013337D01*
X013641Y013544D01*
X013641Y013769D01*
X013555Y013977D01*
X013396Y014136D01*
X013189Y014222D01*
X012964Y014222D01*
X012756Y014136D01*
X012597Y013977D01*
X012511Y013769D01*
X012511Y013544D01*
X012597Y013337D01*
X012707Y013227D01*
X012112Y013227D01*
X012069Y013270D01*
X011912Y013335D01*
X011741Y013335D01*
X011720Y013326D01*
X011689Y013399D01*
X011569Y013520D01*
X011412Y013585D01*
X011241Y013585D01*
X011210Y013572D02*
X001066Y013572D01*
X001066Y013731D02*
X012511Y013731D01*
X012511Y013572D02*
X011443Y013572D01*
X011675Y013413D02*
X012566Y013413D01*
X012679Y013255D02*
X012084Y013255D01*
X011826Y012907D02*
X014326Y012907D01*
X015076Y012157D01*
X015326Y012157D01*
X015627Y012462D02*
X015898Y012462D01*
X015906Y012304D02*
X015729Y012304D01*
X015755Y012145D02*
X015983Y012145D01*
X016006Y011987D02*
X015719Y011987D01*
X015603Y011828D02*
X016006Y011828D01*
X016006Y011669D02*
X010143Y011669D01*
X010155Y011642D02*
X010089Y011799D01*
X009969Y011920D01*
X009812Y011985D01*
X009641Y011985D01*
X009484Y011920D01*
X009441Y011877D01*
X008059Y011877D01*
X007713Y012222D01*
X007755Y012322D01*
X007755Y012492D01*
X007689Y012649D01*
X007569Y012770D01*
X007412Y012835D01*
X007241Y012835D01*
X007084Y012770D01*
X006964Y012649D01*
X006898Y012492D01*
X006898Y012322D01*
X006964Y012164D01*
X007006Y012121D01*
X007006Y012093D01*
X007055Y011976D01*
X007055Y011975D01*
X007052Y011977D01*
X006801Y011977D01*
X006570Y011881D01*
X006392Y011704D01*
X006296Y011472D01*
X006296Y010441D01*
X006392Y010210D01*
X006570Y010033D01*
X006801Y009937D01*
X007052Y009937D01*
X007283Y010033D01*
X007359Y010109D01*
X007413Y010087D01*
X008116Y010087D01*
X008042Y010014D01*
X007946Y009782D01*
X007946Y009531D01*
X008028Y009335D01*
X007991Y009335D01*
X007834Y009270D01*
X007791Y009227D01*
X004919Y009227D01*
X004933Y009233D01*
X005111Y009410D01*
X005206Y009641D01*
X005206Y010672D01*
X005111Y010904D01*
X004933Y011081D01*
X004702Y011177D01*
X004451Y011177D01*
X004220Y011081D01*
X004042Y010904D01*
X003946Y010672D01*
X003946Y009641D01*
X004042Y009410D01*
X004220Y009233D01*
X004234Y009227D01*
X002612Y009227D01*
X002569Y009270D01*
X002412Y009335D01*
X002241Y009335D01*
X002084Y009270D01*
X001964Y009149D01*
X001898Y008992D01*
X001898Y008822D01*
X001941Y008719D01*
X001831Y008674D01*
X001659Y008502D01*
X001566Y008278D01*
X001566Y008035D01*
X001659Y007811D01*
X001777Y007693D01*
X001731Y007674D01*
X001559Y007502D01*
X001466Y007278D01*
X001466Y007035D01*
X001559Y006811D01*
X001731Y006640D01*
X001842Y006594D01*
X001818Y006576D01*
X001757Y006515D01*
X001706Y006445D01*
X001667Y006368D01*
X001640Y006286D01*
X001626Y006200D01*
X001626Y006177D01*
X002156Y006177D01*
X002156Y006137D01*
X001626Y006137D01*
X001626Y006114D01*
X001640Y006028D01*
X001667Y005946D01*
X001706Y005869D01*
X001757Y005799D01*
X001818Y005737D01*
X001842Y005720D01*
X001731Y005674D01*
X001559Y005502D01*
X001466Y005278D01*
X001466Y005035D01*
X001559Y004811D01*
X001731Y004640D01*
X001777Y004620D01*
X001659Y004502D01*
X001566Y004278D01*
X001566Y004035D01*
X001659Y003811D01*
X001777Y003693D01*
X001731Y003674D01*
X001559Y003502D01*
X001466Y003278D01*
X001466Y003035D01*
X001559Y002811D01*
X001731Y002640D01*
X001955Y002547D01*
X002198Y002547D01*
X002422Y002640D01*
X002594Y002811D01*
X002686Y003035D01*
X002686Y003278D01*
X002594Y003502D01*
X002475Y003620D01*
X002522Y003640D01*
X002694Y003811D01*
X002704Y003837D01*
X003291Y003837D01*
X003334Y003794D01*
X003491Y003729D01*
X003662Y003729D01*
X003819Y003794D01*
X003939Y003914D01*
X004005Y004072D01*
X004005Y004242D01*
X003939Y004399D01*
X003819Y004520D01*
X003662Y004585D01*
X003491Y004585D01*
X003334Y004520D01*
X003291Y004477D01*
X002704Y004477D01*
X002694Y004502D01*
X002522Y004674D01*
X002475Y004693D01*
X002594Y004811D01*
X002604Y004837D01*
X002791Y004837D01*
X002834Y004794D01*
X002991Y004729D01*
X003162Y004729D01*
X003319Y004794D01*
X003439Y004914D01*
X003505Y005072D01*
X003505Y005242D01*
X003439Y005399D01*
X003319Y005520D01*
X003162Y005585D01*
X002991Y005585D01*
X002834Y005520D01*
X002791Y005477D01*
X002604Y005477D01*
X002594Y005502D01*
X002428Y005668D01*
X002465Y005686D01*
X002535Y005737D01*
X002596Y005799D01*
X002647Y005869D01*
X002686Y005946D01*
X002713Y006028D01*
X002726Y006114D01*
X002726Y006137D01*
X002197Y006137D01*
X002197Y006177D01*
X002726Y006177D01*
X002726Y006200D01*
X002713Y006286D01*
X002686Y006368D01*
X002647Y006445D01*
X002596Y006515D01*
X002535Y006576D01*
X002465Y006627D01*
X002428Y006646D01*
X002594Y006811D01*
X002604Y006837D01*
X006541Y006837D01*
X006584Y006794D01*
X006741Y006729D01*
X006912Y006729D01*
X007069Y006794D01*
X007189Y006914D01*
X007255Y007072D01*
X018096Y007072D01*
X018096Y007035D02*
X018189Y006811D01*
X018361Y006640D01*
X018408Y006620D01*
X018348Y006576D01*
X018287Y006515D01*
X018236Y006445D01*
X018197Y006368D01*
X018170Y006286D01*
X018156Y006200D01*
X018156Y006187D01*
X019046Y006187D01*
X019046Y006127D01*
X018156Y006127D01*
X018156Y006114D01*
X018170Y006028D01*
X018197Y005946D01*
X018236Y005869D01*
X018287Y005799D01*
X018348Y005737D01*
X018408Y005694D01*
X018361Y005674D01*
X018189Y005502D01*
X018179Y005477D01*
X015112Y005477D01*
X015069Y005520D01*
X014912Y005585D01*
X014741Y005585D01*
X014584Y005520D01*
X014464Y005399D01*
X014398Y005242D01*
X014398Y005072D01*
X014464Y004914D01*
X014584Y004794D01*
X014741Y004729D01*
X014912Y004729D01*
X015069Y004794D01*
X015112Y004837D01*
X018179Y004837D01*
X018189Y004811D01*
X018344Y004657D01*
X018189Y004502D01*
X018179Y004477D01*
X017862Y004477D01*
X017819Y004520D01*
X017662Y004585D01*
X017491Y004585D01*
X017334Y004520D01*
X017214Y004399D01*
X017148Y004242D01*
X017148Y004072D01*
X017214Y003914D01*
X017334Y003794D01*
X017491Y003729D01*
X017662Y003729D01*
X017819Y003794D01*
X017862Y003837D01*
X018179Y003837D01*
X018189Y003811D01*
X018361Y003640D01*
X018585Y003547D01*
X019568Y003547D01*
X019792Y003640D01*
X019964Y003811D01*
X020056Y004035D01*
X020056Y004278D01*
X019964Y004502D01*
X019809Y004657D01*
X019964Y004811D01*
X020056Y005035D01*
X020056Y005278D01*
X019964Y005502D01*
X019792Y005674D01*
X019744Y005694D01*
X019805Y005737D01*
X019866Y005799D01*
X019917Y005869D01*
X019956Y005946D01*
X019983Y006028D01*
X019996Y006114D01*
X019996Y006127D01*
X019107Y006127D01*
X019107Y006187D01*
X019996Y006187D01*
X019996Y006200D01*
X019983Y006286D01*
X019956Y006368D01*
X019917Y006445D01*
X019866Y006515D01*
X019805Y006576D01*
X019744Y006620D01*
X019792Y006640D01*
X019964Y006811D01*
X020056Y007035D01*
X020056Y007278D01*
X019964Y007502D01*
X019792Y007674D01*
X019568Y007767D01*
X018919Y007767D01*
X018598Y008088D01*
X018508Y008178D01*
X018390Y008227D01*
X015612Y008227D01*
X015569Y008270D01*
X015412Y008335D01*
X015241Y008335D01*
X015084Y008270D01*
X015041Y008227D01*
X012862Y008227D01*
X012819Y008270D01*
X012662Y008335D01*
X012491Y008335D01*
X012334Y008270D01*
X012214Y008149D01*
X012148Y007992D01*
X012148Y007822D01*
X012214Y007664D01*
X012334Y007544D01*
X012491Y007479D01*
X012662Y007479D01*
X012819Y007544D01*
X012862Y007587D01*
X015041Y007587D01*
X015084Y007544D01*
X015241Y007479D01*
X015412Y007479D01*
X015569Y007544D01*
X015612Y007587D01*
X018194Y007587D01*
X018234Y007547D01*
X018189Y007502D01*
X018096Y007278D01*
X018096Y007035D01*
X018147Y006913D02*
X007188Y006913D01*
X007255Y007072D02*
X007255Y007242D01*
X007189Y007399D01*
X007069Y007520D01*
X006912Y007585D01*
X006741Y007585D01*
X006584Y007520D01*
X006541Y007477D01*
X002604Y007477D01*
X002594Y007502D01*
X002475Y007620D01*
X002522Y007640D01*
X002694Y007811D01*
X002704Y007837D01*
X005041Y007837D01*
X005084Y007794D01*
X005241Y007729D01*
X005412Y007729D01*
X005569Y007794D01*
X005689Y007914D01*
X005755Y008072D01*
X005755Y008242D01*
X005689Y008399D01*
X005569Y008520D01*
X005412Y008585D01*
X005241Y008585D01*
X005084Y008520D01*
X005041Y008477D01*
X002704Y008477D01*
X002694Y008502D01*
X002610Y008585D01*
X002612Y008587D01*
X007791Y008587D01*
X007834Y008544D01*
X007991Y008479D01*
X008162Y008479D01*
X008319Y008544D01*
X008439Y008664D01*
X008505Y008822D01*
X008505Y008992D01*
X008490Y009027D01*
X008702Y009027D01*
X008933Y009123D01*
X009111Y009300D01*
X009206Y009531D01*
X009206Y009782D01*
X009111Y010014D01*
X009037Y010087D01*
X009194Y010087D01*
X009805Y009476D01*
X009895Y009386D01*
X010013Y009337D01*
X010041Y009337D01*
X010084Y009294D01*
X010241Y009229D01*
X010412Y009229D01*
X010569Y009294D01*
X010612Y009337D01*
X012027Y009337D01*
X012042Y009300D01*
X012220Y009123D01*
X012451Y009027D01*
X012702Y009027D01*
X012933Y009123D01*
X013111Y009300D01*
X013206Y009531D01*
X013206Y009782D01*
X013111Y010014D01*
X012933Y010191D01*
X012702Y010287D01*
X012451Y010287D01*
X012220Y010191D01*
X012042Y010014D01*
X012027Y009977D01*
X010612Y009977D01*
X010569Y010020D01*
X010412Y010085D01*
X010241Y010085D01*
X010142Y010044D01*
X009508Y010678D01*
X009390Y010727D01*
X009263Y010727D01*
X007609Y010727D01*
X007556Y010779D01*
X007556Y011472D01*
X007555Y011476D01*
X007745Y011286D01*
X007863Y011237D01*
X007990Y011237D01*
X009441Y011237D01*
X009484Y011194D01*
X009641Y011129D01*
X009812Y011129D01*
X009969Y011194D01*
X010089Y011314D01*
X010155Y011472D01*
X010155Y011642D01*
X010155Y011511D02*
X016006Y011511D01*
X016006Y011352D02*
X010105Y011352D01*
X009969Y011194D02*
X016006Y011194D01*
X016006Y011035D02*
X007556Y011035D01*
X007556Y010877D02*
X016006Y010877D01*
X015935Y010718D02*
X009411Y010718D01*
X009626Y010560D02*
X015777Y010560D01*
X015618Y010401D02*
X009785Y010401D01*
X009943Y010243D02*
X012344Y010243D01*
X012113Y010084D02*
X010414Y010084D01*
X010239Y010084D02*
X010102Y010084D01*
X010076Y009657D02*
X010326Y009657D01*
X012576Y009657D01*
X012809Y010243D02*
X015460Y010243D01*
X015301Y010084D02*
X013040Y010084D01*
X013147Y009925D02*
X015143Y009925D01*
X014984Y009767D02*
X013206Y009767D01*
X013206Y009608D02*
X014825Y009608D01*
X014514Y009450D02*
X013173Y009450D01*
X013102Y009291D02*
X014419Y009291D01*
X014398Y009133D02*
X012943Y009133D01*
X012210Y009133D02*
X008943Y009133D01*
X009102Y009291D02*
X010090Y009291D01*
X009831Y009450D02*
X009173Y009450D01*
X009206Y009608D02*
X009672Y009608D01*
X009514Y009767D02*
X009206Y009767D01*
X009147Y009925D02*
X009355Y009925D01*
X009197Y010084D02*
X009040Y010084D01*
X009326Y010407D02*
X010076Y009657D01*
X010563Y009291D02*
X012051Y009291D01*
X012246Y008181D02*
X005755Y008181D01*
X005734Y008023D02*
X012161Y008023D01*
X012148Y007864D02*
X005639Y007864D01*
X005326Y008157D02*
X002176Y008157D01*
X001765Y007706D02*
X001066Y007706D01*
X001066Y007864D02*
X001637Y007864D01*
X001572Y008023D02*
X001066Y008023D01*
X001066Y008181D02*
X001566Y008181D01*
X001592Y008340D02*
X001066Y008340D01*
X001066Y008499D02*
X001658Y008499D01*
X001814Y008657D02*
X001066Y008657D01*
X001066Y008816D02*
X001901Y008816D01*
X001898Y008974D02*
X001066Y008974D01*
X001066Y009133D02*
X001957Y009133D01*
X002136Y009291D02*
X001066Y009291D01*
X001066Y009450D02*
X004026Y009450D01*
X003960Y009608D02*
X001066Y009608D01*
X001066Y009767D02*
X003946Y009767D01*
X003946Y009925D02*
X001066Y009925D01*
X001066Y010084D02*
X001818Y010084D01*
X001870Y010033D02*
X001692Y010210D01*
X001596Y010441D01*
X001596Y011472D01*
X001692Y011704D01*
X001870Y011881D01*
X002101Y011977D01*
X002352Y011977D01*
X002583Y011881D01*
X002761Y011704D01*
X002856Y011472D01*
X002856Y010441D01*
X002761Y010210D01*
X002583Y010033D01*
X002352Y009937D01*
X002101Y009937D01*
X001870Y010033D01*
X001679Y010243D02*
X001066Y010243D01*
X001066Y010401D02*
X001613Y010401D01*
X001596Y010560D02*
X001066Y010560D01*
X001066Y010718D02*
X001596Y010718D01*
X001596Y010877D02*
X001066Y010877D01*
X001066Y011035D02*
X001596Y011035D01*
X001596Y011194D02*
X001066Y011194D01*
X001066Y011352D02*
X001596Y011352D01*
X001613Y011511D02*
X001066Y011511D01*
X001066Y011669D02*
X001678Y011669D01*
X001817Y011828D02*
X001066Y011828D01*
X001066Y011987D02*
X007051Y011987D01*
X006983Y012145D02*
X001066Y012145D01*
X001066Y012304D02*
X006906Y012304D01*
X006898Y012462D02*
X001066Y012462D01*
X001066Y012621D02*
X006952Y012621D01*
X007107Y012779D02*
X001066Y012779D01*
X001066Y012938D02*
X009398Y012938D01*
X009416Y012779D02*
X007546Y012779D01*
X007701Y012621D02*
X009507Y012621D01*
X009826Y012907D02*
X011076Y012907D01*
X011326Y013157D01*
X010978Y013413D02*
X001066Y013413D01*
X001066Y013255D02*
X009569Y013255D01*
X009442Y013096D02*
X001066Y013096D01*
X001066Y013889D02*
X012561Y013889D01*
X012668Y014048D02*
X008073Y014048D01*
X008207Y014206D02*
X012926Y014206D01*
X013227Y014206D02*
X014926Y014206D01*
X014964Y014222D02*
X014756Y014136D01*
X014597Y013977D01*
X014511Y013769D01*
X014511Y013544D01*
X014597Y013337D01*
X014756Y013178D01*
X014964Y013092D01*
X015189Y013092D01*
X015396Y013178D01*
X015555Y013337D01*
X015641Y013544D01*
X015641Y013769D01*
X015555Y013977D01*
X015396Y014136D01*
X015189Y014222D01*
X014964Y014222D01*
X015227Y014206D02*
X015756Y014206D01*
X015756Y014048D02*
X015485Y014048D01*
X015592Y013889D02*
X015756Y013889D01*
X015756Y013731D02*
X015641Y013731D01*
X015641Y013572D02*
X015756Y013572D01*
X015756Y013413D02*
X015587Y013413D01*
X015474Y013255D02*
X015793Y013255D01*
X015934Y013096D02*
X015200Y013096D01*
X014953Y013096D02*
X014589Y013096D01*
X014679Y013255D02*
X013473Y013255D01*
X013587Y013413D02*
X014566Y013413D01*
X014511Y013572D02*
X013641Y013572D01*
X013641Y013731D02*
X014511Y013731D01*
X014561Y013889D02*
X013592Y013889D01*
X013485Y014048D02*
X014668Y014048D01*
X014748Y012938D02*
X016093Y012938D01*
X016107Y012779D02*
X014907Y012779D01*
X015065Y012621D02*
X015952Y012621D01*
X016326Y012407D02*
X016326Y010657D01*
X014826Y009157D01*
X014439Y008974D02*
X008505Y008974D01*
X008502Y008816D02*
X014562Y008816D01*
X015091Y008816D02*
X017179Y008816D01*
X017148Y008657D02*
X008432Y008657D01*
X008209Y008499D02*
X017179Y008499D01*
X017288Y008340D02*
X005714Y008340D01*
X005590Y008499D02*
X007943Y008499D01*
X008076Y008907D02*
X002326Y008907D01*
X002517Y009291D02*
X004161Y009291D01*
X003946Y010084D02*
X002635Y010084D01*
X002774Y010243D02*
X003946Y010243D01*
X003946Y010401D02*
X002840Y010401D01*
X002856Y010560D02*
X003946Y010560D01*
X003966Y010718D02*
X002856Y010718D01*
X002856Y010877D02*
X004031Y010877D01*
X004174Y011035D02*
X002856Y011035D01*
X002856Y011194D02*
X006296Y011194D01*
X006296Y011352D02*
X002856Y011352D01*
X002840Y011511D02*
X006313Y011511D01*
X006378Y011669D02*
X002775Y011669D01*
X002636Y011828D02*
X006517Y011828D01*
X006296Y011035D02*
X004979Y011035D01*
X005122Y010877D02*
X006296Y010877D01*
X006296Y010718D02*
X005187Y010718D01*
X005206Y010560D02*
X006296Y010560D01*
X006313Y010401D02*
X005206Y010401D01*
X005206Y010243D02*
X006379Y010243D01*
X006518Y010084D02*
X005206Y010084D01*
X005206Y009925D02*
X008006Y009925D01*
X007946Y009767D02*
X005206Y009767D01*
X005193Y009608D02*
X007946Y009608D01*
X007980Y009450D02*
X005127Y009450D01*
X004992Y009291D02*
X007886Y009291D01*
X008113Y010084D02*
X007335Y010084D01*
X007476Y010407D02*
X009326Y010407D01*
X009484Y011194D02*
X007556Y011194D01*
X007556Y011352D02*
X007678Y011352D01*
X007926Y011557D02*
X007326Y012157D01*
X007326Y012407D01*
X007755Y012462D02*
X014319Y012462D01*
X014477Y012304D02*
X007747Y012304D01*
X007791Y012145D02*
X014636Y012145D01*
X014794Y011987D02*
X007949Y011987D01*
X007926Y011557D02*
X009726Y011557D01*
X010061Y011828D02*
X015050Y011828D01*
X016076Y013407D02*
X016076Y014157D01*
X016576Y014657D01*
X016890Y014365D02*
X020271Y014365D01*
X020271Y014523D02*
X016984Y014523D01*
X017005Y014682D02*
X017904Y014682D01*
X017682Y014840D02*
X016964Y014840D01*
X016840Y014999D02*
X017597Y014999D01*
X016578Y014206D02*
X020271Y014206D01*
X020271Y014048D02*
X019252Y014048D01*
X019444Y013889D02*
X020271Y013889D01*
X020271Y013413D02*
X019438Y013413D01*
X019505Y013572D02*
X019505Y013742D01*
X019225Y013255D02*
X020271Y013255D01*
X020271Y013096D02*
X016839Y013096D01*
X016975Y013255D02*
X018928Y013255D01*
X018991Y012335D02*
X018834Y012270D01*
X018714Y012149D01*
X018648Y011992D01*
X018648Y011822D01*
X018714Y011664D01*
X018834Y011544D01*
X018991Y011479D01*
X019052Y011479D01*
X019256Y011274D01*
X019256Y008942D01*
X019214Y008899D01*
X019148Y008742D01*
X019148Y008572D01*
X019214Y008414D01*
X019334Y008294D01*
X019491Y008229D01*
X019662Y008229D01*
X019819Y008294D01*
X019939Y008414D01*
X020005Y008572D01*
X020005Y008742D01*
X019939Y008899D01*
X019896Y008942D01*
X019896Y011471D01*
X019848Y011588D01*
X019758Y011678D01*
X019505Y011931D01*
X019505Y011992D01*
X019439Y012149D01*
X019319Y012270D01*
X019162Y012335D01*
X018991Y012335D01*
X018916Y012304D02*
X017632Y012304D01*
X017474Y012462D02*
X020271Y012462D01*
X020271Y012304D02*
X019237Y012304D01*
X019441Y012145D02*
X020271Y012145D01*
X020271Y011987D02*
X019505Y011987D01*
X019608Y011828D02*
X020271Y011828D01*
X020271Y011669D02*
X019766Y011669D01*
X019880Y011511D02*
X020271Y011511D01*
X020271Y011352D02*
X019896Y011352D01*
X019896Y011194D02*
X020271Y011194D01*
X020271Y011035D02*
X019896Y011035D01*
X019896Y010877D02*
X020271Y010877D01*
X020271Y010718D02*
X019896Y010718D01*
X019896Y010560D02*
X020271Y010560D01*
X020271Y010401D02*
X019896Y010401D01*
X019896Y010243D02*
X020271Y010243D01*
X020271Y010084D02*
X019896Y010084D01*
X019896Y009925D02*
X020271Y009925D01*
X020271Y009767D02*
X019896Y009767D01*
X019896Y009608D02*
X020271Y009608D01*
X020271Y009450D02*
X019896Y009450D01*
X019896Y009291D02*
X020271Y009291D01*
X020271Y009133D02*
X019896Y009133D01*
X019896Y008974D02*
X020271Y008974D01*
X020271Y008816D02*
X019974Y008816D01*
X020005Y008657D02*
X020271Y008657D01*
X020271Y008499D02*
X019974Y008499D01*
X019865Y008340D02*
X020271Y008340D01*
X020271Y008181D02*
X018500Y008181D01*
X018663Y008023D02*
X020271Y008023D01*
X020271Y007864D02*
X018821Y007864D01*
X018326Y007907D02*
X015326Y007907D01*
X012576Y007907D01*
X012331Y007547D02*
X007002Y007547D01*
X007194Y007389D02*
X018142Y007389D01*
X018096Y007230D02*
X007255Y007230D01*
X006974Y006755D02*
X018246Y006755D01*
X018375Y006596D02*
X002508Y006596D01*
X002537Y006755D02*
X006679Y006755D01*
X006826Y007157D02*
X002076Y007157D01*
X001836Y006596D02*
X001066Y006596D01*
X001066Y006438D02*
X001702Y006438D01*
X001639Y006279D02*
X001066Y006279D01*
X001066Y006120D02*
X001626Y006120D01*
X001661Y005962D02*
X001066Y005962D01*
X001066Y005803D02*
X001753Y005803D01*
X001702Y005645D02*
X001066Y005645D01*
X001066Y005486D02*
X001553Y005486D01*
X001487Y005328D02*
X001066Y005328D01*
X001066Y005169D02*
X001466Y005169D01*
X001477Y005011D02*
X001066Y005011D01*
X001066Y004852D02*
X001542Y004852D01*
X001677Y004694D02*
X001066Y004694D01*
X001066Y004535D02*
X001692Y004535D01*
X001607Y004376D02*
X001066Y004376D01*
X001066Y004218D02*
X001566Y004218D01*
X001566Y004059D02*
X001066Y004059D01*
X001066Y003901D02*
X001622Y003901D01*
X001728Y003742D02*
X001066Y003742D01*
X001066Y003584D02*
X001641Y003584D01*
X001527Y003425D02*
X001066Y003425D01*
X001066Y003267D02*
X001466Y003267D01*
X001466Y003108D02*
X001066Y003108D01*
X001066Y002950D02*
X001502Y002950D01*
X001580Y002791D02*
X001066Y002791D01*
X001066Y002632D02*
X001748Y002632D01*
X001620Y002315D02*
X001066Y002315D01*
X001066Y002157D02*
X001399Y002157D01*
X001291Y002066D02*
X001291Y002066D01*
X001252Y001998D02*
X001066Y001998D01*
X001066Y001840D02*
X001160Y001840D01*
X001099Y001681D02*
X001066Y001681D01*
X001066Y001523D02*
X001071Y001523D01*
X001066Y002474D02*
X020271Y002474D01*
X020271Y002632D02*
X002404Y002632D01*
X002573Y002791D02*
X020271Y002791D01*
X020271Y002950D02*
X002651Y002950D01*
X002686Y003108D02*
X020271Y003108D01*
X020271Y003267D02*
X002686Y003267D01*
X002626Y003425D02*
X020271Y003425D01*
X020271Y003584D02*
X019657Y003584D01*
X019895Y003742D02*
X020271Y003742D01*
X020271Y003901D02*
X020001Y003901D01*
X020056Y004059D02*
X020271Y004059D01*
X020271Y004218D02*
X020056Y004218D01*
X020016Y004376D02*
X020271Y004376D01*
X020271Y004535D02*
X019931Y004535D01*
X019846Y004694D02*
X020271Y004694D01*
X020271Y004852D02*
X019980Y004852D01*
X020046Y005011D02*
X020271Y005011D01*
X020271Y005169D02*
X020056Y005169D01*
X020036Y005328D02*
X020271Y005328D01*
X020271Y005486D02*
X019970Y005486D01*
X019821Y005645D02*
X020271Y005645D01*
X020271Y005803D02*
X019869Y005803D01*
X019961Y005962D02*
X020271Y005962D01*
X020271Y006120D02*
X019996Y006120D01*
X019984Y006279D02*
X020271Y006279D01*
X020271Y006438D02*
X019921Y006438D01*
X019778Y006596D02*
X020271Y006596D01*
X020271Y006755D02*
X019907Y006755D01*
X020006Y006913D02*
X020271Y006913D01*
X020271Y007072D02*
X020056Y007072D01*
X020056Y007230D02*
X020271Y007230D01*
X020271Y007389D02*
X020011Y007389D01*
X019919Y007547D02*
X020271Y007547D01*
X020271Y007706D02*
X019715Y007706D01*
X019288Y008340D02*
X017865Y008340D01*
X017974Y008499D02*
X019179Y008499D01*
X019148Y008657D02*
X018005Y008657D01*
X017974Y008816D02*
X019179Y008816D01*
X019256Y008974D02*
X017896Y008974D01*
X017896Y009133D02*
X019256Y009133D01*
X019256Y009291D02*
X017896Y009291D01*
X017896Y009450D02*
X019256Y009450D01*
X019256Y009608D02*
X017896Y009608D01*
X017896Y009767D02*
X019256Y009767D01*
X019256Y009925D02*
X017896Y009925D01*
X017896Y010084D02*
X019256Y010084D01*
X019256Y010243D02*
X017896Y010243D01*
X017896Y010401D02*
X019256Y010401D01*
X019256Y010560D02*
X017896Y010560D01*
X017896Y010718D02*
X019256Y010718D01*
X019256Y010877D02*
X017896Y010877D01*
X017896Y011035D02*
X019256Y011035D01*
X019256Y011194D02*
X017896Y011194D01*
X017896Y011352D02*
X019178Y011352D01*
X018914Y011511D02*
X017896Y011511D01*
X017896Y011669D02*
X018711Y011669D01*
X018648Y011828D02*
X017896Y011828D01*
X017890Y011987D02*
X018648Y011987D01*
X018712Y012145D02*
X017791Y012145D01*
X017576Y011907D02*
X016076Y013407D01*
X016396Y013731D02*
X016398Y013731D01*
X016396Y013889D02*
X016459Y013889D01*
X016420Y014048D02*
X016651Y014048D01*
X016148Y014682D02*
X008157Y014682D01*
X008242Y014523D02*
X015990Y014523D01*
X015895Y014428D02*
X015895Y014428D01*
X015832Y014365D02*
X008255Y014365D01*
X010084Y013255D02*
X010904Y013255D01*
X011222Y012621D02*
X011507Y012621D01*
X011326Y007907D02*
X007576Y007907D01*
X007576Y006657D01*
X007076Y006157D01*
X002176Y006157D01*
X002651Y006438D02*
X018232Y006438D01*
X018169Y006279D02*
X002714Y006279D01*
X002726Y006120D02*
X018156Y006120D01*
X018191Y005962D02*
X002691Y005962D01*
X002599Y005803D02*
X018283Y005803D01*
X018332Y005645D02*
X002451Y005645D01*
X002600Y005486D02*
X002800Y005486D01*
X003076Y005157D02*
X002076Y005157D01*
X002476Y004694D02*
X018307Y004694D01*
X018222Y004535D02*
X017782Y004535D01*
X017576Y004157D02*
X019076Y004157D01*
X018496Y003584D02*
X002512Y003584D01*
X002625Y003742D02*
X003459Y003742D01*
X003694Y003742D02*
X017459Y003742D01*
X017694Y003742D02*
X018258Y003742D01*
X017227Y003901D02*
X003926Y003901D01*
X003999Y004059D02*
X017153Y004059D01*
X017148Y004218D02*
X004005Y004218D01*
X003949Y004376D02*
X017204Y004376D01*
X017371Y004535D02*
X003782Y004535D01*
X003576Y004157D02*
X002176Y004157D01*
X002661Y004535D02*
X003371Y004535D01*
X003377Y004852D02*
X014526Y004852D01*
X014424Y005011D02*
X003479Y005011D01*
X003505Y005169D02*
X014398Y005169D01*
X014434Y005328D02*
X003469Y005328D01*
X003352Y005486D02*
X014550Y005486D01*
X014826Y005157D02*
X019076Y005157D01*
X019076Y006157D02*
X013826Y006157D01*
X012822Y007547D02*
X015081Y007547D01*
X015572Y007547D02*
X018233Y007547D01*
X018326Y007907D02*
X019076Y007157D01*
X019576Y008657D02*
X019576Y011407D01*
X019076Y011907D01*
X020271Y012621D02*
X017315Y012621D01*
X017157Y012779D02*
X020271Y012779D01*
X020271Y012938D02*
X016998Y012938D01*
X016886Y012145D02*
X016670Y012145D01*
X016646Y011987D02*
X017044Y011987D01*
X017203Y011828D02*
X016646Y011828D01*
X016646Y011669D02*
X017256Y011669D01*
X017256Y011511D02*
X016646Y011511D01*
X016646Y011352D02*
X017256Y011352D01*
X017256Y011194D02*
X016646Y011194D01*
X016646Y011035D02*
X017256Y011035D01*
X017256Y010877D02*
X016646Y010877D01*
X016646Y010718D02*
X017256Y010718D01*
X017256Y010560D02*
X016633Y010560D01*
X016523Y010401D02*
X017256Y010401D01*
X017256Y010243D02*
X016365Y010243D01*
X016206Y010084D02*
X017256Y010084D01*
X017256Y009925D02*
X016048Y009925D01*
X015889Y009767D02*
X017256Y009767D01*
X017256Y009608D02*
X015731Y009608D01*
X015572Y009450D02*
X017256Y009450D01*
X017256Y009291D02*
X015413Y009291D01*
X015255Y009133D02*
X017256Y009133D01*
X017256Y008974D02*
X015214Y008974D01*
X017576Y008657D02*
X017576Y011907D01*
X019591Y014682D02*
X020271Y014682D01*
X020271Y014840D02*
X019641Y014840D01*
X019641Y014999D02*
X020271Y014999D01*
X020271Y015157D02*
X019641Y015157D01*
X019641Y015316D02*
X020271Y015316D01*
X020271Y015474D02*
X019641Y015474D01*
X019590Y015633D02*
X020271Y015633D01*
X019589Y018795D02*
X019589Y018795D01*
X012196Y007706D02*
X002588Y007706D01*
X002549Y007547D02*
X006651Y007547D01*
X005063Y008499D02*
X002695Y008499D01*
X001604Y007547D02*
X001066Y007547D01*
X001066Y007389D02*
X001512Y007389D01*
X001466Y007230D02*
X001066Y007230D01*
X001066Y007072D02*
X001466Y007072D01*
X001517Y006913D02*
X001066Y006913D01*
X001066Y006755D02*
X001616Y006755D01*
X002533Y002315D02*
X018620Y002315D01*
X018399Y002157D02*
X002754Y002157D01*
X002901Y001998D02*
X018252Y001998D01*
X018291Y002066D02*
X018291Y002066D01*
X018160Y001840D02*
X002993Y001840D01*
X003054Y001681D02*
X018099Y001681D01*
X018071Y001523D02*
X003082Y001523D01*
X003094Y001364D02*
X018058Y001364D01*
X018086Y001206D02*
X003066Y001206D01*
X003035Y001047D02*
X018118Y001047D01*
X018209Y000889D02*
X002943Y000889D01*
X002841Y000730D02*
X018312Y000730D01*
X018501Y000571D02*
X002652Y000571D01*
X007476Y010407D02*
X006926Y010957D01*
X005576Y015157D02*
X003076Y015157D01*
X002788Y014840D02*
X002591Y014840D01*
X003852Y018487D02*
X005183Y018487D01*
X015102Y005486D02*
X018183Y005486D01*
X019533Y002315D02*
X020271Y002315D01*
X020271Y002157D02*
X019754Y002157D01*
X019901Y001998D02*
X020271Y001998D01*
X020271Y001840D02*
X019993Y001840D01*
X020054Y001681D02*
X020271Y001681D01*
X020271Y001523D02*
X020082Y001523D01*
X020094Y001364D02*
X020271Y001364D01*
X020271Y001206D02*
X020066Y001206D01*
X020035Y001047D02*
X020271Y001047D01*
X020271Y000889D02*
X019943Y000889D01*
X019841Y000730D02*
X020271Y000730D01*
X020271Y000571D02*
X019652Y000571D01*
D22*
X006076Y022407D02*
X003326Y022407D01*
X002326Y021407D01*
X002326Y015857D01*
X002226Y015757D01*
X006076Y022407D02*
X006842Y023173D01*
X006842Y024157D01*
M02*
