%
M48
M72
T01C0.0236
T02C0.0276
T03C0.0394
T04C0.0400
T05C0.0440
T06C0.0520
T07C0.0550
T08C0.1180
T09C0.1260
T10C0.1300
%
T01
X3576Y4157
X3076Y5157
X5326Y8157
X6826Y7157
X7576Y7907
X8076Y8907
X10326Y9657
X9726Y11557
X9826Y12907
X11326Y13157
X11826Y12907
X10576Y15407
X12326Y16157
X11826Y18157
X11076Y18657
X11326Y19407
X11576Y21407
X12326Y21407
X13326Y22157
X13826Y19157
X14326Y17657
X15576Y16157
X16576Y17657
X15826Y19157
X16576Y14657
X16826Y13657
X16326Y12407
X15326Y12157
X14826Y9157
X15326Y7907
X13826Y6157
X14826Y5157
X12576Y7907
X11326Y7907
X7326Y12407
X7826Y14407
X5576Y14407
X5576Y15157
X3576Y18157
X5576Y18657
X3576Y20657
X3576Y21407
X7826Y19407
X8326Y18657
X9326Y18157
X3076Y15157
X2326Y8907
X17576Y8657
X19576Y8657
X19076Y11907
X19076Y13657
X17576Y4157
T02
X15076Y13657
X13076Y13657
X18076Y15157
X19076Y15157
T03
X12576Y9657
X8576Y9657
T04
X2176Y8157
X2076Y7157
X2176Y6157
X2076Y5157
X2176Y4157
X2076Y3157
T05
X19076Y4157
X19076Y5157
X19076Y6157
X19076Y7157
T06
X6926Y10957
X4576Y10157
X2226Y10957
X2226Y15757
X6926Y15757
T07
X6842Y24157
X8811Y24157
X4842Y24157
T08
X17096Y21694
X18566Y23325
T09
X18576Y20443
T10
X2076Y1407
X19076Y1407
X19076Y17907
X2076Y24407
M30
