G75*
G70*
%OFA0B0*%
%FSLAX24Y24*%
%IPPOS*%
%LPD*%
%AMOC8*
5,1,8,0,0,1.08239X$1,22.5*
%
%ADD10C,0.0030*%
%ADD11C,0.0040*%
%ADD12R,0.0200X0.0200*%
%ADD13C,0.0080*%
%ADD14C,0.0050*%
%ADD15R,0.0295X0.0669*%
%ADD16R,0.1150X0.0180*%
%ADD17R,0.0960X0.0110*%
%ADD18R,0.0110X0.0960*%
%ADD19R,0.0730X0.1260*%
%ADD20R,0.0730X0.0340*%
%ADD21R,0.0669X0.0295*%
%ADD22R,0.0180X0.0230*%
%ADD23C,0.0060*%
%ADD24C,0.0100*%
%ADD25R,0.0230X0.0230*%
%ADD26C,0.0000*%
D10*
X001201Y002922D02*
X001201Y003025D01*
X001201Y002974D02*
X001511Y002974D01*
X001511Y003025D02*
X001511Y002922D01*
X001460Y003131D02*
X001253Y003131D01*
X001201Y003182D01*
X001201Y003286D01*
X001253Y003337D01*
X001253Y003444D02*
X001305Y003444D01*
X001356Y003495D01*
X001356Y003599D01*
X001408Y003650D01*
X001460Y003650D01*
X001511Y003599D01*
X001511Y003495D01*
X001460Y003444D01*
X001460Y003337D02*
X001511Y003286D01*
X001511Y003182D01*
X001460Y003131D01*
X001253Y003444D02*
X001201Y003495D01*
X001201Y003599D01*
X001253Y003650D01*
X001201Y003757D02*
X001201Y003912D01*
X001253Y003963D01*
X001356Y003963D01*
X001408Y003912D01*
X001408Y003757D01*
X001511Y003757D02*
X001201Y003757D01*
X003536Y007863D02*
X003691Y007863D01*
X003743Y007915D01*
X003743Y007967D01*
X003691Y008018D01*
X003536Y008018D01*
X003536Y007863D02*
X003536Y008174D01*
X003691Y008174D01*
X003743Y008122D01*
X003743Y008070D01*
X003691Y008018D01*
X003849Y007863D02*
X004056Y007863D01*
X004162Y007915D02*
X004162Y008174D01*
X004369Y008174D02*
X004369Y007915D01*
X004317Y007863D01*
X004213Y007863D01*
X004162Y007915D01*
X004475Y007863D02*
X004475Y008174D01*
X004682Y008174D01*
X004788Y008122D02*
X004788Y008070D01*
X004840Y008018D01*
X004943Y008018D01*
X004995Y007967D01*
X004995Y007915D01*
X004943Y007863D01*
X004840Y007863D01*
X004788Y007915D01*
X004682Y007863D02*
X004475Y007863D01*
X004475Y008018D02*
X004578Y008018D01*
X004788Y008122D02*
X004840Y008174D01*
X004943Y008174D01*
X004995Y008122D01*
X005101Y008174D02*
X005308Y008174D01*
X005204Y008174D02*
X005204Y007863D01*
X005414Y007863D02*
X005517Y007863D01*
X005466Y007863D02*
X005466Y008174D01*
X005517Y008174D02*
X005414Y008174D01*
X005623Y008122D02*
X005623Y007915D01*
X005674Y007863D01*
X005778Y007863D01*
X005829Y007915D01*
X005936Y007967D02*
X006142Y008174D01*
X005936Y008174D02*
X005936Y007863D01*
X005987Y008018D02*
X006142Y007863D01*
X005829Y008122D02*
X005778Y008174D01*
X005674Y008174D01*
X005623Y008122D01*
X003849Y008174D02*
X003849Y007863D01*
X008741Y012274D02*
X008793Y012222D01*
X008897Y012222D01*
X008948Y012274D01*
X008948Y012480D01*
X008897Y012532D01*
X008793Y012532D01*
X008741Y012480D01*
X008741Y012274D01*
X008845Y012325D02*
X008948Y012222D01*
X009054Y012222D02*
X009261Y012222D01*
X009158Y012222D02*
X009158Y012532D01*
X009054Y012429D01*
X009801Y013422D02*
X009801Y013577D01*
X009853Y013629D01*
X009956Y013629D01*
X010008Y013577D01*
X010008Y013422D01*
X010008Y013525D02*
X010111Y013629D01*
X010060Y013735D02*
X010111Y013787D01*
X010111Y013890D01*
X010060Y013942D01*
X009956Y013942D01*
X009905Y013890D01*
X009905Y013838D01*
X009956Y013735D01*
X009801Y013735D01*
X009801Y013942D01*
X009801Y013422D02*
X010111Y013422D01*
X010341Y012932D02*
X010497Y012932D01*
X010548Y012880D01*
X010548Y012777D01*
X010497Y012725D01*
X010341Y012725D01*
X010341Y012622D02*
X010341Y012932D01*
X010445Y012725D02*
X010548Y012622D01*
X010654Y012674D02*
X010706Y012622D01*
X010810Y012622D01*
X010861Y012674D01*
X010861Y012725D01*
X010810Y012777D01*
X010758Y012777D01*
X010810Y012777D02*
X010861Y012829D01*
X010861Y012880D01*
X010810Y012932D01*
X010706Y012932D01*
X010654Y012880D01*
X010706Y011682D02*
X010810Y011682D01*
X010861Y011630D01*
X010861Y011579D01*
X010810Y011527D01*
X010861Y011475D01*
X010861Y011424D01*
X010810Y011372D01*
X010706Y011372D01*
X010654Y011424D01*
X010548Y011424D02*
X010497Y011372D01*
X010393Y011372D01*
X010341Y011424D01*
X010341Y011630D01*
X010393Y011682D01*
X010497Y011682D01*
X010548Y011630D01*
X010654Y011630D02*
X010706Y011682D01*
X010758Y011527D02*
X010810Y011527D01*
X011801Y011390D02*
X011956Y011235D01*
X011956Y011442D01*
X012111Y011390D02*
X011801Y011390D01*
X011853Y011129D02*
X011956Y011129D01*
X012008Y011077D01*
X012008Y010922D01*
X012008Y011025D02*
X012111Y011129D01*
X012111Y010922D02*
X011801Y010922D01*
X011801Y011077D01*
X011853Y011129D01*
X013591Y011517D02*
X013643Y011466D01*
X013747Y011466D01*
X013798Y011517D01*
X013904Y011466D02*
X014111Y011672D01*
X014111Y011724D01*
X014060Y011776D01*
X013956Y011776D01*
X013904Y011724D01*
X013798Y011724D02*
X013747Y011776D01*
X013643Y011776D01*
X013591Y011724D01*
X013591Y011517D01*
X013904Y011466D02*
X014111Y011466D01*
X014526Y012032D02*
X014733Y012342D01*
X014839Y012342D02*
X015046Y012342D01*
X014943Y012342D02*
X014943Y012032D01*
X015152Y012032D02*
X015152Y012239D01*
X015256Y012342D01*
X015359Y012239D01*
X015359Y012032D01*
X015465Y012032D02*
X015672Y012032D01*
X015778Y012032D02*
X015985Y012032D01*
X015882Y012032D02*
X015882Y012342D01*
X015778Y012239D01*
X015465Y012342D02*
X015465Y012032D01*
X015359Y012187D02*
X015152Y012187D01*
X014733Y012032D02*
X014526Y012342D01*
X013560Y015172D02*
X013353Y015172D01*
X013301Y015224D01*
X013301Y015327D01*
X013353Y015379D01*
X013301Y015485D02*
X013456Y015485D01*
X013405Y015588D01*
X013405Y015640D01*
X013456Y015692D01*
X013560Y015692D01*
X013611Y015640D01*
X013611Y015537D01*
X013560Y015485D01*
X013560Y015379D02*
X013611Y015327D01*
X013611Y015224D01*
X013560Y015172D01*
X013301Y015485D02*
X013301Y015692D01*
X011361Y015640D02*
X011051Y015640D01*
X011206Y015485D01*
X011206Y015692D01*
X011103Y015379D02*
X011051Y015327D01*
X011051Y015224D01*
X011103Y015172D01*
X011310Y015172D01*
X011361Y015224D01*
X011361Y015327D01*
X011310Y015379D01*
X009211Y015080D02*
X009160Y015132D01*
X009056Y015132D01*
X009004Y015080D01*
X008898Y015080D02*
X008898Y014874D01*
X008847Y014822D01*
X008691Y014822D01*
X008691Y015132D01*
X008847Y015132D01*
X008898Y015080D01*
X009004Y014822D02*
X009211Y015029D01*
X009211Y015080D01*
X009211Y014822D02*
X009004Y014822D01*
X008311Y017422D02*
X008311Y017525D01*
X008311Y017474D02*
X008001Y017474D01*
X008001Y017525D02*
X008001Y017422D01*
X008053Y017631D02*
X008260Y017631D01*
X008311Y017682D01*
X008311Y017786D01*
X008260Y017837D01*
X008311Y017944D02*
X008105Y018150D01*
X008053Y018150D01*
X008001Y018099D01*
X008001Y017995D01*
X008053Y017944D01*
X008053Y017837D02*
X008001Y017786D01*
X008001Y017682D01*
X008053Y017631D01*
X008311Y017944D02*
X008311Y018150D01*
X011767Y022132D02*
X011715Y022184D01*
X011767Y022132D02*
X011870Y022132D01*
X011922Y022184D01*
X011922Y022235D01*
X011870Y022287D01*
X011767Y022287D01*
X011715Y022339D01*
X011715Y022390D01*
X011767Y022442D01*
X011870Y022442D01*
X011922Y022390D01*
X012028Y022339D02*
X012132Y022442D01*
X012132Y022132D01*
X012235Y022132D02*
X012028Y022132D01*
X010651Y022604D02*
X010341Y022604D01*
X010341Y022759D01*
X010393Y022811D01*
X010496Y022811D01*
X010548Y022759D01*
X010548Y022604D01*
X010548Y022708D02*
X010651Y022811D01*
X010651Y022917D02*
X010651Y023124D01*
X010651Y023230D02*
X010651Y023437D01*
X010651Y023543D02*
X010445Y023543D01*
X010341Y023647D01*
X010445Y023750D01*
X010651Y023750D01*
X010496Y023750D02*
X010496Y023543D01*
X010393Y023856D02*
X010341Y023856D01*
X010393Y023856D02*
X010496Y023960D01*
X010651Y023960D01*
X010496Y023960D02*
X010393Y024063D01*
X010341Y024063D01*
X010393Y024482D02*
X010341Y024534D01*
X010341Y024638D01*
X010393Y024689D01*
X010393Y024795D02*
X010600Y024795D01*
X010651Y024847D01*
X010651Y024951D01*
X010600Y025002D01*
X010393Y025002D01*
X010341Y024951D01*
X010341Y024847D01*
X010393Y024795D01*
X010600Y024689D02*
X010651Y024638D01*
X010651Y024534D01*
X010600Y024482D01*
X010393Y024482D01*
X010703Y024376D02*
X010703Y024169D01*
X010651Y025109D02*
X010341Y025109D01*
X010651Y025315D01*
X010341Y025315D01*
X010341Y023230D02*
X010651Y023230D01*
X010496Y023021D02*
X010496Y022917D01*
X010341Y022917D02*
X010341Y023124D01*
X010341Y022917D02*
X010651Y022917D01*
X016041Y023046D02*
X016041Y023201D01*
X016093Y023253D01*
X016196Y023253D01*
X016248Y023201D01*
X016248Y023046D01*
X016248Y023149D02*
X016351Y023253D01*
X016351Y023359D02*
X016300Y023359D01*
X016093Y023566D01*
X016041Y023566D01*
X016041Y023359D01*
X016041Y023046D02*
X016351Y023046D01*
X016819Y019892D02*
X016922Y019892D01*
X016870Y019892D02*
X016870Y019634D01*
X016819Y019582D01*
X016767Y019582D01*
X016715Y019634D01*
X017028Y019582D02*
X017235Y019582D01*
X017132Y019582D02*
X017132Y019892D01*
X017028Y019789D01*
X016911Y015392D02*
X016911Y015185D01*
X016911Y015288D02*
X016601Y015288D01*
X016705Y015185D01*
X016653Y015079D02*
X016601Y015027D01*
X016601Y014924D01*
X016653Y014872D01*
X016860Y014872D01*
X016911Y014924D01*
X016911Y015027D01*
X016860Y015079D01*
X018091Y013432D02*
X018247Y013432D01*
X018298Y013380D01*
X018298Y013277D01*
X018247Y013225D01*
X018091Y013225D01*
X018091Y013122D02*
X018091Y013432D01*
X018195Y013225D02*
X018298Y013122D01*
X018404Y013122D02*
X018611Y013329D01*
X018611Y013380D01*
X018560Y013432D01*
X018456Y013432D01*
X018404Y013380D01*
X018404Y013122D02*
X018611Y013122D01*
X018611Y010192D02*
X018611Y009985D01*
X018611Y010088D02*
X018301Y010088D01*
X018405Y009985D01*
X018456Y009879D02*
X018353Y009879D01*
X018301Y009827D01*
X018301Y009672D01*
X018611Y009672D01*
X018508Y009672D02*
X018508Y009827D01*
X018456Y009879D01*
X018508Y009775D02*
X018611Y009879D01*
X017373Y007232D02*
X017269Y007232D01*
X017218Y007180D01*
X017218Y006974D01*
X017269Y006922D01*
X017373Y006922D01*
X017424Y006974D01*
X017424Y007180D02*
X017373Y007232D01*
X017111Y007180D02*
X017060Y007232D01*
X016956Y007232D01*
X016904Y007180D01*
X016904Y006974D01*
X016956Y006922D01*
X017060Y006922D01*
X017111Y006974D01*
X016798Y007025D02*
X016798Y007232D01*
X016591Y007232D02*
X016591Y007025D01*
X016695Y006922D01*
X016798Y007025D01*
X016747Y006232D02*
X016643Y006232D01*
X016591Y006180D01*
X016591Y005974D01*
X016643Y005922D01*
X016747Y005922D01*
X016798Y005974D01*
X016798Y006077D01*
X016695Y006077D01*
X016798Y006180D02*
X016747Y006232D01*
X016904Y006232D02*
X016904Y005922D01*
X017111Y005922D02*
X016904Y006232D01*
X017111Y006232D02*
X017111Y005922D01*
X017218Y005922D02*
X017218Y006232D01*
X017373Y006232D01*
X017424Y006180D01*
X017424Y005974D01*
X017373Y005922D01*
X017218Y005922D01*
X017218Y005232D02*
X017373Y005232D01*
X017424Y005180D01*
X017424Y004974D01*
X017373Y004922D01*
X017218Y004922D01*
X017218Y005232D01*
X017111Y005232D02*
X016904Y004922D01*
X017111Y004922D02*
X016904Y005232D01*
X016798Y005232D02*
X016591Y005232D01*
X016695Y005232D02*
X016695Y004922D01*
X016747Y004232D02*
X016798Y004180D01*
X016798Y004077D01*
X016747Y004025D01*
X016591Y004025D01*
X016591Y003922D02*
X016591Y004232D01*
X016747Y004232D01*
X016904Y004232D02*
X017111Y003922D01*
X017218Y003922D02*
X017218Y004232D01*
X017373Y004232D01*
X017424Y004180D01*
X017424Y003974D01*
X017373Y003922D01*
X017218Y003922D01*
X016904Y003922D02*
X017111Y004232D01*
X016798Y003922D02*
X016695Y004025D01*
X013633Y001017D02*
X013633Y000872D01*
X013536Y000872D02*
X013536Y001017D01*
X013585Y001065D01*
X013633Y001017D01*
X013536Y001017D02*
X013488Y001065D01*
X013440Y001065D01*
X013440Y000872D01*
X013338Y000920D02*
X013338Y001017D01*
X013290Y001065D01*
X013193Y001065D01*
X013145Y001017D01*
X013145Y000920D01*
X013193Y000872D01*
X013290Y000872D01*
X013338Y000920D01*
X013044Y000872D02*
X012899Y000872D01*
X012850Y000920D01*
X012850Y001017D01*
X012899Y001065D01*
X013044Y001065D01*
X012751Y000920D02*
X012751Y000872D01*
X012703Y000872D01*
X012703Y000920D01*
X012751Y000920D01*
X012603Y000872D02*
X012507Y000872D01*
X012555Y000872D02*
X012555Y001162D01*
X012507Y001162D01*
X012359Y001162D02*
X012359Y001210D01*
X012359Y001065D02*
X012359Y000872D01*
X012407Y000872D02*
X012310Y000872D01*
X012209Y000872D02*
X012064Y000872D01*
X012016Y000920D01*
X012064Y000969D01*
X012209Y000969D01*
X012209Y001017D02*
X012209Y000872D01*
X012209Y001017D02*
X012161Y001065D01*
X012064Y001065D01*
X011914Y001017D02*
X011914Y000872D01*
X011818Y000872D02*
X011818Y001017D01*
X011866Y001065D01*
X011914Y001017D01*
X011818Y001017D02*
X011769Y001065D01*
X011721Y001065D01*
X011721Y000872D01*
X011620Y000872D02*
X011475Y000872D01*
X011426Y000920D01*
X011426Y001017D01*
X011475Y001065D01*
X011620Y001065D01*
X011620Y000824D01*
X011571Y000775D01*
X011523Y000775D01*
X011325Y000920D02*
X011277Y000872D01*
X011180Y000872D01*
X011132Y000920D01*
X011132Y001114D01*
X011180Y001162D01*
X011277Y001162D01*
X011325Y001114D01*
X011325Y001017D01*
X011277Y000969D01*
X011277Y001065D01*
X011180Y001065D01*
X011180Y000969D01*
X011277Y000969D01*
X011030Y000920D02*
X010982Y000969D01*
X010885Y000969D01*
X010837Y001017D01*
X010885Y001065D01*
X011030Y001065D01*
X011030Y000920D02*
X010982Y000872D01*
X010837Y000872D01*
X010736Y000969D02*
X010542Y000969D01*
X010542Y001017D02*
X010591Y001065D01*
X010687Y001065D01*
X010736Y001017D01*
X010736Y000969D01*
X010687Y000872D02*
X010591Y000872D01*
X010542Y000920D01*
X010542Y001017D01*
X010442Y001065D02*
X010394Y001065D01*
X010297Y000969D01*
X010297Y001065D02*
X010297Y000872D01*
X010196Y000872D02*
X010051Y000872D01*
X010002Y000920D01*
X010051Y000969D01*
X010196Y000969D01*
X010196Y001017D02*
X010196Y000872D01*
X010196Y001017D02*
X010147Y001065D01*
X010051Y001065D01*
X009901Y001065D02*
X009804Y000872D01*
X009708Y001065D01*
X009559Y001065D02*
X009559Y000872D01*
X009511Y000872D02*
X009608Y000872D01*
X009411Y000872D02*
X009315Y000872D01*
X009363Y000872D02*
X009363Y001162D01*
X009315Y001162D01*
X009214Y001017D02*
X009165Y001065D01*
X009068Y001065D01*
X009020Y001017D01*
X009020Y000920D01*
X009068Y000872D01*
X009165Y000872D01*
X009214Y000920D01*
X009214Y001017D01*
X008919Y001065D02*
X008919Y000824D01*
X008871Y000775D01*
X008822Y000775D01*
X008774Y000872D02*
X008919Y000872D01*
X008774Y000872D02*
X008725Y000920D01*
X008725Y001065D01*
X008624Y001065D02*
X008479Y001065D01*
X008431Y001017D01*
X008431Y000920D01*
X008479Y000872D01*
X008624Y000872D01*
X008624Y001162D01*
X008330Y001017D02*
X008330Y000872D01*
X008330Y001017D02*
X008281Y001065D01*
X008136Y001065D01*
X008136Y000872D01*
X008035Y000872D02*
X007890Y000872D01*
X007841Y000920D01*
X007890Y000969D01*
X008035Y000969D01*
X008035Y001017D02*
X008035Y000872D01*
X008035Y001017D02*
X007987Y001065D01*
X007890Y001065D01*
X009511Y001065D02*
X009559Y001065D01*
X009559Y001162D02*
X009559Y001210D01*
X012310Y001065D02*
X012359Y001065D01*
X015226Y008847D02*
X015226Y008950D01*
X015226Y008899D02*
X015536Y008899D01*
X015536Y008950D02*
X015536Y008847D01*
X015485Y009056D02*
X015536Y009107D01*
X015536Y009211D01*
X015485Y009262D01*
X015536Y009369D02*
X015536Y009575D01*
X015536Y009472D02*
X015226Y009472D01*
X015330Y009369D01*
X015278Y009262D02*
X015226Y009211D01*
X015226Y009107D01*
X015278Y009056D01*
X015485Y009056D01*
X009961Y010322D02*
X009754Y010322D01*
X009858Y010322D02*
X009858Y010632D01*
X009754Y010529D01*
X009648Y010580D02*
X009648Y010374D01*
X009597Y010322D01*
X009441Y010322D01*
X009441Y010632D01*
X009597Y010632D01*
X009648Y010580D01*
X002361Y017372D02*
X002154Y017372D01*
X002258Y017372D02*
X002258Y017682D01*
X002154Y017579D01*
X002048Y017682D02*
X001841Y017475D01*
X001893Y017527D02*
X002048Y017372D01*
X001841Y017372D02*
X001841Y017682D01*
X001841Y018872D02*
X001841Y019182D01*
X001997Y019182D01*
X002048Y019130D01*
X002048Y019027D01*
X001997Y018975D01*
X001841Y018975D01*
X001945Y018975D02*
X002048Y018872D01*
X002154Y018924D02*
X002154Y019027D01*
X002310Y019027D01*
X002361Y018975D01*
X002361Y018924D01*
X002310Y018872D01*
X002206Y018872D01*
X002154Y018924D01*
X002154Y019027D02*
X002258Y019130D01*
X002361Y019182D01*
X002801Y020922D02*
X003111Y020922D01*
X003111Y021129D01*
X003111Y021235D02*
X003111Y021442D01*
X003111Y021548D02*
X003111Y021703D01*
X003060Y021755D01*
X002853Y021755D01*
X002801Y021703D01*
X002801Y021548D01*
X003111Y021548D01*
X002956Y021338D02*
X002956Y021235D01*
X002801Y021235D02*
X002801Y021442D01*
X002801Y021235D02*
X003111Y021235D01*
X003111Y021861D02*
X003111Y022068D01*
X003111Y021964D02*
X002801Y021964D01*
X002905Y021861D01*
D11*
X002956Y020117D02*
X002197Y020117D01*
X002197Y019497D02*
X002956Y019497D01*
X010267Y014287D02*
X010267Y013527D01*
X010886Y013527D02*
X010886Y014287D01*
X011947Y015097D02*
X012706Y015097D01*
X012706Y015717D02*
X011947Y015717D01*
X014197Y015717D02*
X014956Y015717D01*
X014956Y015097D02*
X014197Y015097D01*
X012886Y011787D02*
X012886Y011027D01*
X012267Y011027D02*
X012267Y011787D01*
X011206Y011847D02*
X010447Y011847D01*
X010447Y012467D02*
X011206Y012467D01*
X011206Y011217D02*
X010447Y011217D01*
X010447Y010597D02*
X011206Y010597D01*
X011615Y002147D02*
X011875Y002147D01*
X011962Y002061D01*
X011962Y001887D01*
X011875Y001800D01*
X011615Y001800D01*
X011615Y001627D02*
X011615Y002147D01*
X011789Y001800D02*
X011962Y001627D01*
X012131Y001714D02*
X012131Y001887D01*
X012218Y001974D01*
X012391Y001974D01*
X012478Y001887D01*
X012478Y001800D01*
X012131Y001800D01*
X012131Y001714D02*
X012218Y001627D01*
X012391Y001627D01*
X012646Y001627D02*
X012820Y001627D01*
X012733Y001627D02*
X012733Y002147D01*
X012646Y002147D01*
X013077Y001974D02*
X013250Y001974D01*
X013337Y001887D01*
X013337Y001627D01*
X013077Y001627D01*
X012990Y001714D01*
X013077Y001800D01*
X013337Y001800D01*
X013506Y001714D02*
X013506Y001974D01*
X013506Y001714D02*
X013593Y001627D01*
X013853Y001627D01*
X013853Y001540D02*
X013766Y001453D01*
X013679Y001453D01*
X013853Y001540D02*
X013853Y001974D01*
X014537Y002147D02*
X014537Y001627D01*
X014537Y001800D02*
X014797Y001800D01*
X014884Y001887D01*
X014884Y002061D01*
X014797Y002147D01*
X014537Y002147D01*
X014711Y001800D02*
X014884Y001627D01*
X015053Y001714D02*
X015053Y001887D01*
X015139Y001974D01*
X015313Y001974D01*
X015400Y001887D01*
X015400Y001800D01*
X015053Y001800D01*
X015053Y001714D02*
X015139Y001627D01*
X015313Y001627D01*
X015742Y001627D02*
X015568Y001974D01*
X015915Y001974D02*
X015742Y001627D01*
X016600Y001627D02*
X016600Y001974D01*
X016773Y002147D01*
X016947Y001974D01*
X016947Y001627D01*
X016947Y001887D02*
X016600Y001887D01*
X010931Y001887D02*
X010931Y001627D01*
X010931Y001887D02*
X010844Y001974D01*
X010671Y001974D01*
X010584Y001887D01*
X010414Y001974D02*
X010240Y001974D01*
X010327Y002061D02*
X010327Y001714D01*
X010414Y001627D01*
X010584Y001627D02*
X010584Y002147D01*
X010072Y001887D02*
X010072Y001714D01*
X009985Y001627D01*
X009811Y001627D01*
X009725Y001714D01*
X009725Y001887D01*
X009811Y001974D01*
X009985Y001974D01*
X010072Y001887D01*
X009556Y001887D02*
X009556Y001714D01*
X009469Y001627D01*
X009296Y001627D01*
X009209Y001714D01*
X009209Y001887D01*
X009296Y001974D01*
X009469Y001974D01*
X009556Y001887D01*
X009039Y001974D02*
X008865Y001974D01*
X008952Y002061D02*
X008952Y001714D01*
X009039Y001627D01*
X008697Y001800D02*
X008697Y001887D01*
X008610Y001974D01*
X008436Y001974D01*
X008350Y001887D01*
X008350Y001714D01*
X008436Y001627D01*
X008610Y001627D01*
X008697Y001800D02*
X008350Y001800D01*
X008181Y001627D02*
X008181Y001974D01*
X008181Y001627D02*
X007921Y001627D01*
X007834Y001714D01*
X007834Y001974D01*
X007577Y002147D02*
X007577Y001627D01*
X007490Y001627D02*
X007664Y001627D01*
X007322Y001714D02*
X007235Y001627D01*
X006975Y001627D01*
X006975Y002147D01*
X007235Y002147D01*
X007322Y002061D01*
X007322Y001974D01*
X007235Y001887D01*
X006975Y001887D01*
X007235Y001887D02*
X007322Y001800D01*
X007322Y001714D01*
X007490Y002147D02*
X007577Y002147D01*
X006290Y001974D02*
X006290Y001540D01*
X006204Y001453D01*
X006117Y001453D01*
X006030Y001627D02*
X005943Y001714D01*
X005943Y001974D01*
X005775Y001974D02*
X005514Y001974D01*
X005428Y001887D01*
X005428Y001714D01*
X005514Y001627D01*
X005775Y001627D01*
X005775Y002147D01*
X005259Y001887D02*
X005259Y001627D01*
X005259Y001887D02*
X005172Y001974D01*
X004912Y001974D01*
X004912Y001627D01*
X004743Y001627D02*
X004743Y001974D01*
X004570Y002147D01*
X004396Y001974D01*
X004396Y001627D01*
X004396Y001887D02*
X004743Y001887D01*
X006030Y001627D02*
X006290Y001627D01*
X018197Y012347D02*
X018956Y012347D01*
X018956Y012967D02*
X018197Y012967D01*
X018767Y010537D02*
X018767Y009777D01*
X019386Y009777D02*
X019386Y010537D01*
X015636Y023527D02*
X015636Y024287D01*
X015017Y024287D02*
X015017Y023527D01*
D12*
X019076Y007157D03*
X019076Y006157D03*
X019076Y005157D03*
X019076Y004157D03*
D13*
X018826Y003657D02*
X019326Y003657D01*
X019326Y007657D02*
X018826Y007657D01*
X017226Y009117D02*
X015926Y009117D01*
X015926Y011697D01*
X017226Y011697D01*
X017226Y009117D01*
X015426Y012757D02*
X012726Y012757D01*
X012667Y012759D01*
X012609Y012765D01*
X012550Y012774D01*
X012493Y012788D01*
X012437Y012805D01*
X012382Y012826D01*
X012328Y012850D01*
X012276Y012878D01*
X012226Y012909D01*
X012178Y012943D01*
X012133Y012980D01*
X012090Y013021D01*
X012049Y013064D01*
X012012Y013109D01*
X011978Y013157D01*
X011947Y013207D01*
X011919Y013259D01*
X011895Y013313D01*
X011874Y013368D01*
X011857Y013424D01*
X011843Y013481D01*
X011834Y013540D01*
X011828Y013598D01*
X011826Y013657D01*
X011828Y013716D01*
X011834Y013774D01*
X011843Y013833D01*
X011857Y013890D01*
X011874Y013946D01*
X011895Y014001D01*
X011919Y014055D01*
X011947Y014107D01*
X011978Y014157D01*
X012012Y014205D01*
X012049Y014250D01*
X012090Y014293D01*
X012133Y014334D01*
X012178Y014371D01*
X012226Y014405D01*
X012276Y014436D01*
X012328Y014464D01*
X012382Y014488D01*
X012437Y014509D01*
X012493Y014526D01*
X012550Y014540D01*
X012609Y014549D01*
X012667Y014555D01*
X012726Y014557D01*
X015426Y014557D01*
X015485Y014555D01*
X015543Y014549D01*
X015602Y014540D01*
X015659Y014526D01*
X015715Y014509D01*
X015770Y014488D01*
X015824Y014464D01*
X015876Y014436D01*
X015926Y014405D01*
X015974Y014371D01*
X016019Y014334D01*
X016062Y014293D01*
X016103Y014250D01*
X016140Y014205D01*
X016174Y014157D01*
X016205Y014107D01*
X016233Y014055D01*
X016257Y014001D01*
X016278Y013946D01*
X016295Y013890D01*
X016309Y013833D01*
X016318Y013774D01*
X016324Y013716D01*
X016326Y013657D01*
X016324Y013598D01*
X016318Y013540D01*
X016309Y013481D01*
X016295Y013424D01*
X016278Y013368D01*
X016257Y013313D01*
X016233Y013259D01*
X016205Y013207D01*
X016174Y013157D01*
X016140Y013109D01*
X016103Y013064D01*
X016062Y013021D01*
X016019Y012980D01*
X015974Y012943D01*
X015926Y012909D01*
X015876Y012878D01*
X015824Y012850D01*
X015770Y012826D01*
X015715Y012805D01*
X015659Y012788D01*
X015602Y012774D01*
X015543Y012765D01*
X015485Y012759D01*
X015426Y012757D01*
X014141Y011141D02*
X013511Y011141D01*
X013354Y010984D01*
X013354Y010551D01*
X013354Y009763D02*
X013354Y009173D01*
X014299Y009173D01*
X014299Y009763D01*
X014299Y010551D02*
X014299Y010984D01*
X014141Y011141D01*
X017826Y015657D02*
X018326Y015657D01*
X017296Y015157D02*
X017298Y015228D01*
X017304Y015299D01*
X017314Y015370D01*
X017328Y015439D01*
X017345Y015508D01*
X017367Y015576D01*
X017392Y015643D01*
X017421Y015708D01*
X017453Y015771D01*
X017489Y015833D01*
X017528Y015892D01*
X017571Y015949D01*
X017616Y016004D01*
X017665Y016056D01*
X017716Y016105D01*
X017770Y016151D01*
X017827Y016195D01*
X017885Y016235D01*
X017946Y016271D01*
X018009Y016305D01*
X018074Y016334D01*
X018140Y016360D01*
X018208Y016383D01*
X018276Y016401D01*
X018346Y016416D01*
X018416Y016427D01*
X018487Y016434D01*
X018558Y016437D01*
X018629Y016436D01*
X018700Y016431D01*
X018771Y016422D01*
X018841Y016409D01*
X018910Y016393D01*
X018978Y016372D01*
X019045Y016348D01*
X019111Y016320D01*
X019174Y016288D01*
X019236Y016253D01*
X019296Y016215D01*
X019354Y016173D01*
X019409Y016129D01*
X019462Y016081D01*
X019512Y016030D01*
X019559Y015977D01*
X019603Y015921D01*
X019644Y015863D01*
X019682Y015802D01*
X019716Y015740D01*
X019746Y015675D01*
X019773Y015610D01*
X019797Y015542D01*
X019816Y015474D01*
X019832Y015405D01*
X019844Y015334D01*
X019852Y015264D01*
X019856Y015193D01*
X019856Y015121D01*
X019852Y015050D01*
X019844Y014980D01*
X019832Y014909D01*
X019816Y014840D01*
X019797Y014772D01*
X019773Y014704D01*
X019746Y014639D01*
X019716Y014574D01*
X019682Y014512D01*
X019644Y014451D01*
X019603Y014393D01*
X019559Y014337D01*
X019512Y014284D01*
X019462Y014233D01*
X019409Y014185D01*
X019354Y014141D01*
X019296Y014099D01*
X019236Y014061D01*
X019174Y014026D01*
X019111Y013994D01*
X019045Y013966D01*
X018978Y013942D01*
X018910Y013921D01*
X018841Y013905D01*
X018771Y013892D01*
X018700Y013883D01*
X018629Y013878D01*
X018558Y013877D01*
X018487Y013880D01*
X018416Y013887D01*
X018346Y013898D01*
X018276Y013913D01*
X018208Y013931D01*
X018140Y013954D01*
X018074Y013980D01*
X018009Y014009D01*
X017946Y014043D01*
X017885Y014079D01*
X017827Y014119D01*
X017770Y014163D01*
X017716Y014209D01*
X017665Y014258D01*
X017616Y014310D01*
X017571Y014365D01*
X017528Y014422D01*
X017489Y014481D01*
X017453Y014543D01*
X017421Y014606D01*
X017392Y014671D01*
X017367Y014738D01*
X017345Y014806D01*
X017328Y014875D01*
X017314Y014944D01*
X017304Y015015D01*
X017298Y015086D01*
X017296Y015157D01*
X017632Y020293D02*
X016865Y020293D01*
X016865Y020789D01*
X016865Y022639D02*
X016865Y024626D01*
X020288Y024626D01*
X020288Y020293D01*
X019521Y020293D01*
X020288Y024616D02*
X020288Y025867D01*
X016865Y025867D01*
X016865Y024616D01*
X013826Y024513D02*
X013433Y024907D01*
X012220Y024907D01*
X011826Y024513D01*
X011826Y024395D02*
X011826Y023419D01*
X011826Y023301D02*
X012220Y022907D01*
X013433Y022907D01*
X013826Y023301D01*
X013826Y023407D02*
X013826Y024395D01*
X012326Y023907D02*
X012328Y023951D01*
X012334Y023995D01*
X012344Y024038D01*
X012357Y024080D01*
X012374Y024121D01*
X012395Y024160D01*
X012419Y024197D01*
X012446Y024232D01*
X012476Y024264D01*
X012509Y024294D01*
X012545Y024320D01*
X012582Y024344D01*
X012622Y024363D01*
X012663Y024380D01*
X012706Y024392D01*
X012749Y024401D01*
X012793Y024406D01*
X012837Y024407D01*
X012881Y024404D01*
X012925Y024397D01*
X012968Y024386D01*
X013010Y024372D01*
X013050Y024354D01*
X013089Y024332D01*
X013125Y024308D01*
X013159Y024280D01*
X013191Y024249D01*
X013220Y024215D01*
X013246Y024179D01*
X013268Y024141D01*
X013287Y024101D01*
X013302Y024059D01*
X013314Y024017D01*
X013322Y023973D01*
X013326Y023929D01*
X013326Y023885D01*
X013322Y023841D01*
X013314Y023797D01*
X013302Y023755D01*
X013287Y023713D01*
X013268Y023673D01*
X013246Y023635D01*
X013220Y023599D01*
X013191Y023565D01*
X013159Y023534D01*
X013125Y023506D01*
X013089Y023482D01*
X013050Y023460D01*
X013010Y023442D01*
X012968Y023428D01*
X012925Y023417D01*
X012881Y023410D01*
X012837Y023407D01*
X012793Y023408D01*
X012749Y023413D01*
X012706Y023422D01*
X012663Y023434D01*
X012622Y023451D01*
X012582Y023470D01*
X012545Y023494D01*
X012509Y023520D01*
X012476Y023550D01*
X012446Y023582D01*
X012419Y023617D01*
X012395Y023654D01*
X012374Y023693D01*
X012357Y023734D01*
X012344Y023776D01*
X012334Y023819D01*
X012328Y023863D01*
X012326Y023907D01*
X009397Y014562D02*
X009220Y014562D01*
X009397Y014562D02*
X009397Y012751D01*
X009220Y012751D01*
X008433Y012751D02*
X008256Y012751D01*
X008256Y014562D01*
X008433Y014562D01*
X008433Y014051D02*
X009220Y014051D01*
X002470Y020962D02*
X002470Y021513D01*
X002313Y021789D02*
X002076Y022025D01*
X001840Y021789D01*
X002313Y021789D01*
X002352Y022025D02*
X002076Y022025D01*
X001801Y022025D01*
X001683Y022301D02*
X001683Y022852D01*
X002470Y022852D01*
X002470Y022301D01*
X001683Y021513D02*
X001683Y020962D01*
X002470Y020962D01*
D14*
X000876Y008657D02*
X000876Y002657D01*
X003076Y002657D01*
X003076Y003157D01*
X002576Y003157D01*
X002576Y008157D01*
X003076Y008157D01*
X003076Y003157D01*
X003328Y002704D02*
X019076Y002704D01*
X019076Y008610D01*
X003328Y008610D01*
X003328Y002704D01*
X003076Y008157D02*
X003076Y008657D01*
X000876Y008657D01*
X008556Y017177D02*
X008556Y018537D01*
X008556Y018777D01*
X008556Y020137D01*
X015596Y020137D01*
X015596Y017177D01*
X008556Y017177D01*
X008556Y018537D02*
X008577Y018539D01*
X008597Y018544D01*
X008616Y018553D01*
X008633Y018565D01*
X008648Y018580D01*
X008660Y018597D01*
X008669Y018616D01*
X008674Y018636D01*
X008676Y018657D01*
X008674Y018678D01*
X008669Y018698D01*
X008660Y018717D01*
X008648Y018734D01*
X008633Y018749D01*
X008616Y018761D01*
X008597Y018770D01*
X008577Y018775D01*
X008556Y018777D01*
X009351Y023282D02*
X009652Y023282D01*
X009502Y023282D02*
X009502Y023732D01*
X009351Y023582D01*
X007752Y023582D02*
X007752Y023657D01*
X007677Y023732D01*
X007526Y023732D01*
X007451Y023657D01*
X007752Y023582D02*
X007451Y023282D01*
X007752Y023282D01*
X005752Y023357D02*
X005677Y023282D01*
X005526Y023282D01*
X005451Y023357D01*
X005602Y023507D02*
X005677Y023507D01*
X005752Y023432D01*
X005752Y023357D01*
X005677Y023507D02*
X005752Y023582D01*
X005752Y023657D01*
X005677Y023732D01*
X005526Y023732D01*
X005451Y023657D01*
X011976Y023911D02*
X012076Y023732D01*
X012076Y023407D01*
X012076Y023997D02*
X012076Y024346D01*
X013426Y010307D02*
X014226Y010307D01*
X011526Y009832D02*
X011526Y009774D01*
X011293Y009540D01*
X011293Y009482D01*
X011158Y009540D02*
X011158Y009774D01*
X010925Y009540D01*
X010983Y009482D01*
X011100Y009482D01*
X011158Y009540D01*
X010925Y009540D02*
X010925Y009774D01*
X010983Y009832D01*
X011100Y009832D01*
X011158Y009774D01*
X011293Y009832D02*
X011526Y009832D01*
X010790Y009774D02*
X010790Y009540D01*
X010731Y009482D01*
X010615Y009482D01*
X010556Y009540D01*
X010790Y009774D01*
X010731Y009832D01*
X010615Y009832D01*
X010556Y009774D01*
X010556Y009540D01*
X010422Y009657D02*
X010188Y009657D01*
X010363Y009832D01*
X010363Y009482D01*
X010053Y009482D02*
X010053Y009832D01*
X009820Y009832D02*
X009820Y009482D01*
X009685Y009482D02*
X009451Y009482D01*
X009568Y009482D02*
X009568Y009832D01*
X009451Y009715D01*
X009820Y009832D02*
X010053Y009482D01*
D15*
X010304Y010906D03*
X011349Y010907D03*
X011349Y012157D03*
X010304Y012156D03*
X011804Y015406D03*
X012849Y015407D03*
X014054Y015406D03*
X015099Y015407D03*
X018054Y012656D03*
X019099Y012657D03*
X003099Y019807D03*
X002054Y019806D03*
D16*
X018571Y020537D03*
D17*
X018576Y022942D03*
D18*
X016761Y021697D03*
D19*
X015501Y010407D03*
X015501Y010407D03*
D20*
X017651Y010407D03*
X017651Y010407D03*
X017651Y009497D03*
X017651Y009497D03*
X017651Y011317D03*
X017651Y011317D03*
D21*
X019076Y010679D03*
X019077Y009635D03*
X012577Y010885D03*
X012576Y011929D03*
X010577Y013385D03*
X010576Y014429D03*
X015327Y023385D03*
X015326Y024429D03*
D22*
X009196Y011802D03*
X008826Y011012D03*
X008456Y011802D03*
D23*
X008266Y011667D02*
X009386Y011667D01*
X009386Y011147D01*
X008266Y011147D01*
X008266Y011667D01*
X006926Y011907D02*
X006926Y012157D01*
X004826Y012157D01*
X004826Y011657D02*
X004326Y012657D01*
X004576Y012907D02*
X004576Y015507D01*
X004826Y015757D02*
X006056Y015757D01*
X004326Y015757D02*
X003106Y015757D01*
X001326Y018057D02*
X007826Y018057D01*
X007826Y009157D01*
X001326Y009157D01*
X001326Y018057D01*
X003561Y022657D02*
X010061Y022657D01*
X010061Y025657D01*
X003561Y025657D01*
X003561Y022657D01*
X004326Y012157D02*
X002226Y012157D01*
X002226Y011907D01*
X004326Y011657D02*
X004826Y011657D01*
X004576Y011407D02*
X004576Y011007D01*
D24*
X004326Y011657D02*
X004326Y012157D01*
X004326Y012657D01*
X004826Y012657D01*
X004826Y012157D01*
X004826Y011657D01*
X004576Y015507D02*
X004326Y015757D01*
X004206Y015887D01*
X009076Y009657D02*
X009326Y009657D01*
X009326Y009157D01*
X011326Y009157D01*
X011326Y010157D01*
X009326Y010157D01*
X009326Y009657D01*
X011326Y010157D02*
X011826Y010157D01*
X011826Y009657D01*
X012076Y009657D01*
X011826Y009657D02*
X011826Y009157D01*
X011326Y009157D01*
D25*
X002126Y008157D03*
X002126Y007157D03*
X002126Y006157D03*
X002126Y005157D03*
X002126Y004157D03*
X002126Y003157D03*
D26*
X008726Y017177D02*
X008926Y017177D01*
X009226Y017177D02*
X009426Y017177D01*
X009726Y017177D02*
X009926Y017177D01*
X010226Y017177D02*
X010426Y017177D01*
X010726Y017177D02*
X010926Y017177D01*
X011226Y017177D02*
X011426Y017177D01*
X011726Y017177D02*
X011926Y017177D01*
X012226Y017177D02*
X012426Y017177D01*
X012726Y017177D02*
X012926Y017177D01*
X013226Y017177D02*
X013426Y017177D01*
X013726Y017177D02*
X013926Y017177D01*
X014226Y017177D02*
X014426Y017177D01*
X014726Y017177D02*
X014926Y017177D01*
X015226Y017177D02*
X015426Y017177D01*
X015426Y020137D02*
X015226Y020137D01*
X014926Y020137D02*
X014726Y020137D01*
X014426Y020137D02*
X014226Y020137D01*
X013926Y020137D02*
X013726Y020137D01*
X013426Y020137D02*
X013226Y020137D01*
X012926Y020137D02*
X012726Y020137D01*
X012426Y020137D02*
X012226Y020137D01*
X011926Y020137D02*
X011726Y020137D01*
X011426Y020137D02*
X011226Y020137D01*
X010926Y020137D02*
X010726Y020137D01*
X010426Y020137D02*
X010226Y020137D01*
X009926Y020137D02*
X009726Y020137D01*
X009426Y020137D02*
X009226Y020137D01*
X008926Y020137D02*
X008726Y020137D01*
M02*
